{
.appVersion = "3120";
.formatVersion = 3;
axes = (
{
name = Weight;
tag = wght;
}
);
classes = (
{
code = "zero
one
two
twostroke
three
four
five
Tonefive
six
seven
eight
nine
zero.slash
one.ss01
three.1
four.ss01
six.ss01
nine.ss01
zero.tf
one.tf
two.tf
three.tf
four.tf
five.tf
six.tf
seven.tf
eight.tf
nine.tf
zero.tf.slash
one.tf.ss01
three.1.tf
four.tf.ss01
six.tf.ss01
nine.tf.ss01
";
name = Numeral;
},
{
code = "space
nbspace
narrownbspace
mediumspace-math
enquad
emquad
enspace
emspace
thirdemspace
quarteremspace
sixthemspace
figurespace
punctuationspace
thinspace
hairspace
zerowidthspace
";
name = Whitespace;
},
{
automatic = 1;

glyphs = (
{
color = (219,235,247,1);
glyphname = A;
kernLeft = A;
kernRight = A;
lastChange = "2021-09-25 14:20:58 +0000";
layers = (
{
anchors = (
{
name = bottom;
pos = (836,0);
},
{
name = ogonek;
pos = (1612,0);
},
{
name = tonos;
pos = (692,2048);
},
{
name = top;
pos = (836,2304);
}
);
layerId = "B1F27B51-9973-4381-9301-4FE46FE1CA59";
shapes = (
{
closed = 1;
nodes = (
(832,1968,l),
(840,1968,l),
(1544,0,l),
(1612,0,l),
(880,2048,l),
(792,2048,l),
(60,0,l),
(128,0,l)
);
},
{
closed = 1;
nodes = (
(360,692,l),
(1312,692,l),
(1312,756,l),
(360,756,l)
);
}
);
width = 1672;
},
{
anchors = (
{
name = bottom;
pos = (930,0);
},
{
name = ogonek;
pos = (1810,0);
},
{
name = tonos;
pos = (658,2048);
},
{
name = top;
pos = (930,2304);
}
);
guides = (
{
angle = 90;
pos = (2052,1832);
},
{
orientation = center;
angle = 90;
pos = (816,144);
}
);
layerId = "C698F293-3EC0-4A5A-A3A0-0FDB1F5CF265";
shapes = (
{
closed = 1;
nodes = (
(922,1724,l),
(938,1724,l),
(1550,0,l),
(1810,0,l),
(1058,2048,l),
(802,2048,l),
(50,0,l),
(310,0,l)
);
},
{
closed = 1;
nodes = (
(406,580,l),
(1454,580,l),
(1454,800,l),
(406,800,l)
);
}
);
width = 1860;
},
{
anchors = (
{
name = bottom;
pos = (1120,0);
},
{
name = ogonek;
pos = (2176,0);
},
{
name = tonos;
pos = (632,2048);
},
{
name = top;
pos = (1120,2304);
}
);
background = {
shapes = (
{
pos = (-1436,0);
ref = V;
}
);
};
guides = (
{
pos = (888,1364);
},
{
orientation = center;
angle = 90;
pos = (872,964);
}
);
layerId = "5C20EF92-B63D-42A8-8878-93C2863E0093";
shapes = (
{
closed = 1;
nodes = (
(1112,1484,l),
(1128,1484,l),
(1576,0,l),
(2176,0,l),
(1500,2048,l),
(740,2048,l),
(64,0,l),
(664,0,l)
);
},
{
closed = 1;
nodes = (
(552,392,l),
(1680,392,l),
(1680,808,l),
(552,808,l)
);
}
);
width = 2240;
},
{
anchors = (
{
name = bottom;
pos = (1164,0);
},
{
name = ogonek;
pos = (2220,0);
},
{
name = right;
pos = (2256,0);
},
{
name = tonos;
pos = (756,2048);
},
{
name = top;
pos = (1164,2180);
}
);
associatedMasterId = "5C20EF92-B63D-42A8-8878-93C2863E0093";
guides = (
{
pos = (1084,1364);
},
{
orientation = center;
angle = 90;
pos = (1068,964);
}
);
layerId = "F5014171-28B6-4E82-981B-66BFC4193D11";
name = "Oct 2 18, 14:33";
shapes = (
{
closed = 1;
nodes = (
(1156,1364,l),
(1172,1364,l),
(1656,0,l),
(2256,0,l),
(1464,2048,l),
(868,2048,l),
(72,0,l),
(672,0,l)
);
},
{
closed = 1;
nodes = (
(560,320,l),
(1768,320,l),
(1768,752,l),
(560,752,l)
);
}
);
width = 2328;
}
);
unicode = 65;
userData = {
com.typemytype.robofont.guideline.magnetic.9EkLRXjahr = 5;
"interface.width-adjustments" = (
-16
);
};
},
{
glyphname = AE;
kernLeft = A;
kernRight = E;
lastChange = "2021-09-25 14:20:58 +0000";
layers = (
{
anchors = (
{
name = top;
pos = (1696,2304);
}
);
layerId = "B1F27B51-9973-4381-9301-4FE46FE1CA59";
shapes = (
{
closed = 1;
nodes = (
(132,0,l),
(1144,1984,l),
(1344,1984,l),
(1344,0,l),
(2464,0,l),
(2464,64,l),
(1408,64,l),
(1408,992,l),
(2376,992,l),
(2376,1056,l),
(1408,1056,l),
(1408,1984,l),
(2436,1984,l),
(2436,2048,l),
(1104,2048,l),
(60,0,l)
);
},
{
closed = 1;
nodes = (
(1380,692,l),
(1380,756,l),
(460,756,l),
(460,692,l)
);
}
);
width = 2636;
},
{
anchors = (
{
name = top;
pos = (1798,2304);
}
);
background = {
shapes = (
{
ref = A;
},
{
pos = (1104,0);
ref = E;
}
);
};
layerId = "C698F293-3EC0-4A5A-A3A0-0FDB1F5CF265";
shapes = (
{
closed = 1;
nodes = (
(322,0,l),
(1182,1828,l),
(1330,1828,l),
(1330,0,l),
(2582,0,l),
(2582,220,l),
(1578,220,l),
(1578,916,l),
(2502,916,l),
(2502,1136,l),
(1578,1136,l),
(1578,1828,l),
(2566,1828,l),
(2566,2048,l),
(1042,2048,l),
(50,0,l)
);
},
{
closed = 1;
nodes = (
(1454,580,l),
(1454,800,l),
(486,800,l),
(486,580,l)
);
}
);
width = 2744;
},
{
anchors = (
{
name = top;
pos = (1860,2304);
}
);
background = {
shapes = (
{
pos = (4,0);
ref = A;
},
{
pos = (1224,0);
ref = E;
}
);
};
guides = (
{
angle = 90;
pos = (1240,2140);
}
);
layerId = "5C20EF92-B63D-42A8-8878-93C2863E0093";
shapes = (
{
closed = 1;
nodes = (
(676,0,l),
(1216,1484,l),
(1356,1484,l),
(1356,0,l),
(2828,0,l),
(2828,448,l),
(1912,448,l),
(1912,800,l),
(2756,800,l),
(2756,1248,l),
(1912,1248,l),
(1912,1600,l),
(2832,1600,l),
(2832,2048,l),
(864,2048,l),
(64,0,l)
);
},
{
closed = 1;
nodes = (
(1684,392,l),
(1684,808,l),
(556,808,l),
(556,392,l)
);
}
);
width = 2976;
}
);
metricLeft = A;
metricRight = E;
unicode = 198;
userData = {
interface.gridadjust.original = "{'width': 2647, 'leftMargin': -30, 'rightMargin': 45}";
"interface.width-adjustments" = (
-16
);
};
},
{
color = (219,235,247,1);
glyphname = B;
kernLeft = B;
kernRight = B;
lastChange = "2021-09-25 14:20:58 +0000";
layers = (
{
anchors = (
{
name = bottom;
pos = (844,0);
},
{
name = top;
pos = (820,2304);
}
);
guides = (
{
orientation = center;
angle = 180;
pos = (808,1624);
}
);
layerId = "B1F27B51-9973-4381-9301-4FE46FE1CA59";
shapes = (
{
closed = 1;
nodes = (
(996,0,ls),
(1348,0,o),
(1556,208,o),
(1556,524,cs),
(1556,809,o),
(1386,1017,o),
(1164,1036,c),
(1164,1044,l),
(1362,1094,o),
(1476,1287,o),
(1476,1528,cs),
(1476,1851,o),
(1272,2048,o),
(928,2048,cs),
(288,2048,l),
(288,0,l)
);
},
{
closed = 1;
nodes = (
(352,1008,l),
(996,1008,ls),
(1285,1008,o),
(1492,808,o),
(1492,524,cs),
(1492,248,o),
(1296,64,o),
(996,64,cs),
(352,64,l)
);
},
{
closed = 1;
nodes = (
(352,1984,l),
(928,1984,ls),
(1226,1984,o),
(1412,1819,o),
(1412,1528,cs),
(1412,1284,o),
(1275,1072,o),
(996,1072,cs),
(352,1072,l)
);
}
);
width = 1740;
},
{
anchors = (
{
name = bottom;
pos = (866,0);
},
{
name = top;
pos = (854,2304);
}
);
guides = (
{
angle = 90;
pos = (880,1772);
},
{
angle = 90;
pos = (1568,1340);
}
);
layerId = "C698F293-3EC0-4A5A-A3A0-0FDB1F5CF265";
shapes = (
{
closed = 1;
nodes = (
(966,0,ls),
(1450,0,o),
(1650,236,o),
(1650,544,cs),
(1650,868,o),
(1426,1044,o),
(1238,1056,c),
(1238,1076,l),
(1414,1124,o),
(1570,1240,o),
(1570,1504,cs),
(1570,1804,o),
(1370,2048,o),
(942,2048,cs),
(226,2048,l),
(226,0,l)
);
},
{
closed = 1;
nodes = (
(474,932,l),
(978,932,ls),
(1246,932,o),
(1414,752,o),
(1414,544,cs),
(1414,364,o),
(1290,220,o),
(966,220,cs),
(474,220,l)
);
},
{
closed = 1;
nodes = (
(474,1828,l),
(942,1828,ls),
(1214,1828,o),
(1334,1684,o),
(1334,1504,cs),
(1334,1288,o),
(1158,1148,o),
(934,1148,cs),
(474,1148,l)
);
}
);
width = 1788;
},
{
anchors = (
{
name = bottom;
pos = (912,0);
},
{
name = top;
pos = (916,2304);
}
);
guides = (
{
orientation = center;
angle = 90;
pos = (612,716);
}
);
layerId = "5C20EF92-B63D-42A8-8878-93C2863E0093";
shapes = (
{
closed = 1;
nodes = (
(1096,0,ls),
(1541,0,o),
(1816,243,o),
(1816,580,cs),
(1816,869,o),
(1603,1058,o),
(1340,1068,c),
(1340,1088,l),
(1577,1135,o),
(1736,1310,o),
(1736,1536,cs),
(1736,1848,o),
(1488,2048,o),
(1020,2048,cs),
(132,2048,l),
(132,0,l)
);
},
{
closed = 1;
nodes = (
(688,876,l),
(956,876,ls),
(1125,876,o),
(1228,796,o),
(1228,652,cs),
(1228,515,o),
(1135,444,o),
(948,444,cs),
(688,444,l)
);
},
{
closed = 1;
nodes = (
(688,1612,l),
(924,1612,ls),
(1062,1612,o),
(1164,1542,o),
(1164,1416,cs),
(1164,1290,o),
(1062,1220,o),
(916,1220,cs),
(688,1220,l)
);
}
);
width = 1880;
}
);
metricLeft = H;
unicode = 66;
userData = {
com.typemytype.robofont.guideline.magnetic.olHMUUD5VH = 5;
com.typemytype.robofont.guideline.magnetic.rWKPWS6RQH = 5;
"interface.width-adjustments" = (
-16
);
};
},
{
glyphname = Bhook;
kernLeft = B;
kernRight = B;
lastChange = "2021-09-25 14:20:58 +0000";
layers = (
{
layerId = "B1F27B51-9973-4381-9301-4FE46FE1CA59";
shapes = (
{
closed = 1;
nodes = (
(592,2048,l),
(412,2048,ls),
(236,2048,o),
(141,1947,o),
(140,1760,cs),
(140,1688,l),
(204,1688,l),
(204,1724,ls),
(204,1912,o),
(263,1984,o),
(416,1984,cs),
(592,1984,l,{
name = hr00;
})
);
},
{
alignment = -1;
pos = (276,0);
ref = B;
}
);
width = 2016;
},
{
layerId = "C698F293-3EC0-4A5A-A3A0-0FDB1F5CF265";
shapes = (
{
closed = 1;
nodes = (
(722,2048,l),
(522,2048,ls),
(258,2048,o),
(114,1864,o),
(114,1640,cs),
(114,1504,l),
(346,1504,l),
(346,1580,ls),
(346,1708,o),
(366,1828,o),
(526,1828,cs),
(722,1828,l)
);
},
{
pos = (428,0);
ref = B;
}
);
width = 2216;
},
{
layerId = "5C20EF92-B63D-42A8-8878-93C2863E0093";
shapes = (
{
closed = 1;
nodes = (
(1144,2048,l),
(780,2048,ls),
(350,2048,o),
(74,1828,o),
(76,1440,cs),
(76,1196,l),
(564,1196,l),
(564,1344,ls),
(562,1464,o),
(610,1604,o),
(780,1604,cs),
(1144,1604,l,{
name = hr00;
})
);
},
{
pos = (680,0);
ref = B;
}
);
width = 2560;
}
);
metricLeft = T;
metricRight = B;
unicode = 385;
userData = {
interface.gridadjust.original = "{'width': 2046.0, 'leftMargin': 41, 'rightMargin': 100.0}";
"interface.width-adjustments" = (
-16
);
};
},
{
glyphname = Btopbar;
lastChange = "2021-09-25 14:20:58 +0000";
layers = (
{
layerId = "B1F27B51-9973-4381-9301-4FE46FE1CA59";
shapes = (
{
closed = 1;
nodes = (
(1056,0,ls),
(1409,0,o),
(1628,213,o),
(1628,556,cs),
(1628,867,o),
(1403,1068,o),
(1056,1068,cs),
(352,1068,l),
(352,1984,l),
(1400,1984,l),
(1400,2048,l),
(288,2048,l),
(288,0,l)
);
},
{
closed = 1;
nodes = (
(352,1004,l),
(1056,1004,ls),
(1364,1004,o),
(1565,828,o),
(1564,560,cs),
(1563,247,o),
(1376,64,o),
(1056,64,cs),
(352,64,l)
);
}
);
width = 1776;
},
{
guides = (
{
angle = 90;
pos = (148,1684);
}
);
layerId = "C698F293-3EC0-4A5A-A3A0-0FDB1F5CF265";
shapes = (
{
closed = 1;
nodes = (
(994,0,ls),
(1434,0,o),
(1674,248,o),
(1674,604,cs),
(1674,960,o),
(1434,1188,o),
(994,1188,cs),
(474,1188,l),
(474,1828,l),
(1462,1828,l),
(1462,2048,l),
(226,2048,l),
(226,0,l)
);
},
{
closed = 1;
nodes = (
(474,968,l),
(994,968,ls),
(1274,968,o),
(1430,804,o),
(1430,608,cs),
(1430,408,o),
(1274,216,o),
(994,216,cs),
(474,216,l)
);
}
);
width = 1796;
},
{
layerId = "5C20EF92-B63D-42A8-8878-93C2863E0093";
shapes = (
{
closed = 1;
nodes = (
(896,0,ls),
(1412,0,o),
(1756,280,o),
(1756,688,cs),
(1756,1096,o),
(1412,1360,o),
(896,1360,cs),
(688,1360,l),
(688,1600,l),
(1572,1600,l),
(1572,2048,l),
(132,2048,l),
(132,0,l)
);
},
{
closed = 1;
nodes = (
(688,936,l),
(896,936,ls),
(1096,936,o),
(1204,832,o),
(1204,692,cs),
(1204,544,o),
(1096,436,o),
(896,436,cs),
(688,436,l)
);
}
);
width = 1848;
}
);
metricLeft = B;
metricRight = b;
unicode = 386;
userData = {
com.typemytype.robofont.guideline.magnetic.8OVvpe1adm = 5;
interface.gridadjust.original = "{'width': 1777, 'leftMargin': 171, 'rightMargin': 158}";
"interface.width-adjustments" = (
-16
);
};
},
{
color = (219,235,247,1);
glyphname = C;
kernLeft = C;
kernRight = C;
lastChange = "2021-09-25 14:20:58 +0000";
layers = (
{
anchors = (
{
name = cedilla;
pos = (1020,0);
},
{
name = top;
pos = (1020,2304);
}
);
layerId = "B1F27B51-9973-4381-9301-4FE46FE1CA59";
shapes = (
{
closed = 1;
nodes = (
(1754,1700,o),
(1502,2076,o),
(1020,2076,cs),
(516,2076,o),
(172,1652,o),
(172,1024,cs),
(172,396,o),
(516,-28,o),
(1020,-28,cs),
(1502,-28,o),
(1754,352,o),
(1804,640,c),
(1736,640,l),
(1686,364,o),
(1438,36,o),
(1020,36,cs),
(600,36,o),
(236,380,o),
(236,1024,cs),
(236,1660,o),
(600,2012,o),
(1020,2012,cs),
(1438,2012,o),
(1686,1680,o),
(1736,1408,c),
(1804,1408,l)
);
}
);
width = 1972;
},
{
anchors = (
{
name = cedilla;
pos = (1050,-16);
},
{
name = top;
pos = (1050,2304);
}
);
background = {
shapes = (
{
ref = O;
}
);
};
guides = (
{
angle = 90;
pos = (1028,1432);
}
);
layerId = "C698F293-3EC0-4A5A-A3A0-0FDB1F5CF265";
shapes = (
{
closed = 1;
nodes = (
(1798,1828,o),
(1462,2076,o),
(1050,2076,cs),
(526,2076,o),
(146,1672,o),
(146,1024,cs),
(146,376,o),
(526,-28,o),
(1050,-28,cs),
(1462,-28,o),
(1798,220,o),
(1874,640,c),
(1626,640,l),
(1566,356,o),
(1322,204,o),
(1050,204,cs),
(678,204,o),
(386,492,o),
(386,1024,cs),
(386,1556,o),
(678,1844,o),
(1050,1844,cs),
(1322,1844,o),
(1566,1692,o),
(1626,1408,c),
(1874,1408,l)
);
}
);
width = 2004;
},
{
anchors = (
{
name = cedilla;
pos = (1100,8);
},
{
name = top;
pos = (1112,2304);
}
);
background = {
hints = (
{
horizontal = 1;
place = (-28, 21);
target = up;
type = BottomGhost;
},
{
horizontal = 1;
place = (2076, -20);
target = down;
type = TopGhost;
},
{
horizontal = 1;
options = 4;
place = (-28, 0);
type = TTSnap;
},
{
horizontal = 1;
options = 4;
place = (2076, 0);
type = TTSnap;
},
{
horizontal = 1;
place = (-28, 21);
target = up;
type = BottomGhost;
},
{
horizontal = 1;
place = (2076, -20);
target = down;
type = TopGhost;
},
{
horizontal = 1;
options = 4;
place = (-28, 0);
type = TTSnap;
},
{
horizontal = 1;
options = 4;
place = (2076, 0);
type = TTSnap;
},
{
horizontal = 1;
place = (-28, 21);
target = up;
type = BottomGhost;
},
{
horizontal = 1;
place = (2076, -20);
target = down;
type = TopGhost;
},
{
horizontal = 1;
options = 4;
place = (-28, 0);
type = TTSnap;
},
{
horizontal = 1;
options = 4;
place = (2076, 0);
type = TTSnap;
}
);
shapes = (
{
ref = O;
}
);
};
guides = (
{
pos = (1012,1024);
},
{
pos = (-136,0);
}
);
layerId = "5C20EF92-B63D-42A8-8878-93C2863E0093";
shapes = (
{
closed = 1;
nodes = (
(2000,1788,o),
(1628,2076,o),
(1112,2076,cs),
(560,2076,o),
(124,1708,o),
(124,1024,cs),
(124,343,o),
(548,-28,o),
(1112,-28,cs),
(1712,-28,o),
(2016,388,o),
(2044,736,c),
(1480,740,l),
(1452,565,o),
(1328,456,o),
(1124,456,cs),
(853,456,o),
(696,648,o),
(696,1024,cs),
(696,1380,o),
(848,1592,o),
(1128,1592,cs),
(1342,1592,o),
(1464,1466,o),
(1480,1280,c),
(2044,1280,l)
);
}
);
width = 2164;
}
);
metricLeft = O;
unicode = 67;
userData = {
com.typemytype.robofont.guideline.magnetic.ju3ppiFr9V = 5;
"interface.width-adjustments" = (
-16
);
};
},
{
glyphname = Chook;
kernLeft = C;
kernRight = C;
lastChange = "2021-09-25 14:20:58 +0000";
layers = (
{
layerId = "B1F27B51-9973-4381-9301-4FE46FE1CA59";
shapes = (
{
closed = 1;
nodes = (
(1804,1748,ls),
(1804,1916,o),
(1852,1980,o),
(1978,1980,cs),
(1997,1980,o),
(2015,1979,o),
(2028,1976,c),
(2028,2040,l),
(2016,2043,o),
(1998,2044,o),
(1978,2044,cs),
(1815,2044,o),
(1740,1951,o),
(1740,1748,cs),
(1740,1408,l),
(1804,1408,l,{
name = hr00;
})
);
},
{
alignment = -1;
ref = C;
}
);
width = 1922;
},
{
layerId = "C698F293-3EC0-4A5A-A3A0-0FDB1F5CF265";
shapes = (
{
closed = 1;
nodes = (
(1874,1664,ls),
(1874,1824,o),
(1970,1872,o),
(2098,1872,cs),
(2126,1872,o),
(2154,1868,o),
(2174,1864,c),
(2174,2064,l),
(2138,2076,o),
(2086,2076,o),
(2038,2076,cs),
(1814,2076,o),
(1638,1928,o),
(1638,1664,cs),
(1638,1408,l),
(1874,1408,l)
);
},
{
ref = C;
}
);
width = 2128;
},
{
guides = (
{
angle = 90;
pos = (-1720,0);
}
);
layerId = "5C20EF92-B63D-42A8-8878-93C2863E0093";
shapes = (
{
closed = 1;
nodes = (
(2044,1396,ls),
(2044,1612,o),
(2228,1684,o),
(2356,1684,c),
(2392,1684,o),
(2468,1680,o),
(2508,1680,c),
(2508,2120,l),
(2412,2132,o),
(2344,2132,o),
(2260,2132,cs),
(1864,2132,o),
(1508,1908,o),
(1508,1488,cs),
(1508,1280,l),
(2044,1280,l,{
name = hr00;
})
);
},
{
ref = C;
}
);
width = 2484;
}
);
metricLeft = C;
unicode = 391;
userData = {
interface.gridadjust.original = "{'width': 1998, 'leftMargin': 256, 'rightMargin': -44}";
};
},
{
color = (219,235,247,1);
glyphname = D;
kernLeft = B;
kernRight = D;
lastChange = "2021-09-25 14:20:58 +0000";
layers = (
{
anchors = (
{
name = bottom;
pos = (780,0);
},
{
name = cross;
pos = (320,1040);
},
{
name = top;
pos = (836,2304);
}
);
layerId = "B1F27B51-9973-4381-9301-4FE46FE1CA59";
shapes = (
{
closed = 1;
nodes = (
(1425,0,o),
(1774,378,o),
(1776,1032,cs),
(1777,1669,o),
(1441,2048,o),
(876,2048,cs),
(320,2048,l),
(320,1984,l),
(876,1984,ls),
(1407,1984,o),
(1710,1629,o),
(1712,1032,cs),
(1714,425,o),
(1392,64,o),
(824,64,cs),
(320,64,l),
(320,0,l),
(824,0,ls)
);
},
{
closed = 1;
nodes = (
(288,2048,l),
(288,0,l),
(352,0,l),
(352,2048,l)
);
}
);
width = 1948;
},
{
anchors = (
{
name = bottom;
pos = (834,0);
},
{
name = cross;
pos = (350,1056);
},
{
name = top;
pos = (826,2304);
}
);
layerId = "C698F293-3EC0-4A5A-A3A0-0FDB1F5CF265";
shapes = (
{
closed = 1;
nodes = (
(1482,0,o),
(1834,388,o),
(1834,1028,cs),
(1834,1664,o),
(1482,2048,o),
(886,2048,cs),
(354,2048,l),
(354,1828,l),
(870,1828,ls),
(1350,1828,o),
(1594,1524,o),
(1594,1028,cs),
(1594,528,o),
(1350,220,o),
(842,220,cs),
(366,220,l),
(366,0,l),
(858,0,ls)
);
},
{
closed = 1;
nodes = (
(226,2048,l),
(226,0,l),
(474,0,l),
(474,2048,l)
);
}
);
width = 1980;
},
{
anchors = (
{
name = bottom;
pos = (928,0);
},
{
name = cross;
pos = (408,1084);
},
{
name = top;
pos = (816,2304);
}
);
guides = (
{
pos = (1772,1024);
},
{
pos = (-136,764);
},
{
pos = (-136,1548);
},
{
pos = (1736,1696);
},
{
pos = (1736,348);
},
{
pos = (1272,1480);
},
{
pos = (1336,560);
}
);
layerId = "5C20EF92-B63D-42A8-8878-93C2863E0093";
shapes = (
{
closed = 1;
nodes = (
(1544,0,o),
(1940,384,o),
(1940,1024,c),
(1940,1664,o),
(1544,2048,o),
(912,2048,c),
(352,2048,l),
(352,1576,l),
(884,1576,l),
(1204,1576,o),
(1380,1452,o),
(1380,1024,c),
(1380,596,o),
(1204,472,o),
(900,472,c),
(360,472,l),
(360,0,l),
(920,0,l)
);
},
{
closed = 1;
nodes = (
(132,2048,l),
(132,0,l),
(688,0,l),
(688,2048,l)
);
}
);
width = 2064;
}
);
metricLeft = H;
metricRight = O;
note = "!post:RemoveOverlap";
unicode = 68;
userData = {
"interface.width-adjustments" = (
-16
);
};
},
{
glyphname = Dhook;
kernLeft = B;
kernRight = D;
lastChange = "2021-09-25 14:20:58 +0000";
layers = (
{
layerId = "B1F27B51-9973-4381-9301-4FE46FE1CA59";
shapes = (
{
closed = 1;
nodes = (
(204,1688,l),
(204,1724,ls),
(204,1912,o),
(263,1984,o),
(416,1984,cs),
(612,1984,l,{
name = hr00;
}),
(612,2048,l),
(412,2048,ls),
(236,2048,o),
(141,1947,o),
(140,1760,cs),
(140,1688,l)
);
},
{
alignment = -1;
pos = (300,0);
ref = D;
}
);
width = 2248;
},
{
layerId = "C698F293-3EC0-4A5A-A3A0-0FDB1F5CF265";
shapes = (
{
closed = 1;
nodes = (
(346,1504,l),
(346,1580,ls),
(346,1708,o),
(366,1828,o),
(526,1828,cs),
(722,1828,l),
(722,2048,l),
(522,2048,ls),
(258,2048,o),
(114,1864,o),
(114,1640,cs),
(114,1504,l)
);
},
{
pos = (444,0);
ref = D;
}
);
width = 2424;
},
{
layerId = "5C20EF92-B63D-42A8-8878-93C2863E0093";
shapes = (
{
closed = 1;
nodes = (
(564,1196,l),
(564,1344,ls),
(562,1464,o),
(610,1576,o),
(780,1576,cs),
(1144,1576,l,{
name = hr00;
}),
(1144,2048,l),
(780,2048,ls),
(350,2048,o),
(74,1828,o),
(76,1440,cs),
(76,1196,l)
);
},
{
pos = (684,0);
ref = D;
}
);
width = 2748;
}
);
metricLeft = T;
metricRight = D;
unicode = 394;
userData = {
interface.gridadjust.original = "{'width': 2134.0, 'leftMargin': 41, 'rightMargin': 184.0}";
};
},
{
glyphname = Dtopbar;
lastChange = "2021-09-25 14:20:58 +0000";
layers = (
{
layerId = "B1F27B51-9973-4381-9301-4FE46FE1CA59";
shapes = (
{
closed = 1;
nodes = (
(1470,2048,l),
(358,2048,l),
(358,1984,l),
(1406,1984,l),
(1406,1068,l),
(702,1068,ls),
(355,1068,o),
(130,867,o),
(130,556,cs),
(130,213,o),
(349,0,o),
(702,0,cs),
(1470,0,l)
);
},
{
closed = 1;
nodes = (
(702,64,ls),
(382,64,o),
(195,247,o),
(194,560,cs),
(193,828,o),
(394,1004,o),
(702,1004,cs),
(1406,1004,l),
(1406,64,l)
);
}
);
width = 1600;
},
{
layerId = "C698F293-3EC0-4A5A-A3A0-0FDB1F5CF265";
shapes = (
{
closed = 1;
nodes = (
(1590,2004,l),
(358,2004,l),
(358,1772,l),
(1306,1772,l),
(1306,1196,l),
(826,1196,ls),
(386,1196,o),
(142,960,o),
(142,604,cs),
(142,248,o),
(386,0,o),
(826,0,cs),
(1590,0,l)
);
},
{
closed = 1;
nodes = (
(826,228,ls),
(542,228,o),
(430,408,o),
(430,608,cs),
(430,804,o),
(542,964,o),
(826,964,cs),
(1306,964,l),
(1306,228,l)
);
}
);
width = 1732;
},
{
layerId = "5C20EF92-B63D-42A8-8878-93C2863E0093";
shapes = (
{
closed = 1;
nodes = (
(1796,2064,l),
(356,2064,l),
(356,1628,l),
(1260,1628,l),
(1260,1360,l),
(1032,1360,ls),
(516,1360,o),
(172,1092,o),
(172,688,cs),
(172,284,o),
(516,0,o),
(1032,0,cs),
(1796,0,l)
);
},
{
closed = 1;
nodes = (
(1032,428,ls),
(828,428,o),
(708,544,o),
(708,692,cs),
(708,832,o),
(828,936,o),
(1032,936,cs),
(1260,936,l),
(1260,428,l)
);
}
);
width = 1964;
}
);
unicode = 395;
userData = {
interface.gridadjust.original = "{'width': 1777, 'leftMargin': 109, 'rightMargin': 219}";
"interface.width-adjustments" = (
-16
);
};
},
{
color = (219,235,247,1);
glyphname = E;
kernLeft = B;
kernRight = E;
lastChange = "2021-09-25 14:20:58 +0000";
layers = (
{
anchors = (
{
name = bottom;
pos = (792,0);
},
{
name = cedilla;
pos = (796,0);
},
{
name = ogonek;
pos = (1408,0);
},
{
name = tonos;
pos = (216,2048);
},
{
name = top;
pos = (840,2304);
}
);
layerId = "B1F27B51-9973-4381-9301-4FE46FE1CA59";
shapes = (
{
closed = 1;
nodes = (
(1408,0,l),
(1408,64,l),
(352,64,l),
(352,992,l),
(1320,992,l),
(1320,1056,l),
(352,1056,l),
(352,1984,l),
(1380,1984,l),
(1380,2048,l),
(288,2048,l),
(288,0,l)
);
}
);
width = 1580;
},
{
anchors = (
{
name = bottom;
pos = (822,0);
},
{
name = cedilla;
pos = (826,0);
},
{
name = ogonek;
pos = (1478,0);
},
{
name = tonos;
pos = (162,2048);
},
{
name = top;
pos = (842,2304);
}
);
guides = (
{
orientation = center;
angle = 90;
pos = (1000,516);
}
);
layerId = "C698F293-3EC0-4A5A-A3A0-0FDB1F5CF265";
shapes = (
{
closed = 1;
nodes = (
(1478,0,l),
(1478,220,l),
(474,220,l),
(474,916,l),
(1398,916,l),
(1398,1136,l),
(474,1136,l),
(474,1828,l),
(1462,1828,l),
(1462,2048,l),
(226,2048,l),
(226,0,l)
);
}
);
width = 1640;
},
{
anchors = (
{
name = bottom;
pos = (876,0);
},
{
name = cedilla;
pos = (880,0);
},
{
name = ogonek;
pos = (1604,0);
},
{
name = tonos;
pos = (76,2048);
},
{
name = top;
pos = (876,2304);
}
);
guides = (
{
pos = (-136,1360);
},
{
orientation = center;
angle = 90;
pos = (788,620);
}
);
layerId = "5C20EF92-B63D-42A8-8878-93C2863E0093";
shapes = (
{
closed = 1;
nodes = (
(1604,0,l),
(1604,448,l),
(688,448,l),
(688,800,l),
(1532,800,l),
(1532,1248,l),
(688,1248,l),
(688,1600,l),
(1608,1600,l),
(1608,2048,l),
(132,2048,l),
(132,0,l)
);
}
);
width = 1752;
}
);
metricLeft = H;
unicode = 69;
userData = {
"interface.width-adjustments" = (
-16
);
};
},
{
glyphname = Epsilon1;
lastChange = "2021-09-25 14:20:58 +0000";
layers = (
{
background = {
shapes = (
{
closed = 1;
nodes = (
(1008,1068,l),
(876,1068,ls),
(510,1068,o),
(272,1248,o),
(272,1522,cs),
(272,1772,o),
(472,1968,o),
(820,1968,cs),
(1126,1968,o),
(1312,1772,o),
(1352,1492,c),
(1416,1492,l),
(1376,1808,o),
(1162,2032,o),
(820,2032,cs),
(438,2032,o),
(208,1808,o),
(208,1522,cs),
(208,1292,o),
(356,1103,o),
(668,1034,c),
(1008,1034,l)
);
},
{
closed = 1;
nodes = (
(340,968,o),
(168,772,o),
(168,522,cs),
(168,217,o),
(418,-28,o),
(816,-28,cs),
(1198,-28,o),
(1443,203,o),
(1484,512,c),
(1420,512,l),
(1380,236,o),
(1163,36,o),
(816,36,cs),
(451,36,o),
(232,259,o),
(232,522,cs),
(232,806,o),
(486,1004,o),
(876,1004,cs),
(1008,1004,l),
(1008,1046,l),
(654,1046,l)
);
}
);
};
layerId = "B1F27B51-9973-4381-9301-4FE46FE1CA59";
shapes = (
{
closed = 1;
nodes = (
(976,1088,l),
(844,1088,ls),
(478,1088,o),
(240,1278,o),
(240,1558,cs),
(240,1822,o),
(448,2012,o),
(776,2012,cs),
(1102,2012,o),
(1280,1816,o),
(1320,1536,c),
(1384,1536,l),
(1344,1852,o),
(1138,2076,o),
(776,2076,cs),
(414,2076,o),
(176,1858,o),
(176,1558,cs),
(176,1322,o),
(324,1123,o),
(636,1054,c),
(976,1054,l)
);
},
{
closed = 1;
nodes = (
(308,988,o),
(136,782,o),
(136,522,cs),
(136,207,o),
(386,-28,o),
(778,-28,cs),
(1166,-28,o),
(1411,203,o),
(1452,512,c),
(1388,512,l),
(1348,236,o),
(1131,36,o),
(780,36,cs),
(419,36,o),
(200,249,o),
(200,522,cs),
(200,816,o),
(454,1024,o),
(844,1024,cs),
(976,1024,l),
(976,1066,l),
(622,1066,l)
);
}
);
width = 1568;
},
{
background = {
shapes = (
{
closed = 1;
nodes = (
(1112,1136,l),
(888,1136,ls),
(592,1136,o),
(480,1272,o),
(480,1464,cs),
(480,1652,o),
(608,1800,o),
(908,1800,cs),
(1136,1800,o),
(1300,1668,o),
(1300,1480,c),
(1584,1480,l),
(1584,1820,o),
(1276,2032,o),
(908,2032,cs),
(480,2032,o),
(196,1832,o),
(196,1460,cs),
(196,1144,o),
(480,960,o),
(880,960,c),
(1112,960,l)
);
},
{
closed = 1;
nodes = (
(432,1080,o),
(164,896,o),
(164,560,cs),
(164,140,o),
(488,-28,o),
(908,-28,cs),
(1252,-28,o),
(1612,148,o),
(1612,556,c),
(1328,556,l),
(1328,360,o),
(1168,200,o),
(908,200,cs),
(628,200,o),
(452,316,o),
(452,556,cs),
(452,800,o),
(600,908,o),
(888,908,cs),
(1112,908,l),
(1112,1080,l),
(880,1080,l)
);
}
);
};
layerId = "C698F293-3EC0-4A5A-A3A0-0FDB1F5CF265";
shapes = (
{
closed = 1;
nodes = (
(1090,1156,l),
(866,1156,ls),
(570,1156,o),
(458,1326,o),
(458,1504,cs),
(458,1706,o),
(600,1844,o),
(872,1844,cs),
(1128,1844,o),
(1278,1712,o),
(1278,1524,c),
(1562,1524,l),
(1562,1864,o),
(1276,2076,o),
(872,2076,cs),
(480,2076,o),
(174,1866,o),
(174,1514,cs),
(174,1178,o),
(458,980,o),
(858,980,c),
(1090,980,l)
);
},
{
closed = 1;
nodes = (
(410,1100,o),
(142,916,o),
(142,544,cs),
(142,140,o),
(482,-28,o),
(862,-28,cs),
(1246,-28,o),
(1590,148,o),
(1590,556,c),
(1306,556,l),
(1306,360,o),
(1160,200,o),
(860,200,cs),
(620,200,o),
(430,304,o),
(430,564,cs),
(430,808,o),
(578,928,o),
(866,928,cs),
(1090,928,l),
(1090,1100,l),
(858,1100,l)
);
}
);
width = 1732;
},
{
background = {
shapes = (
{
closed = 1;
nodes = (
(1244,1224,l),
(976,1224,ls),
(814,1224,o),
(726,1284,o),
(728,1440,cs),
(726,1536,o),
(810,1600,o),
(996,1600,cs),
(1138,1600,o),
(1238,1568,o),
(1240,1452,c),
(1776,1452,l),
(1774,1812,o),
(1414,2032,o),
(996,2032,cs),
(514,2032,o),
(186,1832,o),
(188,1460,cs),
(186,1160,o),
(490,960,o),
(876,960,c),
(1244,960,l,{
name = hr00;
})
);
},
{
closed = 1;
nodes = (
(430,1080,o),
(154,896,o),
(156,560,cs),
(154,164,o),
(494,-28,o),
(996,-28,cs),
(1386,-28,o),
(1806,148,o),
(1808,556,c),
(1268,556,l),
(1266,456,o),
(1166,400,o),
(996,400,cs),
(826,400,o),
(694,444,o),
(696,580,cs),
(694,776,o),
(806,820,o),
(976,820,cs),
(1244,820,l),
(1244,1080,l),
(876,1080,l)
);
}
);
};
layerId = "5C20EF92-B63D-42A8-8878-93C2863E0093";
shapes = (
{
closed = 1;
nodes = (
(1244,1244,l),
(976,1244,ls),
(805,1244,o),
(726,1312,o),
(726,1444,cs),
(726,1583,o),
(809,1644,o),
(994,1644,cs),
(1156,1644,o),
(1238,1598,o),
(1240,1496,c),
(1776,1496,l),
(1774,1832,o),
(1446,2076,o),
(996,2076,cs),
(486,2076,o),
(186,1855,o),
(186,1480,cs),
(186,1190,o),
(476,980,o),
(876,980,c),
(1244,980,l,{
name = hr00;
})
);
},
{
closed = 1;
nodes = (
(420,1100,o),
(154,909,o),
(154,580,cs),
(154,191,o),
(457,-28,o),
(996,-28,cs),
(1474,-28,o),
(1806,211,o),
(1808,556,c),
(1268,556,l),
(1266,457,o),
(1167,400,o),
(976,400,cs),
(793,400,o),
(694,456,o),
(694,614,cs),
(694,760,o),
(776,840,o),
(976,840,cs),
(1244,840,l),
(1244,1100,l),
(876,1100,l)
);
}
);
width = 1964;
}
);
unicode = 400;
userData = {
interface.gridadjust.original = "{'width': 1671, 'leftMargin': 114, 'rightMargin': 108}";
"interface.width-adjustments" = (
-16
);
};
},
{
glyphname = Schwa;
lastChange = "2021-09-25 14:20:58 +0000";
layers = (
{
layerId = "B1F27B51-9973-4381-9301-4FE46FE1CA59";
shapes = (
{
closed = 1;
nodes = (
(1400,-28,o),
(1702,353,o),
(1702,954,cs),
(1702,1024,l),
(1702,1682,o),
(1394,2076,o),
(880,2076,cs),
(690,2076,o),
(524,2030,o),
(348,1930,c),
(374,1872,l),
(556,1971,o),
(705,2012,o),
(880,2012,cs),
(1358,2012,o),
(1638,1647,o),
(1638,1024,cs),
(1638,956,ls),
(1638,388,o),
(1365,36,o),
(924,36,cs),
(496,36,o),
(212,391,o),
(212,926,cs),
(212,932,l),
(1664,932,l),
(1666,996,l),
(146,996,l),
(146,964,ls),
(146,358,o),
(449,-28,o),
(924,-28,cs)
);
}
);
width = 1848;
},
{
background = {
shapes = (
{
closed = 1;
nodes = (
(1476,-28,o),
(1848,368,o),
(1848,940,cs),
(1848,1056,ls),
(1848,1628,o),
(1524,2032,o),
(936,2032,cs),
(620,2032,o),
(436,1936,o),
(380,1900,c),
(448,1692,l),
(548,1736,o),
(700,1796,o),
(936,1796,cs),
(1380,1796,o),
(1560,1468,o),
(1560,1056,cs),
(1560,940,ls),
(1560,532,o),
(1364,204,o),
(1016,204,cs),
(608,204,o),
(472,468,o),
(472,804,cs),
(472,848,l),
(1672,848,l),
(1672,1064,l),
(188,1064,l),
(188,892,ls),
(188,328,o),
(468,-28,o),
(1016,-28,cs)
);
}
);
};
layerId = "C698F293-3EC0-4A5A-A3A0-0FDB1F5CF265";
shapes = (
{
closed = 1;
nodes = (
(1492,-28,o),
(1826,386,o),
(1826,940,cs),
(1826,1100,ls),
(1826,1701,o),
(1471,2076,o),
(914,2076,cs),
(704,2076,o),
(479,2021,o),
(358,1944,c),
(426,1736,l),
(587,1807,o),
(751,1840,o),
(898,1840,cs),
(1318,1840,o),
(1538,1569,o),
(1538,1100,cs),
(1538,940,ls),
(1538,501,o),
(1331,204,o),
(960,204,cs),
(650,204,o),
(450,411,o),
(450,804,cs),
(450,848,l),
(1650,848,l),
(1650,1064,l),
(166,1064,l),
(166,892,ls),
(166,306,o),
(488,-28,o),
(964,-28,cs)
);
}
);
width = 1988;
},
{
background = {
shapes = (
{
closed = 1;
nodes = (
(1649,-28,o),
(2045,336,o),
(2044,856,cs),
(2044,1140,ls),
(2045,1660,o),
(1693,2032,o),
(1016,2032,cs),
(721,2032,o),
(373,1968,o),
(312,1944,c),
(384,1484,l),
(501,1512,o),
(713,1548,o),
(980,1548,cs),
(1393,1548,o),
(1509,1360,o),
(1508,1140,cs),
(1508,856,ls),
(1509,632,o),
(1385,452,o),
(1124,452,cs),
(841,452,o),
(725,568,o),
(724,720,cs),
(724,760,l),
(1628,760,l),
(1628,1204,l),
(188,1204,l),
(188,932,ls),
(189,344,o),
(517,-28,o),
(1124,-28,cs)
);
}
);
};
layerId = "5C20EF92-B63D-42A8-8878-93C2863E0093";
shapes = (
{
closed = 1;
nodes = (
(1665,-28,o),
(2044,336,o),
(2044,856,cs),
(2044,1184,ls),
(2044,1704,o),
(1693,2076,o),
(1016,2076,cs),
(721,2076,o),
(373,2012,o),
(312,1988,c),
(384,1528,l),
(501,1556,o),
(741,1592,o),
(948,1592,cs),
(1421,1592,o),
(1508,1404,o),
(1508,1184,cs),
(1508,856,ls),
(1508,632,o),
(1397,452,o),
(1098,452,cs),
(853,452,o),
(725,568,o),
(724,720,cs),
(724,760,l),
(1628,760,l),
(1628,1204,l),
(188,1204,l),
(188,932,ls),
(189,344,o),
(533,-28,o),
(1100,-28,cs)
);
}
);
width = 2232;
}
);
unicode = 399;
userData = {
interface.gridadjust.original = "{'width': 1940, 'leftMargin': 120, 'rightMargin': 159}";
"interface.width-adjustments" = (
-16
);
};
},
{
glyphname = Ezh;
kernRight = B;
lastChange = "2021-09-25 14:20:58 +0000";
layers = (
{
anchors = (
{
name = top;
pos = (944,2304);
}
);
background = {
shapes = (
{
closed = 1;
nodes = (
(172,-292,o),
(519,-584,o),
(952,-584,cs),
(1451,-584,o),
(1736,-192,o),
(1736,212,cs),
(1736,676,o),
(1360,1032,o),
(808,1056,c),
(808,1064,l),
(1668,1996,l),
(1668,2048,l),
(280,2048,l),
(280,1984,l),
(1604,1984,l),
(1604,2021,l),
(712,1056,l),
(712,992,l),
(805,992,ls),
(1315,970,o),
(1672,648,o),
(1672,212,cs),
(1672,-209,o),
(1367,-520,o),
(952,-520,cs),
(547,-520,o),
(236,-250,o),
(236,100,c),
(172,100,l)
);
}
);
};
layerId = "B1F27B51-9973-4381-9301-4FE46FE1CA59";
shapes = (
{
closed = 1;
nodes = (
(140,-316,o),
(487,-608,o),
(920,-608,cs),
(1419,-608,o),
(1704,-216,o),
(1704,198,cs),
(1704,676,o),
(1328,1032,o),
(776,1056,c),
(776,1064,l),
(1636,1996,l),
(1636,2048,l),
(248,2048,l),
(248,1984,l),
(1572,1984,l),
(1572,2022,l),
(680,1056,l),
(680,992,l),
(774,992,ls),
(1283,970,o),
(1640,648,o),
(1640,198,cs),
(1640,-233,o),
(1335,-544,o),
(920,-544,cs),
(515,-544,o),
(204,-274,o),
(204,100,c),
(140,100,l)
);
}
);
width = 1888;
},
{
anchors = (
{
name = top;
pos = (932,2304);
}
);
associatedMasterId = "C698F293-3EC0-4A5A-A3A0-0FDB1F5CF265";
guides = (
{
pos = (968,-356);
}
);
layerId = "D009BD30-45A0-479A-BCCE-7610B0B5C5D4";
name = "Dec 31 18, 16:46";
shapes = (
{
closed = 1;
nodes = (
(1340,-576,o),
(1700,-220,o),
(1700,220,cs),
(1700,638,o),
(1373,980,o),
(864,1000,c),
(864,1016,l),
(1608,1868,l),
(1608,2048,l),
(164,2048,l),
(164,1828,l),
(1268,1828,l),
(1268,1812,l),
(548,988,l),
(548,776,l),
(784,776,ls),
(1216,776,o),
(1472,540,o),
(1472,220,cs),
(1472,-100,o),
(1216,-348,o),
(884,-348,cs),
(584,-348,o),
(400,-144,o),
(380,96,c),
(136,96,l),
(140,-284,o),
(464,-576,o),
(884,-576,cs)
);
}
);
width = 1860;
},
{
associatedMasterId = "C698F293-3EC0-4A5A-A3A0-0FDB1F5CF265";
layerId = "9E2C8951-9EEE-4515-A9C2-D17B826F81BB";
name = "Oct 9 18, 17:17";
shapes = (
{
closed = 1;
nodes = (
(156,-280,o),
(384,-572,o),
(872,-572,cs),
(1344,-572,o),
(1664,-340,o),
(1664,220,cs),
(1664,784,o),
(1348,1016,o),
(848,1016,cs),
(568,1016,l),
(568,796,l),
(848,796,ls),
(1204,796,o),
(1380,644,o),
(1380,220,cs),
(1380,-164,o),
(1232,-344,o),
(872,-344,cs),
(536,-344,o),
(448,-184,o),
(400,92,c),
(112,92,l)
);
},
{
closed = 1;
nodes = (
(1560,2004,l),
(1432,2004,l),
(540,1004,l),
(540,796,l),
(664,796,l),
(1560,1800,l)
);
},
{
closed = 1;
nodes = (
(164,2004,l),
(164,1772,l),
(1440,1772,l),
(1440,2004,l)
);
}
);
width = 1776;
},
{
anchors = (
{
name = top;
pos = (938,2304);
}
);
background = {
shapes = (
{
closed = 1;
nodes = (
(159,-293,o),
(505,-576,o),
(944,-576,cs),
(1433,-576,o),
(1760,-218,o),
(1760,268,cs),
(1760,750,o),
(1439,1092,o),
(984,1112,c),
(984,1132,l),
(1708,1868,l),
(1708,2048,l),
(252,2048,l),
(252,1824,l),
(1364,1824,l),
(1364,1808,l),
(680,1124,l),
(680,916,l),
(832,916,ls),
(1233,916,o),
(1516,657,o),
(1516,268,cs),
(1516,-86,o),
(1296,-352,o),
(948,-352,cs),
(654,-352,o),
(407,-161,o),
(388,108,c),
(136,108,l)
);
}
);
};
guides = (
{
pos = (1012,-356);
}
);
layerId = "C698F293-3EC0-4A5A-A3A0-0FDB1F5CF265";
shapes = (
{
closed = 1;
nodes = (
(137,-323,o),
(483,-606,o),
(922,-606,cs),
(1411,-606,o),
(1738,-248,o),
(1738,248,cs),
(1738,730,o),
(1417,1072,o),
(962,1092,c),
(962,1112,l),
(1686,1868,l),
(1686,2048,l),
(230,2048,l),
(230,1824,l),
(1342,1824,l),
(1342,1808,l),
(658,1104,l),
(658,896,l),
(810,896,ls),
(1211,896,o),
(1494,643,o),
(1494,244,cs),
(1494,-110,o),
(1274,-382,o),
(926,-382,cs),
(632,-382,o),
(385,-191,o),
(366,88,c),
(114,88,l)
);
}
);
width = 1876;
},
{
anchors = (
{
name = top;
pos = (972,2304);
}
);
background = {
shapes = (
{
closed = 1;
nodes = (
(84,-228,o),
(478,-544,o),
(968,-544,cs),
(1530,-544,o),
(1876,-125,o),
(1876,344,cs),
(1876,675,o),
(1704,1072,o),
(1196,1128,c),
(1196,1148,l),
(1824,1648,l),
(1824,2048,l),
(188,2048,l),
(188,1592,l),
(1156,1592,l),
(1156,1576,l),
(660,1184,l),
(660,800,l),
(928,800,ls),
(1152,800,o),
(1292,609,o),
(1292,380,cs),
(1292,181,o),
(1197,-84,o),
(972,-84,cs),
(821,-84,o),
(644,36,o),
(636,228,c),
(76,228,l)
);
}
);
};
layerId = "5C20EF92-B63D-42A8-8878-93C2863E0093";
shapes = (
{
closed = 1;
nodes = (
(84,-274,o),
(458,-608,o),
(968,-608,cs),
(1494,-608,o),
(1876,-225,o),
(1876,304,cs),
(1876,734,o),
(1609,1043,o),
(1196,1088,c),
(1196,1108,l),
(1824,1648,l),
(1824,2048,l),
(188,2048,l),
(188,1592,l),
(1156,1592,l),
(1156,1576,l),
(660,1144,l),
(660,760,l),
(928,760,ls),
(1139,760,o),
(1292,584,o),
(1292,294,cs),
(1292,36,o),
(1173,-148,o),
(960,-148,cs),
(778,-148,o),
(644,-13,o),
(636,188,c),
(76,188,l)
);
}
);
width = 1940;
},
{
associatedMasterId = "5C20EF92-B63D-42A8-8878-93C2863E0093";
layerId = "AE9CF621-502D-400E-91F7-8C8A1C2204F7";
name = "Oct 9 18, 18:32";
shapes = (
{
closed = 1;
nodes = (
(291,-324,o),
(643,-612,o),
(1160,-612,cs),
(1719,-612,o),
(2059,-244,o),
(2060,316,cs),
(2059,872,o),
(1699,1240,o),
(1168,1240,cs),
(872,1240,l),
(872,828,l),
(1168,828,ls),
(1371,828,o),
(1523,736,o),
(1524,316,cs),
(1523,-24,o),
(1415,-180,o),
(1160,-180,cs),
(951,-180,o),
(815,-112,o),
(808,108,c),
(272,108,l)
);
},
{
closed = 1;
nodes = (
(1896,2004,l),
(1568,2004,l),
(740,1092,l),
(740,828,l),
(1088,828,l),
(1896,1744,l)
);
},
{
closed = 1;
nodes = (
(252,2004,l),
(252,1572,l),
(1732,1572,l),
(1732,2004,l)
);
}
);
width = 2328;
}
);
metricLeft = T;
metricRight = B;
unicode = 439;
userData = {
interface.gridadjust.original = "{'width': 1821, 'leftMargin': 110, 'rightMargin': 160}";
"interface.width-adjustments" = (
-16
);
};
},
{
glyphname = Ezhreversed;
lastChange = "2021-09-25 14:20:58 +0000";
layers = (
{
anchors = (
{
name = top;
pos = (944,2304);
}
);
layerId = "B1F27B51-9973-4381-9301-4FE46FE1CA59";
shapes = (
{
closed = 1;
nodes = (
(1684,100,l),
(1684,-274,o),
(1373,-544,o),
(968,-544,cs),
(553,-544,o),
(248,-233,o),
(248,198,cs),
(248,648,o),
(605,970,o),
(1116,992,cs),
(1208,992,l),
(1208,1056,l),
(316,2022,l),
(316,1984,l),
(1640,1984,l),
(1640,2048,l),
(252,2048,l),
(252,1996,l),
(1112,1064,l),
(1112,1056,l),
(560,1032,o),
(184,676,o),
(184,198,cs),
(184,-216,o),
(469,-608,o),
(968,-608,cs),
(1401,-608,o),
(1748,-316,o),
(1748,100,c)
);
}
);
width = 1888;
},
{
anchors = (
{
name = top;
pos = (938,2304);
}
);
layerId = "C698F293-3EC0-4A5A-A3A0-0FDB1F5CF265";
shapes = (
{
closed = 1;
nodes = (
(1510,88,l),
(1491,-191,o),
(1244,-382,o),
(950,-382,cs),
(602,-382,o),
(382,-110,o),
(382,244,cs),
(382,643,o),
(665,896,o),
(1066,896,cs),
(1218,896,l),
(1218,1104,l),
(534,1808,l),
(534,1824,l),
(1646,1824,l),
(1646,2048,l),
(190,2048,l),
(190,1868,l),
(914,1112,l),
(914,1092,l),
(459,1072,o),
(138,730,o),
(138,248,cs),
(138,-248,o),
(465,-606,o),
(954,-606,cs),
(1393,-606,o),
(1739,-323,o),
(1762,88,c)
);
}
);
width = 1876;
},
{
anchors = (
{
name = top;
pos = (968,2304);
}
);
layerId = "5C20EF92-B63D-42A8-8878-93C2863E0093";
shapes = (
{
closed = 1;
nodes = (
(1304,188,l),
(1296,-13,o),
(1162,-148,o),
(980,-148,cs),
(767,-148,o),
(648,36,o),
(648,294,cs),
(648,584,o),
(801,760,o),
(1012,760,cs),
(1280,760,l),
(1280,1144,l),
(784,1576,l),
(784,1592,l),
(1752,1592,l),
(1752,2048,l),
(116,2048,l),
(116,1648,l),
(744,1108,l),
(744,1088,l),
(331,1043,o),
(64,734,o),
(64,304,cs),
(64,-225,o),
(446,-608,o),
(972,-608,cs),
(1482,-608,o),
(1856,-274,o),
(1864,188,c)
);
}
);
width = 1940;
}
);
metricLeft = "=|Ezh";
metricRight = "=|Ezh";
note = "mirror of Ezh";
unicode = 440;
userData = {
interface.gridadjust.original = "{'width': 1821, 'leftMargin': 160, 'rightMargin': 110}";
"interface.width-adjustments" = (
-16
);
};
},
{
color = (219,235,247,1);
glyphname = F;
kernLeft = B;
kernRight = F;
lastChange = "2021-09-25 14:20:58 +0000";
layers = (
{
anchors = (
{
name = bottom;
pos = (668,16);
},
{
name = cross;
pos = (320,564);
},
{
name = top;
pos = (840,2304);
}
);
guides = (
{
angle = 90;
pos = (736,2804);
}
);
layerId = "B1F27B51-9973-4381-9301-4FE46FE1CA59";
shapes = (
{
closed = 1;
nodes = (
(352,0,l),
(352,992,l),
(1292,992,l),
(1292,1056,l),
(352,1056,l),
(352,1984,l),
(1388,1984,l),
(1388,2048,l),
(288,2048,l),
(288,0,l)
);
}
);
width = 1584;
},
{
anchors = (
{
name = bottom;
pos = (746,16);
},
{
name = cross;
pos = (350,480);
},
{
name = top;
pos = (866,2304);
}
);
background = {
shapes = (
{
ref = E;
}
);
};
layerId = "C698F293-3EC0-4A5A-A3A0-0FDB1F5CF265";
shapes = (
{
closed = 1;
nodes = (
(474,0,l),
(474,916,l),
(1362,916,l),
(1362,1136,l),
(474,1136,l),
(474,1828,l),
(1454,1828,l),
(1454,2048,l),
(226,2048,l),
(226,0,l)
);
}
);
width = 1608;
},
{
anchors = (
{
name = bottom;
pos = (884,16);
},
{
name = cross;
pos = (408,344);
},
{
name = top;
pos = (856,2304);
}
);
background = {
shapes = (
{
ref = E;
}
);
};
guides = (
{
pos = (-136,1320);
}
);
layerId = "5C20EF92-B63D-42A8-8878-93C2863E0093";
shapes = (
{
closed = 1;
nodes = (
(688,0,l),
(688,800,l),
(1484,800,l),
(1484,1248,l),
(688,1248,l),
(688,1600,l),
(1572,1600,l),
(1572,2048,l),
(132,2048,l),
(132,0,l)
);
}
);
width = 1644;
}
);
metricLeft = H;
unicode = 70;
userData = {
"interface.width-adjustments" = (
-16
);
};
},
{
glyphname = Fhook;
kernLeft = jdotless;
kernRight = F;
lastChange = "2021-09-25 14:20:58 +0000";
layers = (
{
layerId = "B1F27B51-9973-4381-9301-4FE46FE1CA59";
shapes = (
{
closed = 1;
nodes = (
(224,-232,ls),
(224,-418,o),
(154,-508,o),
(10,-508,cs),
(-20,-508,o),
(-44,-505,o),
(-62,-500,c),
(-62,-564,l),
(-43,-569,o),
(-14,-572,o),
(16,-572,cs),
(192,-572,o),
(288,-452,o),
(288,-232,cs),
(288,0,l),
(224,0,l)
);
},
{
alignment = -1;
pos = (-64,0);
ref = F;
}
);
width = 1520;
},
{
associatedMasterId = "B1F27B51-9973-4381-9301-4FE46FE1CA59";
layerId = "B08EE6A4-275D-4A05-9DD6-ADCA275F0D13";
name = "Dec 29 18, 23:39";
shapes = (
{
closed = 0;
nodes = (
(-36,-524,l),
(-16,-536,o),
(-2,-540,o),
(32,-540,cs),
(204,-540,o),
(288,-436,o),
(288,-232,cs),
(288,0,l)
);
},
{
alignment = -1;
pos = (-64,0);
ref = F;
}
);
width = 1594;
},
{
layerId = "C698F293-3EC0-4A5A-A3A0-0FDB1F5CF265";
shapes = (
{
closed = 1;
nodes = (
(226,-160,ls),
(226,-320,o),
(134,-368,o),
(6,-368,cs),
(-22,-368,o),
(-50,-364,o),
(-70,-360,c),
(-70,-564,l),
(-10,-576,o),
(-10,-576,o),
(6,-576,cs),
(314,-576,o),
(474,-428,o),
(474,-164,cs),
(474,0,l),
(226,0,l)
);
},
{
ref = F;
}
);
width = 1608;
},
{
layerId = "5C20EF92-B63D-42A8-8878-93C2863E0093";
shapes = (
{
closed = 1;
nodes = (
(236,-48,ls),
(236,-140,o),
(130,-160,o),
(28,-160,c),
(6,-160,o),
(-34,-164,o),
(-64,-160,c),
(-64,-568,l),
(-6,-576,o),
(122,-576,o),
(176,-576,c),
(466,-576,o),
(792,-532,o),
(792,-48,cs),
(792,0,l),
(236,0,l)
);
},
{
pos = (104,0);
ref = F;
}
);
width = 1748;
}
);
metricRight = F;
unicode = 401;
userData = {
interface.gridadjust.original = "{'width': 1645, 'leftMargin': 0, 'rightMargin': 31}";
"interface.width-adjustments" = (
-16
);
};
},
{
color = (219,235,247,1);
glyphname = G;
kernLeft = C;
kernRight = G;
lastChange = "2021-09-25 14:20:58 +0000";
layers = (
{
anchors = (
{
name = bottom;
pos = (1008,0);
},
{
name = top;
pos = (1008,2304);
}
);
guides = (
{
pos = (1736,1992);
}
);
layerId = "B1F27B51-9973-4381-9301-4FE46FE1CA59";
shapes = (
{
closed = 1;
nodes = (
(1804,1408,l),
(1756,1700,o),
(1499,2076,o),
(1020,2076,cs),
(512,2076,o),
(172,1654,o),
(172,1024,cs),
(172,397,o),
(508,-28,o),
(1028,-28,cs),
(1488,-28,o),
(1820,304,o),
(1820,864,cs),
(1820,928,l),
(1048,928,l),
(1048,864,l),
(1784,864,l),
(1756,888,l),
(1764,352,o),
(1456,36,o),
(1028,36,cs),
(544,36,o),
(236,439,o),
(236,1024,cs),
(236,1616,o),
(550,2012,o),
(1020,2012,cs),
(1441,2012,o),
(1691,1687,o),
(1740,1408,c)
);
}
);
width = 2016;
},
{
anchors = (
{
name = bottom;
pos = (1038,0);
},
{
name = top;
pos = (1042,2304);
}
);
background = {
shapes = (
{
ref = C;
}
);
};
guides = (
{
pos = (1836,1408);
},
{
angle = 90;
pos = (1848,1304);
},
{
angle = 90;
pos = (1012,1644);
}
);
layerId = "C698F293-3EC0-4A5A-A3A0-0FDB1F5CF265";
shapes = (
{
closed = 1;
nodes = (
(1882,1408,l),
(1806,1804,o),
(1474,2076,o),
(1042,2076,cs),
(517,2076,o),
(146,1672,o),
(146,1024,cs),
(146,376,o),
(514,-28,o),
(1058,-28,cs),
(1546,-28,o),
(1894,297,o),
(1894,804,cs),
(1894,1024,l),
(1114,1024,l),
(1114,804,l),
(1730,804,l),
(1654,820,l),
(1654,443,o),
(1410,204,o),
(1058,204,cs),
(678,204,o),
(386,492,o),
(386,1024,cs),
(386,1556,o),
(678,1844,o),
(1042,1844,cs),
(1338,1844,o),
(1539,1677,o),
(1626,1408,c)
);
}
);
width = 2048;
},
{
anchors = (
{
name = bottom;
pos = (1104,8);
},
{
name = top;
pos = (1108,2304);
}
);
background = {
shapes = (
{
ref = C;
}
);
};
guides = (
{
angle = 7.9575;
pos = (888,1320);
},
{
orientation = center;
angle = 90;
pos = (888,528);
},
{
pos = (1224,756);
}
);
layerId = "5C20EF92-B63D-42A8-8878-93C2863E0093";
shapes = (
{
closed = 1;
nodes = (
(2024,1372,l),
(1981,1783,o),
(1608,2076,o),
(1124,2076,cs),
(572,2076,o),
(124,1696,o),
(124,1020,cs),
(124,372,o),
(530,-28,o),
(1128,-28,cs),
(1664,-28,o),
(2048,300,o),
(2048,860,cs),
(2048,1144,l),
(1140,1144,l),
(1140,748,l),
(1608,748,l),
(1512,758,l),
(1512,574,o),
(1386,456,o),
(1132,456,cs),
(844,456,o),
(696,668,o),
(696,1028,cs),
(696,1383,o),
(856,1592,o),
(1136,1592,cs),
(1310,1592,o),
(1428,1512,o),
(1462,1372,c)
);
}
);
width = 2176;
}
);
metricLeft = O;
unicode = 71;
userData = {
com.typemytype.robofont.guideline.magnetic.DBpTQJmUAf = 5;
com.typemytype.robofont.guideline.magnetic.Mdeh49HlEG = 5;
com.typemytype.robofont.guideline.magnetic.iFgX6ho5qJ = 5;
"interface.width-adjustments" = (
-16
);
};
},
{
glyphname = Gbar;
kernLeft = C;
kernRight = G;
lastChange = "2021-09-25 14:20:58 +0000";
layers = (
{
layerId = "B1F27B51-9973-4381-9301-4FE46FE1CA59";
shapes = (
{
closed = 1;
nodes = (
(1048,560,l),
(1048,496,l),
(1968,496,l),
(1968,560,l)
);
},
{
ref = G;
}
);
width = 2016;
},
{
guides = (
{
angle = 90;
pos = (1124,744);
},
{
angle = 90;
pos = (1028,148);
}
);
layerId = "C698F293-3EC0-4A5A-A3A0-0FDB1F5CF265";
shapes = (
{
closed = 1;
nodes = (
(1114,624,l),
(1114,424,l),
(2034,424,l),
(2034,624,l)
);
},
{
ref = G;
}
);
width = 2048;
},
{
layerId = "5C20EF92-B63D-42A8-8878-93C2863E0093";
shapes = (
{
closed = 1;
nodes = (
(1140,688,l),
(1140,564,l),
(2112,564,l),
(2112,688,l)
);
},
{
ref = G;
}
);
width = 2176;
}
);
metricLeft = G;
unicode = 484;
userData = {
com.typemytype.robofont.guideline.magnetic.L529Uh5F2Z = 5;
com.typemytype.robofont.guideline.magnetic.aP8dy3XBkq = 5;
interface.gridadjust.original = "{'width': 1917, 'leftMargin': 256, 'rightMargin': 7}";
"interface.width-adjustments" = (
-16
);
};
},
{
glyphname = Ghook;
kernLeft = C;
kernRight = G;
lastChange = "2021-09-25 14:20:58 +0000";
layers = (
{
layerId = "B1F27B51-9973-4381-9301-4FE46FE1CA59";
shapes = (
{
closed = 1;
nodes = (
(1804,1640,ls),
(1804,1809,o),
(1853,1872,o),
(1994,1872,cs),
(2020,1872,o),
(2057,1870,o),
(2092,1866,c),
(2092,1930,l),
(2058,1934,o),
(2021,1936,o),
(1994,1936,cs),
(1818,1936,o),
(1740,1847,o),
(1740,1640,cs),
(1740,1408,l),
(1804,1408,l,{
name = hr00;
})
);
},
{
alignment = -1;
ref = G;
}
);
width = 1940;
},
{
layerId = "C698F293-3EC0-4A5A-A3A0-0FDB1F5CF265";
shapes = (
{
closed = 1;
nodes = (
(1878,1624,ls),
(1878,1784,o),
(1974,1832,o),
(2102,1832,cs),
(2130,1832,o),
(2158,1828,o),
(2178,1824,c),
(2178,2024,l),
(2142,2036,o),
(2090,2036,o),
(2042,2036,cs),
(1786,2036,o),
(1654,1888,o),
(1638,1624,cs),
(1626,1408,l),
(1878,1408,l)
);
},
{
ref = G;
}
);
width = 2132;
},
{
guides = (
{
angle = 90;
pos = (1724,996);
}
);
layerId = "5C20EF92-B63D-42A8-8878-93C2863E0093";
shapes = (
{
closed = 1;
nodes = (
(2024,1748,ls),
(2024,1920,o),
(2168,1944,o),
(2316,1944,cs),
(2364,1944,o),
(2412,1936,o),
(2464,1932,c),
(2464,2364,l),
(2372,2384,o),
(2300,2396,o),
(2220,2396,cs),
(1832,2396,o),
(1448,2168,o),
(1452,1748,cs),
(1456,1372,l),
(2024,1372,l)
);
},
{
ref = G;
}
);
width = 2464;
}
);
metricLeft = G;
unicode = 403;
userData = {
interface.gridadjust.original = "{'width': 1998, 'leftMargin': 256, 'rightMargin': -45}";
};
},
{
glyphname = uni021C;
lastChange = "2021-09-25 14:20:58 +0000";
layers = (
{
background = {
shapes = (
{
closed = 1;
nodes = (
(965,678,o),
(1449,1095,o),
(1450,1520,cs),
(1451,1825,o),
(1210,2034,o),
(832,2034,cs),
(462,2034,o),
(181,1801,o),
(180,1492,c),
(244,1492,l),
(242,1762,o),
(500,1970,o),
(832,1970,cs),
(1171,1970,o),
(1383,1793,o),
(1386,1524,cs),
(1391,1135,o),
(938,748,o),
(280,556,c),
(280,492,l)
);
},
{
closed = 1;
nodes = (
(1318,879,o),
(1420,689,o),
(1420,440,cs),
(1420,-23,o),
(1144,-259,o),
(280,-534,c),
(280,-600,l),
(1188,-316,o),
(1486,-58,o),
(1484,444,cs),
(1483,709,o),
(1379,904,o),
(1176,1018,c),
(1136,968,l)
);
},
{
closed = 1;
nodes = (
(965,678,o),
(1449,1095,o),
(1450,1520,cs),
(1451,1825,o),
(1202,2034,o),
(840,2034,cs),
(454,2034,o),
(181,1801,o),
(180,1492,c),
(244,1492,l),
(242,1762,o),
(492,1970,o),
(840,1970,cs),
(1163,1970,o),
(1383,1793,o),
(1386,1524,cs),
(1391,1135,o),
(938,748,o),
(280,556,c),
(280,492,l)
);
},
{
closed = 1;
nodes = (
(1318,879,o),
(1420,697,o),
(1420,428,cs),
(1420,-15,o),
(1144,-259,o),
(280,-534,c),
(280,-600,l),
(1188,-316,o),
(1486,-50,o),
(1484,432,cs),
(1483,717,o),
(1379,904,o),
(1176,1018,c),
(1136,968,l)
);
}
);
};
layerId = "B1F27B51-9973-4381-9301-4FE46FE1CA59";
shapes = (
{
closed = 1;
nodes = (
(933,698,o),
(1417,1107,o),
(1418,1546,cs),
(1419,1859,o),
(1170,2076,o),
(808,2076,cs),
(422,2076,o),
(149,1843,o),
(148,1534,c),
(212,1534,l),
(210,1804,o),
(460,2012,o),
(808,2012,cs),
(1131,2012,o),
(1351,1827,o),
(1354,1550,cs),
(1358,1147,o),
(906,768,o),
(248,576,c),
(248,512,l)
);
},
{
closed = 1;
nodes = (
(1286,899,o),
(1388,711,o),
(1388,434,cs),
(1388,-21,o),
(1112,-259,o),
(248,-534,c),
(248,-600,l),
(1156,-316,o),
(1454,-56,o),
(1452,438,cs),
(1451,731,o),
(1347,924,o),
(1144,1038,c),
(1104,988,l)
);
}
);
width = 1600;
},
{
background = {
shapes = (
{
closed = 1;
nodes = (
(1024,620,o),
(1568,980,o),
(1568,1460,cs),
(1568,1832,o),
(1292,2032,o),
(856,2032,cs),
(488,2032,o),
(180,1816,o),
(180,1476,c),
(464,1476,l),
(464,1668,o),
(644,1800,o),
(856,1800,cs),
(1156,1800,o),
(1284,1644,o),
(1284,1464,cs),
(1284,1040,o),
(932,840,o),
(304,652,c),
(304,444,l)
);
},
{
closed = 1;
nodes = (
(1252,812,o),
(1312,692,o),
(1312,452,cs),
(1312,-36,o),
(940,-244,o),
(304,-372,c),
(304,-600,l),
(1052,-448,o),
(1600,-204,o),
(1600,448,cs),
(1600,760,o),
(1468,944,o),
(1240,1028,c),
(1100,872,l)
);
}
);
};
layerId = "C698F293-3EC0-4A5A-A3A0-0FDB1F5CF265";
shapes = (
{
closed = 1;
nodes = (
(1002,620,o),
(1546,990,o),
(1546,1490,cs),
(1546,1866,o),
(1256,2076,o),
(860,2076,cs),
(452,2076,o),
(158,1860,o),
(158,1520,c),
(442,1520,l),
(442,1712,o),
(606,1844,o),
(860,1844,cs),
(1118,1844,o),
(1262,1706,o),
(1262,1464,cs),
(1262,1078,o),
(910,860,o),
(282,672,c),
(282,464,l)
);
},
{
closed = 1;
nodes = (
(1230,832,o),
(1290,700,o),
(1290,468,cs),
(1290,-48,o),
(918,-244,o),
(282,-372,c),
(282,-600,l),
(1030,-448,o),
(1578,-204,o),
(1578,448,cs),
(1578,780,o),
(1446,964,o),
(1218,1048,c),
(1078,892,l)
);
}
);
width = 1732;
},
{
background = {
shapes = (
{
closed = 1;
nodes = (
(1280,632,o),
(1760,872,o),
(1760,1460,cs),
(1760,1832,o),
(1436,2028,o),
(956,2028,cs),
(552,2028,o),
(172,1828,o),
(172,1448,c),
(708,1448,l),
(708,1560,o),
(828,1600,o),
(956,1600,cs),
(1156,1600,o),
(1228,1516,o),
(1228,1364,cs),
(1228,1124,o),
(1092,1024,o),
(340,804,c),
(340,400,l)
);
},
{
closed = 1;
nodes = (
(1156,696,o),
(1252,688,o),
(1252,504,cs),
(1252,204,o),
(948,-64,o),
(340,-176,c),
(340,-600,l),
(1176,-516,o),
(1788,-100,o),
(1788,492,cs),
(1788,820,o),
(1488,1024,o),
(1044,988,c),
(992,672,l)
);
}
);
};
layerId = "5C20EF92-B63D-42A8-8878-93C2863E0093";
shapes = (
{
closed = 1;
nodes = (
(1398,681,o),
(1760,971,o),
(1760,1460,cs),
(1760,1884,o),
(1459,2076,o),
(956,2076,cs),
(497,2076,o),
(172,1835,o),
(172,1496,c),
(708,1496,l),
(708,1591,o),
(801,1648,o),
(956,1648,cs),
(1144,1648,o),
(1228,1575,o),
(1228,1384,cs),
(1228,1137,o),
(1071,1038,o),
(340,824,c),
(340,420,l)
);
},
{
closed = 1;
nodes = (
(1190,721,o),
(1252,681,o),
(1252,504,cs),
(1252,183,o),
(911,-71,o),
(340,-176,c),
(340,-600,l),
(1211,-513,o),
(1788,-77,o),
(1788,492,cs),
(1788,842,o),
(1485,1044,o),
(1044,1008,c),
(992,692,l)
);
}
);
width = 1960;
}
);
unicode = 540;
userData = {
interface.gridadjust.original = "{'width': 1690, 'leftMargin': 124, 'rightMargin': 146}";
"interface.width-adjustments" = (
-16
);
};
},
{
color = (219,235,247,1);
glyphname = H;
kernLeft = B;
kernRight = H;
lastChange = "2021-09-25 14:20:58 +0000";
layers = (
{
anchors = (
{
name = bottom;
pos = (1004,0);
},
{
name = cedilla;
pos = (320,-8);
},
{
name = cyrtic;
pos = (1748,8);
},
{
name = right;
pos = (1720,0);
},
{
name = tonos;
pos = (240,2048);
},
{
name = top;
pos = (1004,2304);
}
);
layerId = "B1F27B51-9973-4381-9301-4FE46FE1CA59";
shapes = (
{
closed = 1;
nodes = (
(352,0,l),
(352,992,l),
(1656,992,l),
(1656,0,l),
(1720,0,l),
(1720,2048,l),
(1656,2048,l),
(1656,1056,l),
(352,1056,l),
(352,2048,l),
(288,2048,l),
(288,0,l)
);
}
);
width = 2008;
},
{
anchors = (
{
name = bottom;
pos = (1018,0);
},
{
name = cedilla;
pos = (382,-4);
},
{
name = cyrtic;
pos = (1906,88);
},
{
name = right;
pos = (1814,0);
},
{
name = tonos;
pos = (178,2048);
},
{
name = top;
pos = (1030,2308);
}
);
guides = (
{
orientation = center;
angle = 90;
pos = (996,56);
}
);
layerId = "C698F293-3EC0-4A5A-A3A0-0FDB1F5CF265";
shapes = (
{
closed = 1;
nodes = (
(474,0,l),
(474,916,l),
(1566,916,l),
(1566,0,l),
(1814,0,l),
(1814,2048,l),
(1566,2048,l),
(1566,1136,l),
(474,1136,l),
(474,2048,l),
(226,2048,l),
(226,0,l)
);
}
);
width = 2040;
},
{
anchors = (
{
name = bottom;
pos = (1056,0);
},
{
name = cedilla;
pos = (396,0);
},
{
name = cyrtic;
pos = (2244,224);
},
{
name = right;
pos = (1980,0);
},
{
name = tonos;
pos = (84,2048);
},
{
name = top;
pos = (1056,2304);
}
);
guides = (
{
pos = (-136,1652);
},
{
orientation = center;
angle = 90;
pos = (836,1344);
}
);
layerId = "5C20EF92-B63D-42A8-8878-93C2863E0093";
shapes = (
{
closed = 1;
nodes = (
(688,0,l),
(688,800,l),
(1424,800,l),
(1424,0,l),
(1980,0,l),
(1980,2048,l),
(1424,2048,l),
(1424,1248,l),
(688,1248,l),
(688,2048,l),
(132,2048,l),
(132,0,l)
);
}
);
width = 2112;
}
);
unicode = 72;
userData = {
"interface.width-adjustments" = (
-16
);
};
},
{
glyphname = Hbar;
kernLeft = B;
kernRight = H;
lastChange = "2021-09-25 14:20:58 +0000";
layers = (
{
layerId = "B1F27B51-9973-4381-9301-4FE46FE1CA59";
shapes = (
{
closed = 1;
nodes = (
(140,1484,l),
(140,1420,l),
(1892,1420,l),
(1892,1484,l)
);
},
{
alignment = -1;
pos = (16,0);
ref = H;
}
);
width = 2032;
},
{
guides = (
{
orientation = center;
angle = 90;
pos = (928,2068);
}
);
layerId = "C698F293-3EC0-4A5A-A3A0-0FDB1F5CF265";
shapes = (
{
closed = 1;
nodes = (
(114,1616,l),
(114,1408,l),
(2030,1408,l),
(2030,1616,l)
);
},
{
pos = (52,0);
ref = H;
}
);
width = 2144;
},
{
layerId = "5C20EF92-B63D-42A8-8878-93C2863E0093";
shapes = (
{
closed = 1;
nodes = (
(76,1744,l),
(76,1480,l),
(2268,1480,l),
(2268,1744,l)
);
},
{
pos = (116,0);
ref = H;
}
);
width = 2344;
}
);
metricLeft = T;
metricRight = T;
unicode = 294;
userData = {
interface.gridadjust.original = "{'width': 1980.0, 'leftMargin': 43, 'rightMargin': 22.0}";
"interface.width-adjustments" = (
-16
);
};
},
{
color = (219,235,247,1);
glyphname = I;
kernLeft = B;
kernRight = H;
lastChange = "2021-09-25 14:20:58 +0000";
layers = (
{
anchors = (
{
name = bottom;
pos = (320,0);
},
{
name = cross;
pos = (320,1056);
},
{
name = ogonek;
pos = (352,0);
},
{
name = right;
pos = (364,0);
},
{
name = tonos;
pos = (288,2048);
},
{
name = top;
pos = (320,2304);
}
);
layerId = "B1F27B51-9973-4381-9301-4FE46FE1CA59";
shapes = (
{
closed = 1;
nodes = (
(288,2048,l),
(288,0,l),
(352,0,l),
(352,2048,l)
);
}
);
width = 640;
},
{
anchors = (
{
name = bottom;
pos = (350,0);
},
{
name = cross;
pos = (350,1056);
},
{
name = ogonek;
pos = (474,0);
},
{
name = right;
pos = (494,0);
},
{
name = tonos;
pos = (226,2048);
},
{
name = top;
pos = (350,2304);
}
);
guides = (
{
angle = 90;
pos = (328,1848);
}
);
layerId = "C698F293-3EC0-4A5A-A3A0-0FDB1F5CF265";
shapes = (
{
closed = 1;
nodes = (
(226,2048,l),
(226,0,l),
(474,0,l),
(474,2048,l)
);
}
);
width = 700;
},
{
anchors = (
{
name = bottom;
pos = (408,0);
},
{
name = cross;
pos = (408,1084);
},
{
name = ogonek;
pos = (688,0);
},
{
name = right;
pos = (724,0);
},
{
name = tonos;
pos = (132,2048);
},
{
name = top;
pos = (412,2304);
}
);
guides = (
{
orientation = center;
angle = 90;
pos = (144,1240);
}
);
layerId = "5C20EF92-B63D-42A8-8878-93C2863E0093";
shapes = (
{
closed = 1;
nodes = (
(132,2048,l),
(132,0,l),
(688,0,l),
(688,2048,l)
);
}
);
width = 820;
}
);
metricLeft = H;
metricRight = H;
unicode = 73;
userData = {
"interface.width-adjustments" = (
-16
);
};
},
{
glyphname = Idieresisacute;
kernLeft = Idieresis;
kernRight = Idieresis;
lastChange = "2021-09-25 14:20:58 +0000";
layers = (
{
layerId = "B1F27B51-9973-4381-9301-4FE46FE1CA59";
shapes = (
{
ref = I;
},
{
pos = (864,0);
ref = dieresisacutecomb.cn;
}
);
width = 640;
},
{
layerId = "C698F293-3EC0-4A5A-A3A0-0FDB1F5CF265";
shapes = (
{
ref = I;
},
{
pos = (902,0);
ref = dieresisacutecomb.cn;
}
);
width = 700;
},
{
background = {
shapes = (
{
closed = 1;
nodes = (
(702,64,l),
(702,2048,l),
(118,2048,l),
(118,64,l)
);
},
{
closed = 1;
nodes = (
(196,2712,l),
(588,2712,l),
(916,3098,l),
(472,3098,l)
);
},
{
closed = 1;
nodes = (
(230,2176,o),
(321,2270,o),
(322,2382,cs),
(323,2496,o),
(230,2589,o),
(104,2590,cs),
(-23,2591,o),
(-114,2496,o),
(-114,2382,cs),
(-114,2270,o),
(-23,2176,o),
(104,2176,cs)
);
},
{
closed = 1;
nodes = (
(841,2176,o),
(932,2270,o),
(932,2382,cs),
(932,2496,o),
(841,2589,o),
(714,2590,cs),
(588,2591,o),
(497,2496,o),
(498,2382,cs),
(499,2270,o),
(588,2176,o),
(714,2176,cs)
);
}
);
};
layerId = "5C20EF92-B63D-42A8-8878-93C2863E0093";
shapes = (
{
ref = I;
},
{
pos = (996,0);
ref = dieresisacutecomb.cn;
}
);
width = 820;
}
);
unicode = 7726;
userData = {
interface.gridadjust.original = "{'width': 1018, 'leftMargin': 28, 'rightMargin': 28}";
};
},
{
color = (219,235,247,1);
glyphname = J;
kernLeft = J;
kernRight = J;
lastChange = "2021-09-25 14:20:58 +0000";
layers = (
{
anchors = (
{
name = cross;
pos = (1080,1216);
},
{
name = top;
pos = (1080,2304);
}
);
guides = (
{
angle = 90;
pos = (976,2840);
}
);
layerId = "B1F27B51-9973-4381-9301-4FE46FE1CA59";
shapes = (
{
closed = 1;
nodes = (
(1048,544,ls),
(1046,164,o),
(840,36,o),
(616,36,cs),
(372,36,o),
(182,184,o),
(184,384,c),
(120,384,l),
(118,148,o),
(334,-28,o),
(616,-28,cs),
(878,-28,o),
(1110,128,o),
(1112,544,cs),
(1112,2048,l),
(1048,2048,l)
);
}
);
width = 1400;
},
{
anchors = (
{
name = cross;
pos = (1134,1216);
},
{
name = top;
pos = (1134,2304);
}
);
guides = (
{
angle = 90;
pos = (1112,1476);
},
{
angle = 90;
pos = (652,492);
}
);
layerId = "C698F293-3EC0-4A5A-A3A0-0FDB1F5CF265";
shapes = (
{
closed = 1;
nodes = (
(1010,584,l),
(1010,329,o),
(888,192,o),
(674,192,cs),
(479,192,o),
(338,306,o),
(338,480,c),
(94,480,l),
(94,165,o),
(338,-28,o),
(674,-28,cs),
(1030,-28,o),
(1258,191,o),
(1258,584,c),
(1258,2048,l),
(1010,2048,l)
);
}
);
width = 1484;
},
{
anchors = (
{
name = cross;
pos = (1244,1216);
},
{
name = top;
pos = (1248,2304);
}
);
guides = (
{
angle = 90;
pos = (1100,1476);
}
);
layerId = "5C20EF92-B63D-42A8-8878-93C2863E0093";
shapes = (
{
closed = 1;
nodes = (
(976,644,l),
(974,486,o),
(908,404,o),
(784,404,cs),
(662,404,o),
(594,485,o),
(588,640,c),
(32,640,l),
(30,168,o),
(354,-28,o),
(748,-28,cs),
(1202,-28,o),
(1522,244,o),
(1524,644,c),
(1524,2048,l),
(976,2048,l)
);
}
);
width = 1656;
}
);
metricRight = H;
unicode = 74;
},
{
color = (219,235,247,1);
glyphname = K;
kernLeft = B;
kernRight = K;
lastChange = "2021-09-25 14:20:58 +0000";
layers = (
{
anchors = (
{
name = bottom;
pos = (840,0);
},
{
name = top;
pos = (844,2304);
}
);
guides = (
{
angle = 227.6708;
pos = (1504,2632);
}
);
layerId = "B1F27B51-9973-4381-9301-4FE46FE1CA59";
shapes = (
{
closed = 1;
nodes = (
(352,0,l),
(352,668,l),
(660,1008,l),
(1512,0,l),
(1596,0,l),
(704,1056,l),
(1608,2048,l),
(1520,2048,l),
(360,772,l),
(352,772,l),
(352,2048,l),
(288,2048,l),
(288,0,l)
);
}
);
width = 1672;
},
{
anchors = (
{
name = bottom;
pos = (898,0);
},
{
name = top;
pos = (906,2304);
}
);
guides = (
{
angle = 227.6708;
pos = (1704,2048);
},
{
angle = 90;
pos = (884,212);
}
);
layerId = "C698F293-3EC0-4A5A-A3A0-0FDB1F5CF265";
shapes = (
{
closed = 1;
nodes = (
(474,0,l),
(474,664,l),
(730,952,l),
(1442,0,l),
(1742,0,l),
(882,1124,l),
(1742,2048,l),
(1418,2048,l),
(498,1032,l),
(474,1032,l),
(474,2048,l),
(226,2048,l),
(226,0,l)
);
}
);
width = 1792;
},
{
anchors = (
{
name = bottom;
pos = (992,4);
},
{
name = top;
pos = (996,2304);
}
);
guides = (
{
orientation = center;
angle = 90;
pos = (900,1820);
}
);
layerId = "5C20EF92-B63D-42A8-8878-93C2863E0093";
shapes = (
{
closed = 1;
nodes = (
(688,0,l),
(688,528,l),
(872,768,l),
(1332,0,l),
(1996,0,l),
(1288,1136,l),
(1980,2048,l),
(1332,2048,l),
(716,1220,l),
(688,1220,l),
(688,2048,l),
(132,2048,l),
(132,0,l)
);
}
);
width = 2012;
}
);
metricLeft = H;
unicode = 75;
userData = {
com.typemytype.robofont.guideline.magnetic.bB6GeEoQ3O = 5;
"interface.width-adjustments" = (
-16
);
};
},
{
glyphname = Khook;
kernLeft = B;
kernRight = K;
lastChange = "2021-09-25 14:20:58 +0000";
layers = (
{
layerId = "B1F27B51-9973-4381-9301-4FE46FE1CA59";
shapes = (
{
closed = 1;
nodes = (
(352,0,l),
(352,668,l),
(660,1008,l),
(1608,0,l),
(1696,0,l),
(704,1056,l),
(1480,1908,ls),
(1562,2000,o),
(1650,2020,o),
(1744,1952,c),
(1788,1994,l),
(1700,2090,o),
(1530,2070,o),
(1432,1952,c),
(360,772,l),
(352,772,l),
(352,2048,l),
(288,2048,l),
(288,0,l)
);
}
);
width = 1780;
},
{
background = {
shapes = (
{
ref = K;
}
);
};
layerId = "C698F293-3EC0-4A5A-A3A0-0FDB1F5CF265";
shapes = (
{
closed = 1;
nodes = (
(474,0,l),
(474,664,l),
(730,952,l),
(1442,0,l),
(1742,0,l),
(882,1124,l),
(1466,1752,ls),
(1568,1862,o),
(1658,1868,o),
(1746,1812,c),
(1846,1996,l),
(1682,2112,o),
(1470,2104,o),
(1310,1928,cs),
(498,1032,l),
(474,1032,l),
(474,2048,l),
(226,2048,l),
(226,0,l)
);
}
);
width = 1848;
},
{
background = {
shapes = (
{
pos = (12,0);
ref = K;
}
);
};
guides = (
{
angle = 227.7472;
pos = (996,1740);
},
{
angle = 227.9329;
pos = (1384,1508);
}
);
layerId = "5C20EF92-B63D-42A8-8878-93C2863E0093";
shapes = (
{
closed = 1;
nodes = (
(688,0,l),
(688,436,l),
(936,692,l),
(1464,0,l),
(2128,0,l),
(1292,1088,l),
(1708,1508,ls),
(1794,1594,o),
(1852,1644,o),
(1980,1584,c),
(2144,1972,l),
(1824,2148,o),
(1540,2092,o),
(1296,1844,cs),
(716,1256,l),
(688,1256,l),
(688,2048,l),
(132,2048,l),
(132,0,l)
);
}
);
width = 2160;
}
);
unicode = 408;
userData = {
com.typemytype.robofont.guideline.magnetic.39qH0NXtzo = 5;
com.typemytype.robofont.guideline.magnetic.tBAYMBoO6i = 5;
interface.gridadjust.original = "{'width': 1764, 'leftMargin': 228, 'rightMargin': -13}";
"interface.width-adjustments" = (
-16
);
};
},
{
color = (219,235,247,1);
glyphname = L;
kernLeft = B;
kernRight = L;
lastChange = "2021-09-25 14:20:58 +0000";
layers = (
{
anchors = (
{
name = bottom;
pos = (832,0);
},
{
name = cross;
pos = (320,1056);
},
{
name = dot;
pos = (800,1028);
},
{
name = raccent;
pos = (828,2048);
},
{
name = top;
pos = (320,2304);
}
);
guides = (
{
angle = 90;
pos = (728,2672);
},
{
angle = 90;
pos = (216,2516);
}
);
layerId = "B1F27B51-9973-4381-9301-4FE46FE1CA59";
shapes = (
{
closed = 1;
nodes = (
(1376,0,l),
(1376,64,l),
(352,64,l),
(352,2048,l),
(288,2048,l),
(288,0,l)
);
}
);
width = 1520;
},
{
anchors = (
{
name = bottom;
pos = (826,0);
},
{
name = cross;
pos = (350,1056);
},
{
name = dot;
pos = (810,1092);
},
{
name = raccent;
pos = (822,2048);
},
{
name = top;
pos = (350,2304);
}
);
guides = (
{
angle = 90;
pos = (328,1944);
},
{
angle = 90;
pos = (804,-100);
}
);
layerId = "C698F293-3EC0-4A5A-A3A0-0FDB1F5CF265";
shapes = (
{
closed = 1;
nodes = (
(1426,0,l),
(1426,220,l),
(474,220,l),
(474,2048,l),
(226,2048,l),
(226,0,l)
);
}
);
width = 1540;
},
{
anchors = (
{
name = bottom;
pos = (824,0);
},
{
name = cross;
pos = (408,1084);
},
{
name = dot;
pos = (832,1200);
},
{
name = raccent;
pos = (968,2048);
},
{
name = top;
pos = (404,2304);
}
);
guides = (
{
pos = (-136,1304);
},
{
angle = 90;
pos = (676,584);
},
{
pos = (840,-416);
}
);
layerId = "5C20EF92-B63D-42A8-8878-93C2863E0093";
shapes = (
{
closed = 1;
nodes = (
(1516,0,l),
(1516,448,l),
(688,448,l),
(688,2048,l),
(132,2048,l),
(132,0,l)
);
}
);
width = 1608;
}
);
metricLeft = H;
unicode = 76;
userData = {
"interface.width-adjustments" = (
-16
);
};
},
{
glyphname = Lslash;
kernLeft = B;
kernRight = L;
lastChange = "2021-09-25 14:20:58 +0000";
layers = (
{
layerId = "B1F27B51-9973-4381-9301-4FE46FE1CA59";
shapes = (
{
closed = 1;
nodes = (
(-32,932,l),
(-32,862,l),
(664,1118,l),
(664,1184,l)
);
},
{
alignment = -1;
pos = (-88,0);
ref = L;
}
);
width = 1456;
},
{
layerId = "C698F293-3EC0-4A5A-A3A0-0FDB1F5CF265";
shapes = (
{
closed = 1;
nodes = (
(38,1024,l),
(38,844,l),
(850,1100,l),
(850,1280,l)
);
},
{
ref = L;
}
);
width = 1540;
},
{
layerId = "5C20EF92-B63D-42A8-8878-93C2863E0093";
shapes = (
{
closed = 1;
nodes = (
(28,1092,l),
(28,820,l),
(1032,1076,l),
(1032,1352,l)
);
},
{
pos = (144,0);
ref = L;
}
);
width = 1692;
}
);
unicode = 321;
userData = {
interface.gridadjust.original = "{'width': 1524, 'leftMargin': 52, 'rightMargin': 104}";
"interface.width-adjustments" = (
-16
);
};
},
{
color = (219,235,247,1);
glyphname = M;
kernLeft = B;
kernRight = H;
lastChange = "2021-09-25 14:20:58 +0000";
layers = (
{
anchors = (
{
name = bottom;
pos = (1184,0);
},
{
name = right;
pos = (2080,0);
},
{
name = top;
pos = (1184,2304);
}
);
layerId = "B1F27B51-9973-4381-9301-4FE46FE1CA59";
shapes = (
{
closed = 1;
nodes = (
(288,0,l),
(352,0,l),
(352,1848,l),
(360,1848,l),
(1152,0,l),
(1216,0,l),
(2008,1848,l),
(2016,1848,l),
(2016,0,l),
(2080,0,l),
(2080,2048,l),
(2024,2048,l),
(1188,96,l),
(1180,96,l),
(344,2048,l),
(288,2048,l)
);
}
);
width = 2368;
},
{
anchors = (
{
name = bottom;
pos = (1230,0);
},
{
name = right;
pos = (2234,0);
},
{
name = top;
pos = (1230,2304);
}
);
guides = (
{
orientation = center;
angle = 90;
pos = (1180,152);
},
{
angle = 90;
pos = (472,2056);
},
{
angle = 90;
pos = (1888,2060);
}
);
layerId = "C698F293-3EC0-4A5A-A3A0-0FDB1F5CF265";
shapes = (
{
closed = 1;
nodes = (
(226,0,l),
(458,0,l),
(458,1556,l),
(478,1556,l),
(1118,0,l),
(1342,0,l),
(1982,1556,l),
(2002,1556,l),
(2002,0,l),
(2234,0,l),
(2234,2048,l),
(1938,2048,l),
(1242,348,l),
(1218,348,l),
(522,2048,l),
(226,2048,l)
);
}
);
width = 2460;
},
{
anchors = (
{
name = bottom;
pos = (1312,0);
},
{
name = right;
pos = (2492,0);
},
{
name = top;
pos = (1312,2304);
}
);
guides = (
{
pos = (40,1220);
},
{
orientation = center;
angle = 90;
pos = (940,2164);
}
);
layerId = "5C20EF92-B63D-42A8-8878-93C2863E0093";
shapes = (
{
closed = 1;
nodes = (
(132,0,l),
(676,0,l),
(676,1192,l),
(692,1192,l),
(1148,16,l),
(1476,16,l),
(1932,1184,l),
(1948,1184,l),
(1948,0,l),
(2492,0,l),
(2492,2048,l),
(1800,2048,l),
(1324,888,l),
(1300,888,l),
(824,2048,l),
(132,2048,l)
);
}
);
width = 2624;
},
{
anchors = (
{
name = bottom;
pos = (1372,4);
},
{
name = bottom_dd;
pos = (2696,-560);
},
{
name = right;
pos = (2544,0);
},
{
name = top;
pos = (1372,2180);
},
{
name = top0315;
pos = (2696,2200);
},
{
name = top_dd;
pos = (2696,2200);
}
);
associatedMasterId = "5C20EF92-B63D-42A8-8878-93C2863E0093";
guides = (
{
pos = (188,1220);
},
{
angle = 90;
pos = (1572,1848);
},
{
angle = 90;
pos = (1088,2164);
},
{
angle = 90;
pos = (2140,2040);
}
);
layerId = "7A3B8677-86EC-455E-A3DC-AFD0C29D8E15";
name = "Oct 6 18, 13:17";
shapes = (
{
closed = 1;
nodes = (
(132,0,l),
(692,0,l),
(692,1260,l),
(708,1260,l),
(1196,40,l),
(1548,40,l),
(2036,1252,l),
(2052,1252,l),
(2052,0,l),
(2612,0,l),
(2612,2048,l),
(1880,2048,l),
(1384,880,l),
(1360,880,l),
(864,2048,l),
(132,2048,l)
);
}
);
width = 2744;
}
);
metricLeft = H;
metricRight = H;
unicode = 77;
userData = {
com.typemytype.robofont.guideline.magnetic.ezYETy42tZ = 5;
com.typemytype.robofont.guideline.magnetic.wu5HJlZVk6 = 5;
com.typemytype.robofont.guideline.magnetic.x5YoYrsuLC = 5;
"interface.width-adjustments" = (
-16
);
};
},
{
color = (219,235,247,1);
glyphname = N;
kernLeft = B;
kernRight = H;
lastChange = "2021-09-25 14:20:58 +0000";
layers = (
{
anchors = (
{
name = bottom;
pos = (1056,0);
},
{
name = right;
pos = (1756,0);
},
{
name = top;
pos = (1056,2304);
}
);
layerId = "B1F27B51-9973-4381-9301-4FE46FE1CA59";
shapes = (
{
closed = 1;
nodes = (
(1760,2048,l),
(1760,120,l),
(1752,120,l),
(352,2048,l),
(288,2048,l),
(288,0,l),
(352,0,l),
(352,1928,l),
(360,1928,l),
(1760,0,l),
(1824,0,l),
(1824,2048,l)
);
}
);
width = 2112;
},
{
anchors = (
{
name = bottom;
pos = (1040,0);
},
{
name = right;
pos = (1828,0);
},
{
name = top;
pos = (1040,2304);
}
);
associatedMasterId = "C698F293-3EC0-4A5A-A3A0-0FDB1F5CF265";
guides = (
{
orientation = center;
angle = 90;
pos = (1116,284);
}
);
layerId = "CDCA1FA0-CAD8-4C14-B3A1-3337A4674D3F";
name = "Oct 7 18, 22:28";
shapes = (
{
closed = 1;
nodes = (
(1588,2048,l),
(1588,436,l),
(1568,436,l),
(488,2048,l),
(248,2048,l),
(248,0,l),
(496,0,l),
(496,1604,l),
(516,1604,l),
(1592,0,l),
(1832,0,l),
(1832,2048,l)
);
}
);
width = 2080;
},
{
anchors = (
{
name = bottom;
pos = (1038,0);
},
{
name = right;
pos = (1846,0);
},
{
name = top;
pos = (1038,2304);
}
);
layerId = "C698F293-3EC0-4A5A-A3A0-0FDB1F5CF265";
shapes = (
{
closed = 1;
nodes = (
(1606,2048,l),
(1606,436,l),
(1586,436,l),
(466,2048,l),
(226,2048,l),
(226,0,l),
(474,0,l),
(474,1608,l),
(494,1608,l),
(1610,0,l),
(1850,0,l),
(1850,2048,l)
);
}
);
width = 2076;
},
{
anchors = (
{
name = bottom;
pos = (1020,0);
},
{
name = right;
pos = (2000,0);
},
{
name = top;
pos = (1020,2304);
}
);
guides = (
{
pos = (-136,1652);
},
{
orientation = center;
angle = 90;
pos = (752,240);
}
);
layerId = "5C20EF92-B63D-42A8-8878-93C2863E0093";
shapes = (
{
closed = 1;
nodes = (
(1348,2048,l),
(1348,976,l),
(1332,976,l),
(604,2048,l),
(132,2048,l),
(132,0,l),
(688,0,l),
(688,1076,l),
(700,1076,l),
(1440,0,l),
(1904,0,l),
(1904,2048,l)
);
}
);
width = 2036;
},
{
anchors = (
{
name = bottom;
pos = (1020,0);
},
{
name = bottom_dd;
pos = (2152,-560);
},
{
name = right;
pos = (2000,0);
},
{
name = top;
pos = (1020,2180);
},
{
name = top0315;
pos = (2152,2200);
},
{
name = top_dd;
pos = (2152,2200);
}
);
associatedMasterId = "5C20EF92-B63D-42A8-8878-93C2863E0093";
guides = (
{
pos = (12,1652);
},
{
orientation = center;
angle = 90;
pos = (900,240);
}
);
layerId = "461D0975-D8C8-4F19-8EC4-E20368FC099A";
name = "Oct 6 18, 13:13";
shapes = (
{
closed = 1;
nodes = (
(1348,2048,l),
(1348,928,l),
(1332,928,l),
(684,2048,l),
(132,2048,l),
(132,0,l),
(688,0,l),
(688,1124,l),
(700,1124,l),
(1360,0,l),
(1904,0,l),
(1904,2048,l)
);
}
);
width = 2036;
}
);
metricLeft = H;
metricRight = H;
unicode = 78;
userData = {
"interface.width-adjustments" = (
-16
);
};
},
{
glyphname = Nhook;
kernLeft = jdotless;
kernRight = H;
lastChange = "2021-09-25 14:20:58 +0000";
layers = (
{
layerId = "B1F27B51-9973-4381-9301-4FE46FE1CA59";
shapes = (
{
closed = 1;
nodes = (
(222,-232,ls),
(222,-418,o),
(152,-508,o),
(8,-508,cs),
(-22,-508,o),
(-46,-505,o),
(-64,-500,c),
(-64,-564,l),
(-45,-569,o),
(-16,-572,o),
(14,-572,cs),
(190,-572,o),
(286,-452,o),
(286,-232,cs),
(286,0,l),
(222,0,l)
);
},
{
alignment = -1;
pos = (-66,0);
ref = N;
}
);
width = 2046;
},
{
layerId = "C698F293-3EC0-4A5A-A3A0-0FDB1F5CF265";
shapes = (
{
closed = 1;
nodes = (
(238,-160,ls),
(238,-320,o),
(146,-368,o),
(18,-368,cs),
(-10,-368,o),
(-38,-364,o),
(-58,-360,c),
(-58,-564,l),
(-22,-576,o),
(30,-576,o),
(78,-576,cs),
(302,-576,o),
(486,-428,o),
(486,-164,cs),
(486,0,l),
(238,0,l)
);
},
{
pos = (12,0);
ref = N;
}
);
width = 2088;
},
{
layerId = "5C20EF92-B63D-42A8-8878-93C2863E0093";
shapes = (
{
closed = 1;
nodes = (
(204,-48,ls),
(204,-140,o),
(98,-160,o),
(-4,-160,c),
(-26,-160,o),
(-66,-164,o),
(-96,-160,c),
(-96,-568,l),
(-38,-576,o),
(90,-576,o),
(144,-576,c),
(434,-576,o),
(760,-532,o),
(760,-48,cs),
(760,0,l),
(204,0,l)
);
},
{
pos = (72,0);
ref = N;
}
);
width = 2108;
}
);
metricLeft = j;
metricRight = H;
unicode = 413;
userData = {
interface.gridadjust.original = "{'width': 2104, 'leftMargin': 0, 'rightMargin': 218}";
"interface.width-adjustments" = (
-16
);
};
},
{
glyphname = Eng;
kernLeft = B;
kernRight = H;
lastChange = "2021-09-25 14:20:58 +0000";
layers = (
{
layerId = "B1F27B51-9973-4381-9301-4FE46FE1CA59";
shapes = (
{
closed = 1;
nodes = (
(1760,-232,ls),
(1760,-418,o),
(1690,-508,o),
(1546,-508,cs),
(1516,-508,o),
(1492,-505,o),
(1474,-500,c),
(1474,-564,l),
(1493,-569,o),
(1522,-572,o),
(1552,-572,cs),
(1728,-572,o),
(1824,-452,o),
(1824,-232,cs),
(1824,0,l),
(1760,0,l)
);
},
{
alignment = -1;
ref = N;
}
);
width = 2112;
},
{
layerId = "C698F293-3EC0-4A5A-A3A0-0FDB1F5CF265";
shapes = (
{
closed = 1;
nodes = (
(1610,-160,ls),
(1610,-320,o),
(1510,-368,o),
(1382,-368,cs),
(1354,-368,o),
(1326,-364,o),
(1306,-360,c),
(1306,-564,l),
(1342,-576,o),
(1394,-576,o),
(1442,-576,cs),
(1666,-576,o),
(1850,-428,o),
(1850,-164,cs),
(1850,0,l),
(1610,0,l)
);
},
{
ref = N;
}
);
width = 2076;
},
{
layerId = "5C20EF92-B63D-42A8-8878-93C2863E0093";
shapes = (
{
closed = 1;
nodes = (
(1440,-40,ls),
(1440,-152,o),
(1349,-220,o),
(1200,-220,cs),
(1131,-220,o),
(1057,-212,o),
(1004,-200,c),
(1004,-600,l),
(1058,-617,o),
(1122,-628,o),
(1172,-628,cs),
(1627,-628,o),
(1904,-501,o),
(1904,-28,cs),
(1904,0,l),
(1440,0,l,{
name = hr00;
})
);
},
{
ref = N;
}
);
width = 2036;
}
);
metricLeft = N;
metricRight = N;
unicode = 330;
userData = {
interface.gridadjust.original = "{'width': 1947.0, 'leftMargin': 217, 'rightMargin': 205.0}";
"interface.width-adjustments" = (
-16
);
};
},
{
color = (219,235,247,1);
glyphname = O;
kernLeft = C;
kernRight = D;
lastChange = "2021-09-25 14:20:58 +0000";
layers = (
{
anchors = (
{
name = bottom;
pos = (1020,0);
},
{
name = ogonek;
pos = (1068,0);
},
{
name = tonos;
pos = (272,2048);
},
{
name = top;
pos = (1020,2304);
}
);
layerId = "B1F27B51-9973-4381-9301-4FE46FE1CA59";
shapes = (
{
closed = 1;
nodes = (
(1868,1650,o),
(1524,2076,o),
(1020,2076,cs),
(515,2076,o),
(172,1649,o),
(172,1024,cs),
(172,400,o),
(514,-28,o),
(1020,-28,cs),
(1524,-28,o),
(1868,398,o),
(1868,1024,cs)
);
},
{
closed = 1;
nodes = (
(1805,436,o),
(1486,36,o),
(1020,36,cs),
(549,36,o),
(236,440,o),
(236,1024,cs),
(236,1616,o),
(556,2012,o),
(1020,2012,cs),
(1486,2012,o),
(1803,1612,o),
(1804,1024,cs)
);
}
);
width = 2040;
},
{
anchors = (
{
name = bottom;
pos = (1050,0);
},
{
name = ogonek;
pos = (1246,-8);
},
{
name = tonos;
pos = (250,2048);
},
{
name = top;
pos = (1050,2304);
}
);
guides = (
{
angle = 90;
pos = (1028,1652);
}
);
layerId = "C698F293-3EC0-4A5A-A3A0-0FDB1F5CF265";
shapes = (
{
closed = 1;
nodes = (
(1954,1672,o),
(1574,2076,o),
(1050,2076,cs),
(526,2076,o),
(146,1672,o),
(146,1024,cs),
(146,376,o),
(526,-28,o),
(1050,-28,cs),
(1574,-28,o),
(1954,376,o),
(1954,1024,cs)
);
},
{
closed = 1;
nodes = (
(1714,492,o),
(1422,204,o),
(1050,204,cs),
(678,204,o),
(386,492,o),
(386,1024,cs),
(386,1556,o),
(678,1844,o),
(1050,1844,cs),
(1422,1844,o),
(1714,1556,o),
(1714,1024,cs)
);
}
);
width = 2100;
},
{
anchors = (
{
name = bottom;
pos = (1120,0);
},
{
name = ogonek;
pos = (1404,8);
},
{
name = tonos;
pos = (236,2048);
},
{
name = top;
pos = (1120,2304);
}
);
guides = (
{
orientation = center;
angle = 90;
pos = (1136,940);
}
);
layerId = "5C20EF92-B63D-42A8-8878-93C2863E0093";
shapes = (
{
closed = 1;
nodes = (
(2116,1708,o),
(1676,2076,o),
(1120,2076,cs),
(560,2076,o),
(124,1708,o),
(124,1024,cs),
(124,344,o),
(560,-28,o),
(1120,-28,cs),
(1676,-28,o),
(2116,340,o),
(2116,1024,cs)
);
},
{
closed = 1;
nodes = (
(1544,656,o),
(1396,456,o),
(1120,456,cs),
(844,456,o),
(696,656,o),
(696,1024,cs),
(696,1392,o),
(844,1592,o),
(1120,1592,cs),
(1396,1592,o),
(1544,1392,o),
(1544,1024,cs)
);
}
);
width = 2240;
}
);
unicode = 79;
userData = {
com.typemytype.robofont.guideline.magnetic.GU6fgH972W = 5;
"interface.width-adjustments" = (
-16
);
};
},
{
glyphname = OI;
lastChange = "2021-09-25 14:20:58 +0000";
layers = (
{
background = {
shapes = (
{
closed = 1;
nodes = (
(1484,1040,l),
(1484,254,l),
(1398,124,o),
(1212,36,o),
(1016,36,cs),
(603,36,o),
(270,404,o),
(268,924,cs),
(268,982,l),
(204,982,l),
(204,924,ls),
(204,370,o),
(570,-28,o),
(1012,-28,cs),
(1233,-28,o),
(1436,70,o),
(1548,238,c),
(1548,1040,l)
);
},
{
closed = 1;
nodes = (
(1422,1946,o),
(1224,2036,o),
(1012,2036,cs),
(550,2036,o),
(204,1608,o),
(204,1042,cs),
(204,964,l),
(268,964,l),
(268,1042,ls),
(268,1576,o),
(588,1972,o),
(1012,1972,cs),
(1202,1972,o),
(1385,1892,o),
(1484,1758,c),
(1484,922,l),
(1548,922,l),
(1548,1790,l)
);
},
{
closed = 1;
nodes = (
(1762,2004,l),
(1498,1796,l),
(1498,1714,l),
(1790,1944,l),
(1790,-572,l),
(1854,-572,l),
(1854,2004,l)
);
}
);
};
guides = (
{
pos = (970,1508);
}
);
layerId = "B1F27B51-9973-4381-9301-4FE46FE1CA59";
shapes = (
{
closed = 1;
nodes = (
(1452,1080,l),
(1452,254,l),
(1366,124,o),
(1180,36,o),
(984,36,cs),
(571,36,o),
(238,404,o),
(236,924,cs),
(236,982,l),
(172,982,l),
(172,924,ls),
(172,370,o),
(538,-28,o),
(980,-28,cs),
(1201,-28,o),
(1404,70,o),
(1516,238,c),
(1516,1080,l)
);
},
{
closed = 1;
nodes = (
(1390,1986,o),
(1192,2076,o),
(980,2076,cs),
(518,2076,o),
(172,1648,o),
(172,1082,cs),
(172,964,l),
(236,964,l),
(236,1082,ls),
(236,1616,o),
(556,2012,o),
(980,2012,cs),
(1170,2012,o),
(1353,1932,o),
(1452,1798,c),
(1452,922,l),
(1516,922,l),
(1516,1830,l)
);
},
{
closed = 1;
nodes = (
(1730,2048,l),
(1466,1840,l),
(1466,1758,l),
(1758,1988,l),
(1758,-576,l),
(1822,-576,l),
(1822,2048,l)
);
}
);
width = 2110;
},
{
background = {
shapes = (
{
closed = 1;
nodes = (
(1440,1000,l),
(1440,344,l),
(1388,288,o),
(1296,200,o),
(1020,200,cs),
(644,200,o),
(452,492,o),
(452,932,cs),
(452,1064,l),
(168,1060,l),
(168,932,ls),
(168,308,o),
(524,-28,o),
(1008,-28,cs),
(1464,-28,o),
(1640,160,o),
(1712,272,c),
(1712,1000,l,{
name = hr00;
})
);
},
{
closed = 1;
nodes = (
(1640,1844,o),
(1464,2032,o),
(1008,2032,cs),
(520,2032,o),
(168,1676,o),
(168,1072,cs),
(168,956,l),
(452,956,l),
(452,1072,ls),
(452,1536,o),
(672,1800,o),
(1008,1800,cs),
(1296,1800,o),
(1388,1716,o),
(1440,1656,c),
(1440,976,l),
(1712,976,l),
(1712,1732,l)
);
},
{
closed = 1;
nodes = (
(1972,2004,l),
(1588,1848,l),
(1588,1616,l),
(1908,1732,l),
(1908,-572,l),
(2184,-572,l),
(2184,2004,l)
);
}
);
};
layerId = "C698F293-3EC0-4A5A-A3A0-0FDB1F5CF265";
shapes = (
{
closed = 1;
nodes = (
(1418,1044,l),
(1418,344,l),
(1328,247,o),
(1180,200,o),
(1018,200,cs),
(627,200,o),
(430,470,o),
(430,932,cs),
(430,1108,l),
(146,1104,l),
(146,932,ls),
(146,343,o),
(463,-28,o),
(1002,-28,cs),
(1301,-28,o),
(1568,82,o),
(1690,272,c),
(1690,1044,l,{
name = hr00;
})
);
},
{
closed = 1;
nodes = (
(1573,1958,o),
(1312,2076,o),
(1026,2076,cs),
(475,2076,o),
(146,1717,o),
(146,1116,cs),
(146,956,l),
(430,956,l),
(430,1116,ls),
(430,1594,o),
(633,1844,o),
(1022,1844,cs),
(1191,1844,o),
(1340,1789,o),
(1418,1700,c),
(1418,1020,l),
(1690,1020,l),
(1690,1776,l)
);
},
{
closed = 1;
nodes = (
(1950,2048,l),
(1566,1892,l),
(1566,1660,l),
(1886,1776,l),
(1886,-576,l),
(2162,-576,l),
(2162,2048,l)
);
}
);
width = 2388;
},
{
background = {
shapes = (
{
closed = 1;
nodes = (
(1376,1284,l),
(1376,468,l),
(1327,436,o),
(1239,400,o),
(1088,400,cs),
(775,400,o),
(671,620,o),
(672,948,cs),
(672,1024,l),
(124,1020,l),
(124,948,ls),
(123,332,o),
(491,-28,o),
(1056,-28,cs),
(1503,-28,o),
(1783,132,o),
(1896,244,c),
(1896,1284,l)
);
},
{
closed = 1;
nodes = (
(1783,1876,o),
(1507,2032,o),
(1056,2032,cs),
(491,2032,o),
(123,1676,o),
(124,1056,cs),
(124,960,l),
(672,956,l),
(672,1056,ls),
(671,1404,o),
(759,1604,o),
(1092,1604,cs),
(1211,1604,o),
(1311,1588,o),
(1376,1540,c),
(1376,728,l),
(1896,736,l),
(1896,1760,l)
);
},
{
closed = 1;
nodes = (
(2248,2004,l),
(1600,1696,l),
(1600,1100,l),
(2120,1352,l),
(2120,-572,l),
(2632,-572,l),
(2632,2004,l)
);
}
);
};
layerId = "5C20EF92-B63D-42A8-8878-93C2863E0093";
shapes = (
{
closed = 1;
nodes = (
(1376,1328,l),
(1376,468,l),
(1327,436,o),
(1231,400,o),
(1100,400,cs),
(767,400,o),
(672,620,o),
(672,948,cs),
(672,1068,l),
(124,1064,l),
(124,948,ls),
(124,332,o),
(477,-28,o),
(1082,-28,cs),
(1489,-28,o),
(1783,132,o),
(1896,244,c),
(1896,1328,l)
);
},
{
closed = 1;
nodes = (
(1783,1920,o),
(1493,2076,o),
(1082,2076,cs),
(477,2076,o),
(124,1720,o),
(124,1100,cs),
(124,960,l),
(672,956,l),
(672,1100,ls),
(672,1448,o),
(751,1648,o),
(1104,1648,cs),
(1203,1648,o),
(1311,1632,o),
(1376,1584,c),
(1376,728,l),
(1896,736,l),
(1896,1804,l)
);
},
{
closed = 1;
nodes = (
(2248,2048,l),
(1600,1740,l),
(1600,1144,l),
(2120,1396,l),
(2120,-576,l),
(2632,-576,l),
(2632,2048,l)
);
}
);
width = 2764;
}
);
unicode = 418;
userData = {
interface.gridadjust.original = "{'width': 2409.0, 'leftMargin': 161, 'rightMargin': 232.0}";
"interface.width-adjustments" = (
-16
);
};
},
{
glyphname = Ohorn;
kernLeft = C;
kernRight = D;
lastChange = "2021-09-25 14:20:58 +0000";
layers = (
{
layerId = "B1F27B51-9973-4381-9301-4FE46FE1CA59";
shapes = (
{
closed = 1;
nodes = (
(1847,1985,o),
(1781,1897,o),
(1572,1844,c),
(1572,1780,l),
(1816,1832,o),
(1913,1952,o),
(1912,2204,c),
(1848,2204,l)
);
},
{
alignment = -1;
ref = O;
}
);
width = 2006;
},
{
layerId = "C698F293-3EC0-4A5A-A3A0-0FDB1F5CF265";
shapes = (
{
closed = 1;
nodes = (
(1882,1964,o),
(1790,1828,o),
(1582,1828,c),
(1582,1632,l),
(1938,1632,o),
(2118,1836,o),
(2118,2196,c),
(1882,2196,l)
);
},
{
ref = O;
}
);
width = 2136;
},
{
guides = (
{
angle = 90;
pos = (876,1568);
}
);
layerId = "5C20EF92-B63D-42A8-8878-93C2863E0093";
shapes = (
{
closed = 1;
nodes = (
(2032,1856,o),
(1992,1704,o),
(1808,1704,c),
(1808,1468,l),
(2180,1468,o),
(2332,1708,o),
(2332,2116,c),
(2032,2116,l)
);
},
{
ref = O;
}
);
width = 2364;
}
);
metricLeft = O;
unicode = 416;
userData = {
interface.gridadjust.original = "{'width': 1928, 'leftMargin': 226, 'rightMargin': -45}";
"interface.width-adjustments" = (
-16
);
};
},
{
glyphname = Oslash;
kernLeft = C;
kernRight = D;
lastChange = "2021-09-25 14:20:58 +0000";
layers = (
{
layerId = "B1F27B51-9973-4381-9301-4FE46FE1CA59";
shapes = (
{
closed = 1;
nodes = (
(1736,2060,l),
(1684,2096,l),
(304,-12,l),
(356,-48,l)
);
},
{
alignment = -1;
ref = O;
}
);
width = 2040;
},
{
guides = (
{
angle = 145.6539;
pos = (352,-96);
},
{
angle = 90;
pos = (972,1852);
},
{
angle = 56.0077;
pos = (972,1024);
}
);
layerId = "C698F293-3EC0-4A5A-A3A0-0FDB1F5CF265";
shapes = (
{
closed = 1;
nodes = (
(1834,2024,l),
(1682,2128,l),
(258,20,l),
(410,-84,l)
);
},
{
ref = O;
}
);
width = 2100;
},
{
guides = (
{
angle = 90;
pos = (876,1588);
},
{
pos = (1144,1024);
},
{
angle = 55.9722;
pos = (876,1024);
}
);
layerId = "5C20EF92-B63D-42A8-8878-93C2863E0093";
shapes = (
{
closed = 1;
nodes = (
(1980,2000,l),
(1756,2152,l),
(260,44,l),
(484,-108,l)
);
},
{
ref = O;
}
);
width = 2240;
}
);
metricLeft = O;
metricRight = O;
unicode = 216;
userData = {
com.typemytype.robofont.guideline.magnetic.7eFhkhwEhv = 5;
com.typemytype.robofont.guideline.magnetic.bDBaZ7HKjd = 5;
com.typemytype.robofont.guideline.magnetic.rquz9RFtyk = 5;
"interface.width-adjustments" = (
-16
);
};
},
{
glyphname = OE;
kernLeft = C;
kernRight = E;
lastChange = "2021-09-25 14:20:58 +0000";
layers = (
{
layerId = "B1F27B51-9973-4381-9301-4FE46FE1CA59";
shapes = (
{
closed = 1;
nodes = (
(1272,0,l),
(1272,64,l),
(1020,64,ls),
(549,64,o),
(236,456,o),
(236,1024,cs),
(236,1600,o),
(556,1986,o),
(1020,1984,cs),
(1272,1984,l),
(1272,2048,l),
(1020,2048,ls),
(515,2048,o),
(172,1633,o),
(172,1024,cs),
(172,416,o),
(514,0,o),
(1020,0,cs)
);
},
{
alignment = -1;
pos = (952,0);
ref = E;
}
);
width = 2532;
},
{
layerId = "C698F293-3EC0-4A5A-A3A0-0FDB1F5CF265";
shapes = (
{
closed = 1;
nodes = (
(1326,0,l),
(1326,220,l),
(1050,220,ls),
(654,220,o),
(386,544,o),
(386,1024,cs),
(386,1508,o),
(654,1828,o),
(1050,1828,cs),
(1326,1828,l),
(1326,2048,l),
(1050,2048,ls),
(510,2048,o),
(146,1640,o),
(146,1024,cs),
(146,412,o),
(510,0,o),
(1050,0,cs)
);
},
{
pos = (1000,0);
ref = E;
}
);
width = 2640;
},
{
layerId = "5C20EF92-B63D-42A8-8878-93C2863E0093";
shapes = (
{
closed = 1;
nodes = (
(1576,0,l),
(1576,448,l),
(1072,448,l),
(851,448,o),
(687,568,o),
(688,1020,c),
(687,1468,o),
(851,1600,o),
(1072,1600,c),
(1576,1600,l),
(1576,2048,l),
(1072,2048,l),
(543,2048,o),
(123,1720,o),
(124,1020,c),
(123,324,o),
(543,0,o),
(1072,0,c)
);
},
{
pos = (1236,0);
ref = E;
}
);
width = 2988;
}
);
metricLeft = O;
metricRight = E;
note = "!post:RemoveOverlap";
unicode = 338;
userData = {
interface.gridadjust.original = "{'width': 2698, 'leftMargin': 143, 'rightMargin': 191}";
"interface.width-adjustments" = (
-16
);
};
},
{
color = (219,235,247,1);
glyphname = P;
kernLeft = B;
kernRight = P;
lastChange = "2021-09-25 14:20:58 +0000";
layers = (
{
anchors = (
{
name = tonos;
pos = (228,2048);
},
{
name = top;
pos = (844,2304);
}
);
layerId = "B1F27B51-9973-4381-9301-4FE46FE1CA59";
shapes = (
{
closed = 1;
nodes = (
(352,0,l),
(352,1984,l),
(888,1984,ls),
(1195,1984,o),
(1412,1762,o),
(1412,1448,cs),
(1412,1136,o),
(1195,916,o),
(888,916,cs),
(320,916,l),
(320,852,l),
(888,852,ls),
(1232,852,o),
(1476,1099,o),
(1476,1448,cs),
(1476,1799,o),
(1232,2048,o),
(888,2048,cs),
(288,2048,l),
(288,0,l)
);
}
);
width = 1644;
},
{
anchors = (
{
name = tonos;
pos = (178,2048);
},
{
name = top;
pos = (870,2304);
}
);
guides = (
{
angle = 90;
pos = (1352,1760);
},
{
angle = 90;
pos = (1204,1804);
}
);
layerId = "C698F293-3EC0-4A5A-A3A0-0FDB1F5CF265";
shapes = (
{
closed = 1;
nodes = (
(474,0,l),
(474,1828,l),
(910,1828,ls),
(1243,1828,o),
(1370,1646,o),
(1370,1400,cs),
(1370,1154,o),
(1243,968,o),
(914,968,cs),
(426,968,l),
(426,748,l),
(922,748,ls),
(1399,748,o),
(1614,1038,o),
(1614,1400,cs),
(1614,1762,o),
(1399,2048,o),
(918,2048,cs),
(226,2048,l),
(226,0,l)
);
}
);
width = 1744;
},
{
anchors = (
{
name = tonos;
pos = (104,2048);
},
{
name = top;
pos = (904,2304);
}
);
guides = (
{
pos = (-136,1240);
},
{
pos = (-136,764);
},
{
pos = (-136,1552);
},
{
pos = (672,1372);
}
);
layerId = "5C20EF92-B63D-42A8-8878-93C2863E0093";
shapes = (
{
closed = 1;
nodes = (
(688,0,l),
(688,1604,l),
(884,1604,ls),
(1079,1604,o),
(1196,1500,o),
(1196,1324,cs),
(1196,1149,o),
(1079,1040,o),
(884,1040,cs),
(468,1040,l),
(468,608,l),
(996,608,ls),
(1463,608,o),
(1776,883,o),
(1776,1324,cs),
(1776,1760,o),
(1471,2048,o),
(1016,2048,cs),
(132,2048,l),
(132,0,l)
);
}
);
width = 1848;
}
);
metricLeft = H;
unicode = 80;
userData = {
com.typemytype.robofont.guideline.magnetic.fNIC4eKo9v = 5;
com.typemytype.robofont.guideline.magnetic.hdLF6WxJ6g = 5;
"interface.width-adjustments" = (
-16
);
};
},
{
glyphname = Phook;
kernLeft = B;
kernRight = P;
lastChange = "2021-09-25 14:20:58 +0000";
layers = (
{
layerId = "B1F27B51-9973-4381-9301-4FE46FE1CA59";
shapes = (
{
closed = 1;
nodes = (
(204,1724,ls),
(204,1912,o),
(263,1984,o),
(416,1984,cs),
(592,1984,l,{
name = hr00;
}),
(592,2048,l),
(412,2048,ls),
(236,2048,o),
(141,1947,o),
(140,1760,cs),
(140,1688,l),
(204,1688,l)
);
},
{
alignment = -1;
pos = (164,0);
ref = P;
}
);
width = 1808;
},
{
associatedMasterId = "B1F27B51-9973-4381-9301-4FE46FE1CA59";
background = {
shapes = (
{
closed = 1;
nodes = (
(576,2048,l),
(476,2048,ls),
(312,2048,o),
(244,1888,o),
(244,1760,cs),
(244,1688,l),
(308,1688,l),
(308,1804,ls),
(308,1936,o),
(328,1984,o),
(484,1984,cs),
(576,1984,l,{
name = hr00;
})
);
}
);
};
layerId = "EAD41403-23A7-4556-BD97-FF67B573FEAA";
name = "Nov 25 18, 15:04";
shapes = (
{
closed = 0;
nodes = (
(576,2016,l),
(480,2016,l),
(308,2016,o),
(224,1932,o),
(224,1760,c),
(224,1688,l)
);
},
{
alignment = -1;
pos = (224,0);
ref = P;
}
);
width = 1940;
},
{
layerId = "C698F293-3EC0-4A5A-A3A0-0FDB1F5CF265";
shapes = (
{
closed = 1;
nodes = (
(346,1580,ls),
(346,1708,o),
(366,1828,o),
(526,1828,cs),
(722,1828,l),
(722,2048,l),
(522,2048,ls),
(258,2048,o),
(114,1864,o),
(114,1640,cs),
(114,1504,l),
(346,1504,l)
);
},
{
pos = (428,0);
ref = P;
}
);
width = 2172;
},
{
layerId = "5C20EF92-B63D-42A8-8878-93C2863E0093";
shapes = (
{
closed = 1;
nodes = (
(564,1344,ls),
(562,1464,o),
(610,1604,o),
(780,1604,cs),
(1144,1604,l,{
name = hr00;
}),
(1144,2048,l),
(780,2048,ls),
(350,2048,o),
(74,1828,o),
(76,1440,cs),
(76,1196,l),
(564,1196,l)
);
},
{
pos = (680,0);
ref = P;
}
);
width = 2528;
}
);
metricLeft = T;
metricRight = P;
note = "!post:RemoveOverlap";
unicode = 420;
userData = {
interface.gridadjust.original = "{'width': 2072, 'leftMargin': 41, 'rightMargin': 158}";
"interface.width-adjustments" = (
-16
);
};
},
{
glyphname = Thorn;
kernLeft = B;
lastChange = "2021-09-25 14:20:58 +0000";
layers = (
{
layerId = "B1F27B51-9973-4381-9301-4FE46FE1CA59";
shapes = (
{
closed = 1;
nodes = (
(260,0,l),
(320,0,l),
(320,2048,l),
(260,2048,l)
);
},
{
closed = 1;
nodes = (
(292,1492,l),
(812,1492,ls),
(1144,1492,o),
(1342,1318,o),
(1344,1024,cs),
(1342,729,o),
(1150,562,o),
(812,562,cs),
(292,562,l),
(292,498,l),
(812,498,ls),
(1186,498,o),
(1408,695,o),
(1408,1028,cs),
(1408,1353,o),
(1178,1556,o),
(812,1556,cs),
(292,1556,l)
);
}
);
width = 1600;
},
{
layerId = "C698F293-3EC0-4A5A-A3A0-0FDB1F5CF265";
shapes = (
{
closed = 1;
nodes = (
(210,0,l),
(458,0,l),
(458,2048,l),
(210,2048,l)
);
},
{
closed = 1;
nodes = (
(326,1404,l),
(854,1404,ls),
(1138,1404,o),
(1294,1264,o),
(1294,1032,cs),
(1294,800,o),
(1138,668,o),
(854,668,cs),
(326,668,l),
(326,448,l),
(854,448,ls),
(1290,448,o),
(1530,712,o),
(1530,1036,cs),
(1530,1360,o),
(1290,1624,o),
(854,1624,cs),
(326,1624,l)
);
}
);
width = 1732;
},
{
guides = (
{
pos = (-136,1240);
},
{
pos = (-136,764);
}
);
layerId = "5C20EF92-B63D-42A8-8878-93C2863E0093";
shapes = (
{
closed = 1;
nodes = (
(136,0,l),
(692,0,l),
(692,2048,l),
(136,2048,l)
);
},
{
closed = 1;
nodes = (
(392,1292,l),
(928,1292,ls),
(1148,1292,o),
(1220,1160,o),
(1220,1048,cs),
(1220,940,o),
(1148,812,o),
(928,812,cs),
(392,812,l),
(392,404,l),
(928,404,ls),
(1460,404,o),
(1752,668,o),
(1752,1052,cs),
(1752,1436,o),
(1460,1704,o),
(928,1704,cs),
(392,1704,l)
);
}
);
width = 1964;
}
);
unicode = 222;
userData = {
interface.gridadjust.original = "{'width': 1662, 'leftMargin': 224, 'rightMargin': 119}";
"interface.width-adjustments" = (
-16
);
};
},
{
color = (219,235,247,1);
glyphname = Q;
kernLeft = C;
kernRight = D;
lastChange = "2021-09-25 14:20:58 +0000";
layers = (
{
layerId = "B1F27B51-9973-4381-9301-4FE46FE1CA59";
shapes = (
{
closed = 1;
nodes = (
(1456,168,l),
(1468,152,l),
(1728,-192,l),
(1808,-192,l),
(1524,184,l),
(1512,200,l),
(1180,640,l),
(1100,640,l)
);
},
{
alignment = -1;
ref = O;
}
);
width = 2040;
},
{
layerId = "C698F293-3EC0-4A5A-A3A0-0FDB1F5CF265";
shapes = (
{
closed = 1;
nodes = (
(1318,184,l),
(1374,108,l),
(1598,-192,l),
(1870,-192,l),
(1530,260,l),
(1470,340,l),
(1242,640,l),
(970,640,l)
);
},
{
ref = O;
}
);
width = 2100;
},
{
guides = (
{
angle = 90;
pos = (876,1432);
}
);
layerId = "5C20EF92-B63D-42A8-8878-93C2863E0093";
shapes = (
{
closed = 1;
nodes = (
(1220,368,l),
(1384,132,l),
(1628,-152,l),
(2120,-152,l),
(1776,264,l),
(1512,564,l),
(1356,760,l),
(924,760,l)
);
},
{
ref = O;
}
);
width = 2244;
}
);
metricLeft = O;
metricRight = O;
unicode = 81;
userData = {
"interface.width-adjustments" = (
-16
);
};
},
{
glyphname = Q_rthook;
kernLeft = O;
kernRight = rthook;
lastChange = "2021-09-25 14:20:58 +0000";
layers = (
{
layerId = "B1F27B51-9973-4381-9301-4FE46FE1CA59";
shapes = (
{
closed = 1;
nodes = (
(1680,2048,l),
(1680,1520,l),
(1674,1520,l),
(1558,1889,o),
(1335,2076,o),
(1020,2076,cs),
(516,2076,o),
(172,1650,o),
(172,1024,cs),
(172,401,o),
(514,-28,o),
(1010,-28,cs),
(1328,-28,o),
(1556,162,o),
(1674,524,c),
(1680,524,l),
(1680,-276,ls),
(1680,-483,o),
(1757,-572,o),
(1934,-572,cs),
(1966,-572,o),
(2002,-570,o),
(2032,-566,c),
(2032,-502,l),
(2003,-506,o),
(1966,-508,o),
(1934,-508,cs),
(1794,-508,o),
(1744,-446,o),
(1744,-276,cs),
(1744,2048,l)
);
},
{
closed = 1;
nodes = (
(553,36,o),
(236,435,o),
(236,1024,cs),
(236,1612,o),
(553,2012,o),
(1020,2012,cs),
(1431,2012,o),
(1685,1636,o),
(1686,1024,cs),
(1687,406,o),
(1437,36,o),
(1020,36,cs)
);
}
);
width = 2040;
},
{
layerId = "C698F293-3EC0-4A5A-A3A0-0FDB1F5CF265";
shapes = (
{
closed = 1;
nodes = (
(1646,2048,l),
(1646,1732,l),
(1622,1732,l),
(1522,1948,o),
(1294,2076,o),
(1014,2076,cs),
(498,2076,o),
(146,1640,o),
(146,1032,cs),
(146,404,o),
(502,-32,o),
(1014,-32,cs),
(1290,-32,o),
(1518,96,o),
(1622,324,c),
(1638,324,l),
(1638,-164,ls),
(1638,-428,o),
(1814,-576,o),
(2038,-576,cs),
(2086,-576,o),
(2138,-576,o),
(2174,-564,c),
(2174,-364,l),
(2154,-368,o),
(2126,-372,o),
(2098,-372,cs),
(1970,-372,o),
(1874,-324,o),
(1874,-164,cs),
(1874,2048,l)
);
},
{
closed = 1;
nodes = (
(650,204,o),
(390,520,o),
(390,1028,cs),
(390,1504,o),
(638,1852,o),
(1018,1852,cs),
(1444,1852,o),
(1642,1479,o),
(1642,1028,cs),
(1642,566,o),
(1465,204,o),
(1014,204,cs)
);
}
);
width = 2152;
},
{
background = {
shapes = (
{
ref = O;
}
);
};
guides = (
{
pos = (-68,1024);
}
);
layerId = "5C20EF92-B63D-42A8-8878-93C2863E0093";
shapes = (
{
closed = 1;
nodes = (
(1544,2048,l),
(1544,1760,l),
(1528,1760,l),
(1429,1926,o),
(1253,2076,o),
(976,2076,cs),
(498,2076,o),
(124,1608,o),
(124,1024,cs),
(124,444,o),
(486,-28,o),
(976,-28,cs),
(1251,-28,o),
(1430,120,o),
(1528,288,c),
(1544,288,l),
(1544,-48,ls),
(1544,-500,o),
(1816,-576,o),
(2152,-576,cs),
(2280,-576,o),
(2368,-564,o),
(2428,-560,c),
(2428,-152,l),
(2384,-156,o),
(2344,-160,o),
(2304,-160,cs),
(2204,-160,o),
(2096,-140,o),
(2096,-48,cs),
(2096,2048,l)
);
},
{
closed = 1;
nodes = (
(844,456,o),
(696,656,o),
(696,1024,cs),
(696,1392,o),
(844,1592,o),
(1120,1592,cs),
(1396,1592,o),
(1544,1392,o),
(1544,1024,cs),
(1544,656,o),
(1396,456,o),
(1120,456,cs)
);
}
);
width = 2428;
}
);
metricLeft = O;
note = "Composed by O and a vertical stem with tail";
unicode = 586;
userData = {
interface.gridadjust.original = "{'width': 1998, 'leftMargin': 161, 'rightMargin': 14}";
"interface.width-adjustments" = (
-16
);
};
},
{
color = (219,235,247,1);
glyphname = R;
kernLeft = B;
kernRight = R;
lastChange = "2021-09-25 14:20:58 +0000";
layers = (
{
anchors = (
{
name = bottom;
pos = (856,0);
},
{
name = top;
pos = (828,2304);
}
);
layerId = "B1F27B51-9973-4381-9301-4FE46FE1CA59";
shapes = (
{
closed = 1;
nodes = (
(352,0,l),
(352,1984,l),
(888,1984,ls),
(1195,1984,o),
(1412,1778,o),
(1412,1464,cs),
(1412,1152,o),
(1195,948,o),
(888,948,cs),
(320,948,l),
(320,884,l),
(888,884,ls),
(1232,884,o),
(1476,1115,o),
(1476,1464,cs),
(1476,1815,o),
(1232,2048,o),
(888,2048,cs),
(288,2048,l),
(288,0,l)
);
},
{
closed = 1;
nodes = (
(996,932,l),
(1500,0,l),
(1572,0,l),
(1068,932,l)
);
}
);
width = 1668;
},
{
anchors = (
{
name = bottom;
pos = (902,0);
},
{
name = top;
pos = (866,2304);
}
);
background = {
shapes = (
{
closed = 1;
nodes = (
(496,0,l),
(496,1828,l),
(972,1828,ls),
(1244,1828,o),
(1392,1676,o),
(1392,1420,cs),
(1392,1176,o),
(1252,1024,o),
(944,1024,cs),
(400,1024,l),
(400,800,l),
(996,800,l),
(1428,0,l),
(1716,0,l),
(1252,848,l),
(1512,944,o),
(1636,1160,o),
(1636,1424,cs),
(1636,1792,o),
(1396,2048,o),
(984,2048,cs),
(248,2048,l),
(248,0,l)
);
}
);
};
guides = (
{
orientation = center;
angle = 90;
pos = (880,2112);
}
);
layerId = "C698F293-3EC0-4A5A-A3A0-0FDB1F5CF265";
shapes = (
{
closed = 1;
nodes = (
(474,0,l),
(474,1828,l),
(910,1828,ls),
(1242,1828,o),
(1370,1666,o),
(1370,1420,cs),
(1370,1174,o),
(1242,1024,o),
(914,1024,cs),
(362,1024,l),
(362,800,l),
(922,800,ls),
(1398,800,o),
(1614,1058,o),
(1614,1420,cs),
(1614,1782,o),
(1398,2048,o),
(918,2048,cs),
(226,2048,l),
(226,0,l)
);
},
{
closed = 1;
nodes = (
(910,920,l),
(1406,0,l),
(1694,0,l),
(1190,920,l)
);
}
);
width = 1756;
},
{
anchors = (
{
name = bottom;
pos = (924,0);
},
{
name = top;
pos = (880,2304);
}
);
associatedMasterId = "C698F293-3EC0-4A5A-A3A0-0FDB1F5CF265";
guides = (
{
orientation = center;
angle = 90;
pos = (924,2112);
}
);
layerId = "DE316BBE-2641-4C0D-8E2F-8ACABB428D9B";
name = "Nov 25 18, 13:05";
shapes = (
{
closed = 1;
nodes = (
(496,0,l),
(496,1828,l),
(972,1828,ls),
(1244,1828,o),
(1392,1676,o),
(1392,1420,cs),
(1392,1176,o),
(1252,1024,o),
(944,1024,cs),
(400,1024,l),
(400,800,l),
(996,800,l),
(1428,0,l),
(1716,0,l),
(1252,848,l),
(1512,944,o),
(1636,1160,o),
(1636,1424,cs),
(1636,1792,o),
(1396,2048,o),
(984,2048,cs),
(248,2048,l),
(248,0,l)
);
},
{
closed = 0;
nodes = (
(1396,800,l),
(1828,0,l),
(2116,0,l),
(1652,848,l)
);
}
);
width = 1800;
},
{
anchors = (
{
name = bottom;
pos = (960,0);
},
{
name = top;
pos = (928,2304);
}
);
background = {
shapes = (
{
closed = 1;
nodes = (
(688,0,l),
(688,1604,l),
(956,1604,ls),
(1120,1604,o),
(1216,1512,o),
(1216,1364,cs),
(1216,1212,o),
(1120,1116,o),
(956,1116,cs),
(424,1116,l),
(424,724,l),
(904,724,l),
(1268,0,l),
(1872,0,l),
(1456,808,l),
(1660,916,o),
(1800,1108,o),
(1800,1376,cs),
(1800,1800,o),
(1508,2048,o),
(1004,2048,cs),
(132,2048,l,{
name = hr00;
}),
(132,0,l)
);
}
);
};
guides = (
{
pos = (-136,1552);
},
{
angle = 90;
pos = (1296,0);
},
{
orientation = center;
angle = 90;
pos = (692,220);
}
);
layerId = "5C20EF92-B63D-42A8-8878-93C2863E0093";
shapes = (
{
closed = 1;
nodes = (
(688,0,l),
(688,1604,l),
(884,1604,ls),
(1079,1604,o),
(1196,1528,o),
(1196,1352,cs),
(1196,1177,o),
(1079,1108,o),
(884,1108,cs),
(468,1108,l),
(468,676,l),
(996,676,ls),
(1463,676,o),
(1776,911,o),
(1776,1352,cs),
(1776,1788,o),
(1471,2048,o),
(1016,2048,cs),
(132,2048,l),
(132,0,l)
);
},
{
closed = 1;
nodes = (
(740,940,l),
(1240,0,l),
(1844,0,l),
(1332,940,l)
);
}
);
width = 1880;
}
);
metricLeft = H;
unicode = 82;
userData = {
com.typemytype.robofont.guideline.magnetic.vulxOItvKZ = 5;
"interface.width-adjustments" = (
-16
);
};
},
{
color = (219,235,247,1);
glyphname = S;
kernLeft = S;
kernRight = S;
lastChange = "2021-09-25 14:20:58 +0000";
layers = (
{
anchors = (
{
name = bottom;
pos = (832,-32);
},
{
name = cedilla;
pos = (832,0);
},
{
name = top;
pos = (832,2304);
}
);
layerId = "B1F27B51-9973-4381-9301-4FE46FE1CA59";
shapes = (
{
closed = 1;
nodes = (
(1448,1536,l),
(1428,1852,o),
(1191,2080,o),
(840,2080,cs),
(490,2080,o),
(232,1854,o),
(232,1552,cs),
(232,1315,o),
(390,1149,o),
(712,1048,cs),
(944,976,ls),
(1275,873,o),
(1412,740,o),
(1412,520,cs),
(1412,230,o),
(1176,32,o),
(824,32,cs),
(486,32,o),
(268,215,o),
(248,480,c),
(184,480,l),
(204,179,o),
(450,-32,o),
(824,-32,cs),
(1212,-32,o),
(1476,199,o),
(1476,520,cs),
(1476,772,o),
(1314,931,o),
(960,1040,cs),
(728,1112,ls),
(434,1202,o),
(296,1344,o),
(296,1552,cs),
(296,1821,o),
(527,2016,o),
(840,2016,cs),
(1157,2016,o),
(1364,1816,o),
(1384,1536,c)
);
}
);
width = 1660;
},
{
anchors = (
{
name = bottom;
pos = (872,-60);
},
{
name = cedilla;
pos = (876,0);
},
{
name = top;
pos = (872,2380);
}
);
associatedMasterId = "B1F27B51-9973-4381-9301-4FE46FE1CA59";
background = {
shapes = (
{
closed = 1;
nodes = (
(1512,1612,l),
(1496,1866,o),
(1226,2076,o),
(892,2076,cs),
(555,2076,o),
(268,1868,o),
(268,1552,cs),
(267,1302,o),
(454,1147,o),
(748,1048,cs),
(1028,960,ls),
(1238,892,o),
(1498,804,o),
(1496,536,cs,{
name = hr00;
}),
(1498,236,o),
(1208,42,o),
(860,44,cs),
(597,42,o),
(327,154,o),
(300,412,c),
(208,412,l),
(245,184,o),
(472,-43,o),
(856,-44,cs),
(1299,-43,o),
(1541,238,o),
(1540,528,cs),
(1541,954,o),
(1070,1021,o),
(1004,1052,cs),
(772,1120,ls),
(644,1160,o),
(305,1254,o),
(304,1548,cs),
(302,1807,o),
(545,1998,o),
(876,2000,cs),
(1166,1998,o),
(1415,1856,o),
(1448,1612,c)
);
}
);
};
layerId = "9C280ED6-539A-47A5-81A9-2BEBEE9FA0FB";
name = "Nov 25 18, 13:19";
shapes = (
{
closed = 0;
nodes = (
(1460,1540,l),
(1442,1794,o),
(1205,1969,o),
(884,1968,cs),
(551,1969,o),
(307,1783,o),
(308,1512,cs),
(307,1265,o),
(529,1143,o),
(764,1076,cs),
(996,1012,ls),
(1209,955,o),
(1487,855,o),
(1488,560,cs),
(1487,283,o),
(1245,79,o),
(868,80,cs),
(525,79,o),
(281,247,o),
(260,532,c)
);
}
);
width = 1748;
},
{
anchors = (
{
name = bottom;
pos = (872,-60);
},
{
name = cedilla;
pos = (876,0);
},
{
name = top;
pos = (872,2380);
}
);
associatedMasterId = "B1F27B51-9973-4381-9301-4FE46FE1CA59";
background = {
shapes = (
{
closed = 1;
nodes = (
(1512,1612,l),
(1496,1866,o),
(1226,2076,o),
(892,2076,cs),
(555,2076,o),
(268,1868,o),
(268,1552,cs),
(267,1302,o),
(454,1147,o),
(748,1048,cs),
(1028,960,ls),
(1238,892,o),
(1498,804,o),
(1496,536,cs,{
name = hr00;
}),
(1498,236,o),
(1208,42,o),
(860,44,cs),
(597,42,o),
(327,154,o),
(300,412,c),
(208,412,l),
(245,184,o),
(472,-43,o),
(856,-44,cs),
(1299,-43,o),
(1541,238,o),
(1540,528,cs),
(1541,954,o),
(1070,1021,o),
(1004,1052,cs),
(772,1120,ls),
(644,1160,o),
(305,1254,o),
(304,1548,cs),
(302,1807,o),
(545,1998,o),
(876,2000,cs),
(1166,1998,o),
(1415,1856,o),
(1448,1612,c)
);
}
);
};
layerId = "48736875-43E9-423A-93EA-8ACE2815DF1A";
name = "Nov 25 18, 13:23";
shapes = (
{
closed = 0;
nodes = (
(1460,1536,l),
(1460,1584,l),
(1442,1858,o),
(1205,2044,o),
(884,2044,cs),
(551,2044,o),
(307,1846,o),
(308,1556,cs),
(307,1294,o),
(529,1164,o),
(764,1092,cs),
(996,1024,ls),
(1209,965,o),
(1487,858,o),
(1488,544,cs),
(1487,249,o),
(1245,32,o),
(868,32,cs),
(525,32,o),
(281,211,o),
(260,512,c),
(260,528,l)
);
}
);
width = 1748;
},
{
anchors = (
{
name = bottom;
pos = (878,-36);
},
{
name = cedilla;
pos = (878,0);
},
{
name = top;
pos = (874,2304);
}
);
guides = (
{
pos = (16,528);
},
{
orientation = center;
angle = 90;
pos = (1248,-72);
}
);
layerId = "C698F293-3EC0-4A5A-A3A0-0FDB1F5CF265";
shapes = (
{
closed = 1;
nodes = (
(1586,1536,l),
(1575,1845,o),
(1290,2076,o),
(894,2076,cs),
(502,2076,o),
(194,1848,o),
(194,1504,cs),
(194,1228,o),
(394,1064,o),
(714,972,cs),
(966,900,ls),
(1182,840,o),
(1374,764,o),
(1374,560,cs),
(1374,336,o),
(1158,188,o),
(874,188,cs),
(630,188,o),
(414,296,o),
(394,528,c),
(138,528,l),
(162,192,o),
(434,-36,o),
(874,-36,cs),
(1346,-36,o),
(1614,224,o),
(1614,556,cs),
(1614,940,o),
(1250,1064,o),
(1038,1120,cs),
(830,1176,ls),
(678,1216,o),
(434,1296,o),
(434,1516,cs),
(434,1712,o),
(614,1856,o),
(886,1856,cs),
(1134,1856,o),
(1322,1738,o),
(1346,1536,c)
);
}
);
width = 1752;
},
{
anchors = (
{
name = bottom;
pos = (948,0);
},
{
name = cedilla;
pos = (944,0);
},
{
name = top;
pos = (940,2304);
}
);
guides = (
{
pos = (-136,764);
},
{
pos = (-136,1552);
},
{
orientation = center;
angle = 90;
pos = (1024,-132);
}
);
layerId = "5C20EF92-B63D-42A8-8878-93C2863E0093";
shapes = (
{
closed = 1;
nodes = (
(1768,1408,l),
(1766,1810,o),
(1456,2076,o),
(960,2076,cs),
(473,2076,o),
(129,1814,o),
(132,1424,cs),
(131,1104,o),
(353,926,o),
(716,848,cs),
(920,804,ls),
(1148,754,o),
(1226,697,o),
(1228,604,cs,{
name = hr00;
}),
(1226,503,o),
(1134,432,o),
(956,432,cs),
(743,432,o),
(617,532,o),
(608,720,c),
(80,720,l),
(82,206,o),
(430,-24,o),
(964,-24,cs),
(1483,-24,o),
(1794,200,o),
(1796,604,cs),
(1794,916,o),
(1608,1135,o),
(1156,1232,cs),
(988,1268,ls),
(794,1309,o),
(707,1366,o),
(712,1464,cs),
(713,1554,o),
(788,1620,o),
(960,1620,cs),
(1140,1620,o),
(1225,1541,o),
(1236,1408,c)
);
}
);
width = 1876;
}
);
note = "recipe: use stroke + offset curve filter with 32, no autostroke";
unicode = 83;
userData = {
com.typemytype.robofont.guideline.magnetic.yXeOBXqbc8 = 5;
"interface.width-adjustments" = (
-16
);
};
},
{
glyphname = Germandbls;
kernLeft = B;
kernRight = S;
lastChange = "2021-09-25 14:20:58 +0000";
layers = (
{
layerId = "B1F27B51-9973-4381-9301-4FE46FE1CA59";
shapes = (
{
closed = 1;
nodes = (
(352,0,l),
(352,1524,ls),
(352,1828,o),
(519,2012,o),
(796,2012,cs),
(953,2012,o),
(1117,1948,o),
(1250,1834,c),
(744,1108,l),
(744,1044,l),
(774,1044,ls),
(1203,1044,o),
(1408,887,o),
(1408,560,cs),
(1408,258,o),
(1206,64,o),
(892,64,cs),
(786,64,o),
(700,78,o),
(636,104,c),
(614,44,l),
(696,16,o),
(784,0,o),
(876,0,cs),
(1244,0,o),
(1470,217,o),
(1470,570,cs),
(1470,915,o),
(1240,1102,o),
(818,1102,c),
(1330,1836,l),
(1199,1986,o),
(1002,2076,o),
(806,2076,cs),
(490,2076,o),
(288,1867,o),
(288,1540,cs),
(288,0,l)
);
}
);
width = 1654;
},
{
layerId = "C698F293-3EC0-4A5A-A3A0-0FDB1F5CF265";
shapes = (
{
closed = 1;
nodes = (
(474,0,l),
(474,1360,ls),
(474,1616,o),
(554,1856,o),
(866,1856,cs),
(1034,1856,o),
(1142,1788,o),
(1230,1728,c),
(822,1172,l),
(822,956,l),
(1022,956,ls),
(1106,956,o),
(1462,956,o),
(1462,580,cs),
(1462,340,o),
(1314,192,o),
(1054,192,cs),
(922,192,o),
(822,228,o),
(746,260,c),
(666,40,l),
(798,-8,o),
(926,-28,o),
(1050,-28,cs),
(1450,-28,o),
(1738,184,o),
(1738,576,cs),
(1738,928,o),
(1506,1144,o),
(1098,1168,c),
(1554,1768,l),
(1370,1936,o),
(1154,2076,o),
(854,2076,cs),
(438,2076,o),
(226,1836,o),
(226,1360,cs),
(226,0,l)
);
}
);
width = 1876;
},
{
guides = (
{
pos = (-140,2092);
}
);
layerId = "5C20EF92-B63D-42A8-8878-93C2863E0093";
shapes = (
{
closed = 1;
nodes = (
(688,0,l),
(688,1340,ls),
(688,1534,o),
(776,1652,o),
(920,1652,cs),
(1059,1652,o),
(1201,1605,o),
(1296,1528,c),
(944,1188,l),
(944,900,l),
(1124,900,ls),
(1348,900,o),
(1484,788,o),
(1484,604,cs),
(1484,472,o),
(1375,392,o),
(1196,392,cs),
(1110,392,o),
(996,416,o),
(896,456,c),
(752,64,l),
(876,10,o),
(1081,-28,o),
(1248,-28,cs),
(1691,-28,o),
(2004,234,o),
(2004,604,cs),
(2004,894,o),
(1790,1141,o),
(1488,1200,c),
(1944,1692,l),
(1641,1917,o),
(1216,2076,o),
(920,2076,cs),
(458,2076,o),
(132,1771,o),
(132,1340,cs),
(132,0,l)
);
}
);
width = 2084;
}
);
metricLeft = B;
metricRight = S;
unicode = 7838;
userData = {
interface.gridadjust.original = "{'width': 1819, 'leftMargin': 188, 'rightMargin': 122}";
"interface.width-adjustments" = (
-16
);
};
},
{
color = (219,235,247,1);
glyphname = T;
kernLeft = T;
kernRight = T;
lastChange = "2021-09-25 14:20:58 +0000";
layers = (
{
anchors = (
{
name = bottom;
pos = (832,0);
},
{
name = cedilla;
pos = (832,-8);
},
{
name = cross;
pos = (832,1056);
},
{
name = cyrtic;
pos = (892,8);
},
{
name = right;
pos = (848,0);
},
{
name = top;
pos = (832,2304);
}
);
layerId = "B1F27B51-9973-4381-9301-4FE46FE1CA59";
shapes = (
{
closed = 1;
nodes = (
(800,1984,l),
(800,0,l),
(864,0,l),
(864,1984,l),
(1524,1984,l),
(1524,2048,l),
(140,2048,l),
(140,1984,l)
);
}
);
width = 1664;
},
{
anchors = (
{
name = bottom;
pos = (882,0);
},
{
name = cedilla;
pos = (914,0);
},
{
name = cross;
pos = (882,1056);
},
{
name = cyrtic;
pos = (1118,88);
},
{
name = right;
pos = (938,0);
},
{
name = top;
pos = (882,2304);
}
);
guides = (
{
orientation = center;
angle = 90;
pos = (1220,176);
}
);
layerId = "C698F293-3EC0-4A5A-A3A0-0FDB1F5CF265";
shapes = (
{
closed = 1;
nodes = (
(758,1828,l),
(758,0,l),
(1006,0,l),
(1006,1828,l),
(1650,1828,l),
(1650,2048,l),
(114,2048,l),
(114,1828,l)
);
}
);
width = 1764;
},
{
anchors = (
{
name = bottom;
pos = (964,0);
},
{
name = cedilla;
pos = (956,0);
},
{
name = cross;
pos = (964,916);
},
{
name = cyrtic;
pos = (1480,224);
},
{
name = right;
pos = (1176,0);
},
{
name = top;
pos = (968,2304);
}
);
guides = (
{
orientation = center;
angle = 90;
pos = (824,956);
}
);
layerId = "5C20EF92-B63D-42A8-8878-93C2863E0093";
shapes = (
{
closed = 1;
nodes = (
(692,1600,l),
(692,0,l),
(1240,0,l),
(1240,1600,l),
(1856,1600,l),
(1856,2048,l),
(76,2048,l),
(76,1600,l)
);
}
);
width = 1932;
}
);
unicode = 84;
userData = {
"interface.width-adjustments" = (
-16
);
};
},
{
glyphname = Thook;
kernLeft = T;
kernRight = T;
lastChange = "2021-09-25 14:20:58 +0000";
layers = (
{
layerId = "B1F27B51-9973-4381-9301-4FE46FE1CA59";
shapes = (
{
closed = 1;
nodes = (
(412,2048,ls),
(236,2048,o),
(141,1947,o),
(140,1760,cs),
(140,1688,l),
(204,1688,l),
(204,1724,ls),
(204,1912,o),
(263,1984,o),
(416,1984,cs),
(592,1984,l,{
name = hr00;
}),
(592,2048,l)
);
},
{
closed = 1;
nodes = (
(480,2048,l),
(480,1984,l),
(800,1984,l),
(800,0,l),
(864,0,l),
(864,1984,l),
(1524,1984,l),
(1524,2048,l)
);
}
);
width = 1664;
},
{
background = {
shapes = (
{
pos = (112,0);
ref = T;
}
);
};
layerId = "C698F293-3EC0-4A5A-A3A0-0FDB1F5CF265";
shapes = (
{
closed = 1;
nodes = (
(522,2048,ls),
(270,2048,o),
(114,1884,o),
(114,1644,cs),
(114,1524,l),
(338,1524,l),
(338,1600,ls),
(338,1716,o),
(382,1828,o),
(522,1828,cs),
(994,1828,l),
(994,2048,l)
);
},
{
closed = 1;
nodes = (
(674,2048,l),
(674,1828,l),
(870,1828,l),
(870,0,l),
(1118,0,l),
(1118,1828,l),
(1762,1828,l),
(1762,2048,l)
);
}
);
width = 1876;
},
{
background = {
shapes = (
{
pos = (88,0);
ref = T;
}
);
};
layerId = "5C20EF92-B63D-42A8-8878-93C2863E0093";
shapes = (
{
closed = 1;
nodes = (
(740,2048,ls),
(302,2048,o),
(76,1820,o),
(76,1436,cs),
(76,1188,l),
(524,1188,l),
(524,1336,ls),
(524,1464,o),
(558,1600,o),
(740,1600,cs),
(1052,1600,l),
(1052,2048,l)
);
},
{
closed = 1;
nodes = (
(764,2048,l),
(764,1600,l),
(780,1600,l),
(780,0,l),
(1328,0,l),
(1328,1600,l),
(1944,1600,l),
(1944,2048,l)
);
}
);
width = 2020;
}
);
metricLeft = T;
metricRight = T;
note = "!post:RemoveOverlap";
unicode = 428;
userData = {
interface.gridadjust.original = "{'width': 1772, 'leftMargin': 41, 'rightMargin': 63}";
"interface.width-adjustments" = (
-16
);
};
},
{
glyphname = Tonefive;
lastChange = "2021-09-25 14:20:58 +0000";
layers = (
{
layerId = "B1F27B51-9973-4381-9301-4FE46FE1CA59";
shapes = (
{
closed = 1;
nodes = (
(52,2048,l),
(52,1984,l),
(384,1984,l),
(384,2048,l)
);
},
{
alignment = -1;
pos = (-48,0);
ref = five;
}
);
width = 1506;
},
{
associatedMasterId = "B1F27B51-9973-4381-9301-4FE46FE1CA59";
layerId = "64AB79B3-1332-4181-BA6A-2F36CD0AA979";
name = "May 22, 21 14:06";
shapes = (
{
closed = 1;
nodes = (
(52,2048,l),
(52,1984,l),
(384,1984,l),
(384,2048,l)
);
},
{
alignment = -1;
pos = (-48,0);
ref = five;
}
);
width = 1506;
},
{
layerId = "C698F293-3EC0-4A5A-A3A0-0FDB1F5CF265";
shapes = (
{
closed = 1;
nodes = (
(70,2048,l),
(70,1828,l),
(514,1828,l),
(514,2048,l,{
name = hr00;
})
);
},
{
ref = five;
}
);
width = 1636;
},
{
layerId = "5C20EF92-B63D-42A8-8878-93C2863E0093";
shapes = (
{
closed = 1;
nodes = (
(104,2048,l),
(104,1604,l),
(548,1604,l),
(548,2048,l)
);
},
{
pos = (80,0);
ref = five;
}
);
width = 1864;
}
);
unicode = 444;
userData = {
interface.gridadjust.original = "{'width': 1587, 'leftMargin': 89, 'rightMargin': 43}";
"interface.width-adjustments" = (
-16
);
};
},
{
glyphname = Tonesix;
kernLeft = T;
lastChange = "2022-03-25 14:32:52 +0000";
layers = (
{
layerId = "B1F27B51-9973-4381-9301-4FE46FE1CA59";
shapes = (
{
closed = 1;
nodes = (
(140,2048,l),
(140,1984,l),
(670,1984,l),
(670,2048,l)
);
},
{
closed = 1;
nodes = (
(642,1004,l),
(1374,1004,ls),
(1682,1004,o),
(1883,828,o),
(1882,560,cs),
(1881,247,o),
(1694,64,o),
(1374,64,cs),
(670,64,l),
(670,2048,l),
(606,2048,l),
(606,0,l),
(1374,0,ls),
(1727,0,o),
(1946,213,o),
(1946,556,cs),
(1946,867,o),
(1721,1068,o),
(1374,1068,cs),
(642,1068,l)
);
}
);
width = 2094;
},
{
layerId = "C698F293-3EC0-4A5A-A3A0-0FDB1F5CF265";
shapes = (
{
closed = 1;
nodes = (
(114,2048,l),
(114,1828,l),
(842,1828,l),
(842,2048,l)
);
},
{
closed = 1;
nodes = (
(778,968,l),
(1362,968,l),
(1642,968,o),
(1798,804,o),
(1798,608,c),
(1798,408,o),
(1642,216,o),
(1362,216,c),
(842,216,l),
(842,2048,l),
(594,2048,l),
(594,0,l),
(1362,0,l),
(1802,0,o),
(2042,248,o),
(2042,604,c),
(2042,960,o),
(1802,1188,o),
(1362,1188,c),
(778,1188,l)
);
}
);
width = 2164;
},
{
layerId = "5C20EF92-B63D-42A8-8878-93C2863E0093";
shapes = (
{
closed = 1;
nodes = (
(76,2048,l),
(76,1600,l),
(1136,1600,l),
(1136,2048,l)
);
},
{
closed = 1;
nodes = (
(920,936,l),
(1344,936,l),
(1544,936,o),
(1652,832,o),
(1652,692,c),
(1652,544,o),
(1544,436,o),
(1344,436,c),
(1136,436,l),
(1136,2048,l),
(580,2048,l),
(580,0,l),
(1344,0,l),
(1860,0,o),
(2204,280,o),
(2204,688,c),
(2204,1096,o),
(1860,1360,o),
(1344,1360,c),
(920,1360,l)
);
}
);
width = 2296;
}
);
metricLeft = T;
metricRight = b;
unicode = 388;
userData = {
interface.gridadjust.original = "{'width': 1917, 'leftMargin': 136, 'rightMargin': 157}";
"interface.width-adjustments" = (
-16
);
};
},
{
glyphname = Tonetwo;
kernLeft = S;
kernRight = B;
lastChange = "2021-09-25 14:20:58 +0000";
layers = (
{
anchors = (
{
name = bottom;
pos = (828,-32);
},
{
name = cedilla;
pos = (828,0);
},
{
name = top;
pos = (828,2304);
}
);
layerId = "B1F27B51-9973-4381-9301-4FE46FE1CA59";
shapes = (
{
closed = 1;
nodes = (
(296,1816,o),
(503,2016,o),
(820,2016,cs),
(1133,2016,o),
(1364,1821,o),
(1364,1552,cs),
(1364,1344,o),
(1226,1202,o),
(932,1112,cs),
(700,1040,ls),
(346,931,o),
(184,772,o),
(184,520,cs),
(184,199,o),
(448,-32,o),
(836,-32,cs),
(1210,-32,o),
(1456,179,o),
(1476,480,c),
(1412,480,l),
(1392,215,o),
(1174,32,o),
(836,32,cs),
(484,32,o),
(248,230,o),
(248,520,cs),
(248,740,o),
(385,873,o),
(716,976,cs),
(948,1048,ls),
(1270,1149,o),
(1428,1315,o),
(1428,1552,cs),
(1428,1854,o),
(1170,2080,o),
(820,2080,cs),
(469,2080,o),
(232,1852,o),
(212,1536,c),
(276,1536,l)
);
}
);
width = 1660;
},
{
anchors = (
{
name = bottom;
pos = (874,-36);
},
{
name = cedilla;
pos = (874,0);
},
{
name = top;
pos = (878,2304);
}
);
layerId = "C698F293-3EC0-4A5A-A3A0-0FDB1F5CF265";
shapes = (
{
closed = 1;
nodes = (
(430,1738,o),
(618,1856,o),
(866,1856,cs),
(1138,1856,o),
(1318,1712,o),
(1318,1516,cs),
(1318,1296,o),
(1074,1216,o),
(922,1176,cs),
(714,1120,ls),
(502,1064,o),
(138,940,o),
(138,556,cs),
(138,224,o),
(406,-36,o),
(878,-36,cs),
(1318,-36,o),
(1590,192,o),
(1614,528,c),
(1358,528,l),
(1338,296,o),
(1122,188,o),
(878,188,cs),
(594,188,o),
(378,336,o),
(378,560,cs),
(378,764,o),
(570,840,o),
(786,900,cs),
(1038,972,ls),
(1358,1064,o),
(1558,1228,o),
(1558,1504,cs),
(1558,1848,o),
(1250,2076,o),
(858,2076,cs),
(462,2076,o),
(177,1845,o),
(166,1536,c),
(406,1536,l)
);
}
);
width = 1752;
},
{
anchors = (
{
name = bottom;
pos = (928,0);
},
{
name = cedilla;
pos = (932,0);
},
{
name = top;
pos = (936,2304);
}
);
layerId = "5C20EF92-B63D-42A8-8878-93C2863E0093";
shapes = (
{
closed = 1;
nodes = (
(651,1541,o),
(736,1620,o),
(916,1620,cs),
(1088,1620,o),
(1163,1554,o),
(1164,1464,cs),
(1169,1366,o),
(1082,1309,o),
(888,1268,cs),
(720,1232,ls),
(268,1135,o),
(82,916,o),
(80,604,cs),
(82,200,o),
(393,-24,o),
(912,-24,cs),
(1446,-24,o),
(1794,206,o),
(1796,720,c),
(1268,720,l),
(1259,532,o),
(1133,432,o),
(920,432,cs),
(742,432,o),
(650,503,o),
(648,604,cs,{
name = hr00;
}),
(650,697,o),
(728,754,o),
(956,804,cs),
(1160,848,ls),
(1523,926,o),
(1745,1104,o),
(1744,1424,cs),
(1747,1814,o),
(1403,2076,o),
(916,2076,cs),
(420,2076,o),
(110,1810,o),
(108,1408,c),
(640,1408,l)
);
}
);
width = 1876;
}
);
metricLeft = S;
metricRight = S;
unicode = 423;
userData = {
interface.gridadjust.original = "{'width': 1672.0, 'leftMargin': 105, 'rightMargin': 109.0}";
"interface.width-adjustments" = (
-16
);
};
},
{
glyphname = Trthook;
kernLeft = T;
kernRight = T;
lastChange = "2021-09-25 14:20:58 +0000";
layers = (
{
layerId = "B1F27B51-9973-4381-9301-4FE46FE1CA59";
shapes = (
{
closed = 1;
nodes = (
(800,0,l),
(800,-232,ls),
(800,-454,o),
(898,-572,o),
(1072,-572,c),
(1140,-572,l),
(1140,-508,l),
(1078,-508,l),
(936,-508,o),
(864,-420,o),
(864,-232,cs),
(864,0,l)
);
},
{
alignment = -1;
ref = T;
}
);
width = 1664;
},
{
layerId = "C698F293-3EC0-4A5A-A3A0-0FDB1F5CF265";
shapes = (
{
closed = 1;
nodes = (
(758,0,l),
(758,-168,ls),
(758,-432,o),
(962,-576,o),
(1186,-576,c),
(1322,-576,l),
(1322,-356,l),
(1246,-356,l),
(1118,-356,o),
(1006,-324,o),
(1006,-164,cs),
(1006,0,l)
);
},
{
ref = T;
}
);
width = 1764;
},
{
layerId = "5C20EF92-B63D-42A8-8878-93C2863E0093";
shapes = (
{
closed = 1;
nodes = (
(692,0,l),
(692,-44,ls),
(692,-528,o),
(1002,-576,o),
(1296,-576,c),
(1536,-576,l),
(1536,-164,l),
(1444,-164,l),
(1346,-164,o),
(1240,-140,o),
(1240,-48,cs),
(1240,0,l)
);
},
{
ref = T;
}
);
width = 1932;
}
);
metricLeft = T;
metricRight = T;
unicode = 430;
userData = {
interface.gridadjust.original = "{'width': 1680, 'leftMargin': 67, 'rightMargin': 63}";
"interface.width-adjustments" = (
-16
);
};
},
{
color = (219,235,247,1);
glyphname = U;
kernLeft = U;
kernRight = J;
lastChange = "2021-09-25 14:20:58 +0000";
layers = (
{
anchors = (
{
name = bottom;
pos = (1024,-32);
},
{
name = ogonek;
pos = (1110,0);
},
{
name = right;
pos = (1108,0);
},
{
name = top;
pos = (1024,2304);
}
);
layerId = "B1F27B51-9973-4381-9301-4FE46FE1CA59";
shapes = (
{
closed = 1;
nodes = (
(1696,692,ls),
(1696,313,o),
(1410,32,o),
(1024,32,cs),
(638,32,o),
(352,313,o),
(352,692,cs),
(352,2048,l),
(288,2048,l),
(288,692,ls),
(286,278,o),
(605,-32,o),
(1024,-32,cs),
(1445,-32,o),
(1760,277,o),
(1760,692,cs),
(1760,2048,l),
(1696,2048,l)
);
}
);
width = 2048;
},
{
anchors = (
{
name = bottom;
pos = (1022,-28);
},
{
name = ogonek;
pos = (1218,4);
},
{
name = right;
pos = (1138,0);
},
{
name = top;
pos = (1022,2304);
}
);
guides = (
{
orientation = center;
angle = 90;
pos = (992,2084);
}
);
layerId = "C698F293-3EC0-4A5A-A3A0-0FDB1F5CF265";
shapes = (
{
closed = 1;
nodes = (
(1570,712,ls),
(1570,412,o),
(1364,196,o),
(1022,196,cs),
(680,196,o),
(474,412,o),
(474,712,cs),
(474,2048,l),
(226,2048,l),
(226,692,ls),
(226,272,o),
(540,-36,o),
(1022,-36,cs),
(1504,-36,o),
(1818,272,o),
(1818,692,cs),
(1818,2048,l),
(1570,2048,l)
);
}
);
width = 2044;
},
{
anchors = (
{
name = bottom;
pos = (1016,12);
},
{
name = ogonek;
pos = (1320,0);
},
{
name = right;
pos = (1192,0);
},
{
name = top;
pos = (1016,2304);
}
);
background = {
shapes = (
{
closed = 1;
nodes = (
(726,1994,l),
(142,1994,l),
(142,718,ls),
(142,264,o),
(492,-24,o),
(1016,-24,cs),
(1540,-24,o),
(1892,264,o),
(1892,718,cs),
(1892,1994,l),
(1308,1994,l),
(1308,782,ls),
(1308,572,o),
(1204,458,o),
(1016,458,cs),
(828,458,o),
(726,572,o),
(726,782,cs)
);
}
);
};
guides = (
{
pos = (-136,1240);
},
{
pos = (-136,764);
},
{
pos = (-136,1552);
},
{
orientation = center;
angle = 90;
pos = (884,564);
}
);
layerId = "5C20EF92-B63D-42A8-8878-93C2863E0093";
shapes = (
{
closed = 1;
nodes = (
(1344,784,ls),
(1344,593,o),
(1207,456,o),
(1016,456,cs),
(825,456,o),
(688,593,o),
(688,784,cs),
(688,2048,l),
(132,2048,l),
(132,736,ls),
(132,268,o),
(486,-24,o),
(1016,-24,cs),
(1542,-24,o),
(1900,268,o),
(1900,736,cs),
(1900,2048,l),
(1344,2048,l)
);
}
);
width = 2032;
}
);
metricLeft = H;
metricRight = H;
unicode = 85;
userData = {
com.typemytype.robofont.guideline.magnetic.icXM2D4lH7 = 5;
"interface.width-adjustments" = (
-16
);
};
},
{
glyphname = Uhorn;
kernLeft = U;
kernRight = T;
lastChange = "2021-09-25 14:20:58 +0000";
layers = (
{
layerId = "B1F27B51-9973-4381-9301-4FE46FE1CA59";
shapes = (
{
closed = 1;
nodes = (
(2027,1985,o),
(1961,1897,o),
(1752,1844,c),
(1752,1780,l),
(1996,1832,o),
(2093,1952,o),
(2092,2204,c),
(2028,2204,l)
);
},
{
alignment = -1;
ref = U;
}
);
width = 2232;
},
{
guides = (
{
angle = 90;
pos = (992,244);
}
);
layerId = "C698F293-3EC0-4A5A-A3A0-0FDB1F5CF265";
shapes = (
{
closed = 1;
nodes = (
(2046,1908,o),
(1970,1768,o),
(1690,1768,c),
(1690,1572,l),
(2114,1572,o),
(2278,1780,o),
(2278,2172,c),
(2046,2172,l)
);
},
{
ref = U;
}
);
width = 2392;
},
{
layerId = "5C20EF92-B63D-42A8-8878-93C2863E0093";
shapes = (
{
closed = 1;
nodes = (
(2080,1824,o),
(2084,1652,o),
(1760,1652,c),
(1760,1408,l),
(2260,1408,o),
(2384,1668,o),
(2384,2088,c),
(2080,2088,l)
);
},
{
ref = U;
}
);
width = 2460;
}
);
metricLeft = U;
metricRight = T;
unicode = 431;
userData = {
com.typemytype.robofont.guideline.magnetic.w9xhz5LEo8 = 5;
interface.gridadjust.original = "{'width': 1968, 'leftMargin': 256, 'rightMargin': -199}";
};
},
{
glyphname = Upsilon2;
lastChange = "2021-09-25 14:20:58 +0000";
layers = (
{
layerId = "B1F27B51-9973-4381-9301-4FE46FE1CA59";
shapes = (
{
closed = 1;
nodes = (
(175,408,o),
(535,-28,o),
(1016,-28,cs),
(1500,-28,o),
(1857,405,o),
(1856,1000,cs),
(1855,1436,o),
(1676,1764,o),
(1276,1968,c),
(1276,1984,l),
(1856,1984,l),
(1856,2048,l),
(1212,2048,l),
(1212,1956,l),
(1538,1783,o),
(1794,1494,o),
(1792,1004,cs),
(1790,461,o),
(1481,38,o),
(1016,36,cs),
(554,34,o),
(238,461,o),
(240,1004,cs),
(242,1498,o),
(492,1782,o),
(820,1956,c),
(820,2048,l),
(176,2048,l),
(176,1984,l),
(756,1984,l),
(756,1968,l),
(358,1764,o),
(177,1433,o),
(176,1000,cs)
);
}
);
width = 2032;
},
{
layerId = "C698F293-3EC0-4A5A-A3A0-0FDB1F5CF265";
shapes = (
{
closed = 1;
nodes = (
(146,384,o),
(522,-28,o),
(1050,-28,cs),
(1578,-28,o),
(1954,384,o),
(1954,968,cs),
(1954,1356,o),
(1790,1644,o),
(1526,1812,c),
(1526,1828,l),
(1954,1828,l),
(1954,2048,l),
(1226,2048,l),
(1226,1768,l),
(1490,1656,o),
(1714,1352,o),
(1714,968,cs),
(1714,540,o),
(1438,204,o),
(1050,204,cs),
(662,204,o),
(386,540,o),
(386,968,cs),
(386,1352,o),
(610,1656,o),
(874,1768,c),
(874,2048,l),
(146,2048,l),
(146,1828,l),
(574,1828,l),
(574,1812,l),
(310,1640,o),
(146,1356,o),
(146,968,cs)
);
}
);
width = 2100;
},
{
layerId = "5C20EF92-B63D-42A8-8878-93C2863E0093";
shapes = (
{
closed = 1;
nodes = (
(100,364,o),
(520,-28,o),
(1112,-28,cs),
(1704,-28,o),
(2124,364,o),
(2124,916,c),
(2124,1228,o),
(1988,1448,o),
(1772,1584,c),
(1772,1600,l),
(2124,1600,l),
(2124,2048,l),
(1256,2048,l),
(1256,1488,l),
(1440,1416,o),
(1556,1212,o),
(1556,972,cs),
(1556,672,o),
(1372,460,o),
(1112,460,cs),
(852,460,o),
(668,672,o),
(668,972,c),
(668,1212,o),
(784,1416,o),
(968,1488,c),
(968,2048,l),
(100,2048,l),
(100,1600,l),
(452,1600,l),
(452,1584,l),
(236,1448,o),
(100,1228,o),
(100,916,cs)
);
}
);
width = 2224;
}
);
unicode = 433;
userData = {
interface.gridadjust.original = "{'width': 1871, 'leftMargin': 164, 'rightMargin': 163}";
"interface.width-adjustments" = (
-16
);
};
},
{
glyphname = Utildeacute;
kernLeft = U;
kernRight = J;
lastChange = "2021-09-25 14:20:58 +0000";
layers = (
{
layerId = "B1F27B51-9973-4381-9301-4FE46FE1CA59";
shapes = (
{
ref = U;
},
{
pos = (1568,0);
ref = tildeacutecomb.uc;
}
);
width = 2048;
},
{
background = {
shapes = (
{
closed = 1;
nodes = (
(504,2048,l),
(256,2048,l),
(256,748,ls),
(256,323,o),
(550,17,o),
(1044,16,cs),
(1534,15,o),
(1832,323,o),
(1832,748,cs),
(1832,2048,l),
(1584,2048,l),
(1584,764,ls),
(1584,463,o),
(1386,246,o),
(1044,248,cs),
(698,250,o),
(504,463,o),
(504,764,cs)
);
},
{
closed = 1;
nodes = (
(1419,2234,o),
(1545,2378,o),
(1544,2560,c),
(1360,2560,l),
(1352,2454,o),
(1295,2408,o),
(1228,2408,cs),
(1081,2408,o),
(1083,2584,o),
(852,2584,cs),
(665,2584,o),
(539,2447,o),
(540,2252,c),
(728,2252,l),
(731,2353,o),
(777,2406,o),
(856,2408,cs),
(1004,2412,o),
(1001,2229,o),
(1236,2232,cs)
);
},
{
closed = 1;
nodes = (
(1008,2640,l),
(1268,2640,l),
(1608,2944,l),
(1308,2944,l)
);
}
);
};
layerId = "C698F293-3EC0-4A5A-A3A0-0FDB1F5CF265";
shapes = (
{
ref = U;
},
{
pos = (1546,0);
ref = tildeacutecomb.uc;
}
);
width = 2044;
},
{
background = {
shapes = (
{
closed = 1;
nodes = (
(728,2048,l),
(148,2048,l),
(148,772,ls),
(148,318,o),
(496,30,o),
(1020,28,cs),
(1544,26,o),
(1896,318,o),
(1896,772,cs),
(1896,2048,l),
(1312,2048,l),
(1312,836,ls),
(1312,626,o),
(1208,512,o),
(1020,512,cs),
(832,512,o),
(728,626,o),
(728,836,cs)
);
},
{
closed = 1;
nodes = (
(1408,2176,o),
(1563,2329,o),
(1564,2588,c),
(1288,2588,l),
(1283,2501,o),
(1255,2440,o),
(1192,2440,cs),
(1097,2440,o),
(1020,2606,o),
(820,2608,cs),
(632,2610,o),
(477,2461,o),
(476,2204,c),
(752,2204,l),
(757,2276,o),
(785,2342,o),
(848,2344,cs),
(943,2347,o),
(1020,2176,o),
(1220,2176,cs)
);
},
{
closed = 1;
nodes = (
(808,2712,l),
(1200,2712,l),
(1528,3096,l),
(1084,3096,l)
);
}
);
};
layerId = "5C20EF92-B63D-42A8-8878-93C2863E0093";
shapes = (
{
ref = U;
},
{
pos = (1584,0);
ref = tildeacutecomb.uc;
}
);
width = 2032;
}
);
unicode = 7800;
},
{
color = (219,235,247,1);
glyphname = V;
kernLeft = V;
kernRight = V;
lastChange = "2021-09-25 14:20:58 +0000";
layers = (
{
anchors = (
{
name = bottom;
pos = (836,0);
},
{
name = top;
pos = (836,2304);
}
);
layerId = "B1F27B51-9973-4381-9301-4FE46FE1CA59";
shapes = (
{
closed = 1;
nodes = (
(60,2048,l),
(792,0,l),
(880,0,l),
(1612,2048,l),
(1544,2048,l),
(840,80,l),
(832,80,l),
(128,2048,l)
);
}
);
width = 1672;
},
{
anchors = (
{
name = bottom;
pos = (930,0);
},
{
name = top;
pos = (930,2304);
}
);
guides = (
{
orientation = center;
angle = 90;
pos = (900,476);
},
{
angle = 90;
pos = (268,2088);
},
{
angle = 90;
pos = (1508,2196);
}
);
layerId = "C698F293-3EC0-4A5A-A3A0-0FDB1F5CF265";
shapes = (
{
closed = 1;
nodes = (
(50,2048,l),
(802,0,l),
(1058,0,l),
(1810,2048,l),
(1550,2048,l),
(942,324,l),
(918,324,l),
(310,2048,l)
);
}
);
width = 1860;
},
{
anchors = (
{
name = bottom;
pos = (1120,0);
},
{
name = top;
pos = (1120,2304);
}
);
guides = (
{
orientation = center;
angle = 90;
pos = (892,1048);
}
);
layerId = "5C20EF92-B63D-42A8-8878-93C2863E0093";
shapes = (
{
closed = 1;
nodes = (
(64,2048,l),
(740,0,l),
(1500,0,l),
(2176,2048,l),
(1548,2048,l),
(1128,604,l),
(1112,604,l),
(692,2048,l)
);
}
);
width = 2240;
},
{
anchors = (
{
name = bottom;
pos = (1116,0);
},
{
name = top;
pos = (1116,2180);
}
);
associatedMasterId = "5C20EF92-B63D-42A8-8878-93C2863E0093";
guides = (
{
orientation = center;
angle = 90;
pos = (1040,1048);
}
);
layerId = "6DA4A48D-2A01-425A-BC25-49F594E7EDF2";
name = "Oct 2 18, 14:43";
shapes = (
{
closed = 1;
nodes = (
(64,2048,l),
(760,0,l),
(1472,0,l),
(2168,2048,l),
(1552,2048,l),
(1128,684,l),
(1104,684,l),
(680,2048,l)
);
}
);
width = 2232;
}
);
metricLeft = A;
metricRight = A;
unicode = 86;
userData = {
com.typemytype.robofont.guideline.magnetic.IJvllllLzF = 5;
com.typemytype.robofont.guideline.magnetic.KeOP4W9VuQ = 5;
com.typemytype.robofont.guideline.magnetic.yHrbtxZ5FX = 5;
"interface.width-adjustments" = (
-16
);
};
},
{
glyphname = Gamma1;
kernLeft = V;
kernRight = V;
lastChange = "2021-09-25 14:20:58 +0000";
layers = (
{
layerId = "B1F27B51-9973-4381-9301-4FE46FE1CA59";
shapes = (
{
closed = 1;
nodes = (
(672,152,ls),
(825,-229,o),
(865,-348,o),
(864,-404,cs),
(863,-482,o),
(795,-544,o),
(696,-544,cs),
(594,-544,o),
(526,-482,o),
(526,-404,cs),
(526,-348,o),
(572,-226,o),
(714,126,cs),
(1488,2048,l),
(1418,2048,l),
(620,68,ls),
(488,-259,o),
(462,-336,o),
(462,-396,cs),
(462,-514,o),
(552,-608,o),
(696,-608,cs),
(838,-608,o),
(928,-514,o),
(928,-396,cs),
(928,-336,o),
(896,-236,o),
(762,98,cs),
(-22,2048,l),
(-92,2048,l)
);
}
);
width = 1390;
},
{
layerId = "C698F293-3EC0-4A5A-A3A0-0FDB1F5CF265";
shapes = (
{
closed = 1;
nodes = (
(826,156,ls),
(930,-84,o),
(986,-192,o),
(986,-272,cs),
(986,-332,o),
(938,-384,o),
(866,-384,cs),
(794,-384,o),
(746,-336,o),
(746,-272,cs),
(746,-192,o),
(810,-76,o),
(910,156,cs),
(1726,2048,l),
(1458,2048,l),
(750,388,ls),
(594,20,o),
(494,-136,o),
(494,-272,cs),
(494,-488,o),
(634,-608,o),
(866,-608,cs),
(1098,-608,o),
(1238,-488,o),
(1238,-272,cs),
(1238,-144,o),
(1130,20,o),
(974,388,cs),
(274,2048,l),
(6,2048,l)
);
}
);
width = 1732;
},
{
background = {
shapes = (
{
closed = 1;
nodes = (
(1104,172,ls),
(1184,16,o),
(1212,-68,o),
(1212,-148,cs),
(1212,-196,o),
(1216,-248,o),
(1156,-248,cs),
(1100,-248,o),
(1100,-204,o),
(1100,-148,cs),
(1100,-60,o),
(1136,20,o),
(1212,172,cs),
(2136,1988,l),
(1492,1988,l),
(1016,884,ls),
(824,440,o),
(552,-40,o),
(552,-172,cs),
(552,-492,o),
(856,-600,o),
(1156,-600,cs),
(1456,-600,o),
(1740,-492,o),
(1740,-172,cs),
(1740,-36,o),
(1496,448,o),
(1304,884,cs),
(816,1988,l),
(176,1988,l)
);
}
);
};
layerId = "5C20EF92-B63D-42A8-8878-93C2863E0093";
shapes = (
{
closed = 1;
nodes = (
(1104,232,ls),
(1169,109,o),
(1212,-49,o),
(1212,-160,cs),
(1212,-227,o),
(1195,-256,o),
(1156,-256,cs),
(1117,-256,o),
(1100,-226,o),
(1100,-162,cs),
(1100,-52,o),
(1143,102,o),
(1212,232,cs),
(2176,2048,l),
(1532,2048,l),
(1016,946,ls),
(602,63,o),
(552,-76,o),
(552,-192,cs),
(552,-449,o),
(799,-608,o),
(1156,-608,cs),
(1506,-608,o),
(1740,-433,o),
(1740,-208,cs),
(1740,-38,o),
(1594,337,o),
(1304,944,cs),
(776,2048,l),
(136,2048,l)
);
}
);
width = 2312;
}
);
unicode = 404;
userData = {
interface.gridadjust.original = "{'width': 1778, 'leftMargin': 28, 'rightMargin': 28}";
"interface.width-adjustments" = (
-16
);
};
},
{
glyphname = Vcursive;
lastChange = "2021-09-25 14:20:58 +0000";
layers = (
{
background = {
shapes = (
{
closed = 1;
nodes = (
(1232,-32,o),
(1502,218,o),
(1502,652,cs),
(1502,1694,ls),
(1502,1920,o),
(1408,2034,o),
(1214,2034,cs),
(1172,2034,o),
(1134,2030,o),
(1094,2016,c),
(1094,1952,l),
(1136,1966,o),
(1166,1970,o),
(1206,1970,cs),
(1372,1970,o),
(1438,1888,o),
(1438,1694,cs),
(1438,652,ls),
(1438,254,o),
(1196,32,o),
(826,32,cs),
(464,32,o),
(234,248,o),
(234,652,cs),
(234,2002,l),
(170,2002,l),
(170,652,ls),
(170,212,o),
(428,-32,o),
(826,-32,cs)
);
}
);
};
layerId = "B1F27B51-9973-4381-9301-4FE46FE1CA59";
shapes = (
{
closed = 1;
nodes = (
(1200,-32,o),
(1470,218,o),
(1470,652,cs),
(1470,1736,ls),
(1470,1962,o),
(1376,2076,o),
(1180,2076,cs),
(1140,2076,o),
(1102,2071,o),
(1062,2058,c),
(1062,1994,l),
(1104,2007,o),
(1134,2012,o),
(1174,2012,cs),
(1340,2012,o),
(1406,1930,o),
(1406,1736,cs),
(1406,652,ls),
(1406,254,o),
(1164,32,o),
(794,32,cs),
(432,32,o),
(202,248,o),
(202,652,cs),
(202,2048,l),
(138,2048,l),
(138,652,ls),
(138,212,o),
(396,-32,o),
(794,-32,cs)
);
}
);
width = 1608;
},
{
background = {
shapes = (
{
closed = 1;
nodes = (
(1276,-28,o),
(1620,196,o),
(1620,648,cs),
(1620,1552,ls),
(1620,1860,o),
(1436,2032,o),
(1172,2032,cs),
(1128,2032,o),
(1056,2020,o),
(1016,2008,c),
(1016,1788,l),
(1040,1796,o),
(1080,1796,o),
(1104,1796,cs),
(1252,1796,o),
(1332,1732,o),
(1332,1552,cs),
(1332,648,ls),
(1332,340,o),
(1156,200,o),
(888,200,cs),
(620,200,o),
(444,340,o),
(444,648,cs),
(444,2004,l),
(160,2004,l),
(160,648,ls),
(160,196,o),
(476,-28,o),
(888,-28,cs)
);
}
);
};
layerId = "C698F293-3EC0-4A5A-A3A0-0FDB1F5CF265";
shapes = (
{
closed = 1;
nodes = (
(1254,-28,o),
(1598,196,o),
(1598,648,cs),
(1598,1596,ls),
(1598,1904,o),
(1408,2076,o),
(1164,2076,cs),
(1100,2076,o),
(1034,2064,o),
(994,2052,c),
(994,1832,l),
(1018,1838,o),
(1062,1840,o),
(1086,1840,cs),
(1228,1840,o),
(1310,1776,o),
(1310,1596,cs),
(1310,648,ls),
(1310,340,o),
(1134,200,o),
(866,200,cs),
(598,200,o),
(422,340,o),
(422,648,cs),
(422,2048,l),
(138,2048,l),
(138,648,ls),
(138,196,o),
(454,-28,o),
(866,-28,cs)
);
}
);
width = 1732;
},
{
background = {
shapes = (
{
closed = 1;
nodes = (
(1493,-28,o),
(1817,244,o),
(1816,716,cs),
(1816,1408,ls),
(1817,1808,o),
(1589,2028,o),
(1204,2028,cs),
(1105,2028,o),
(1049,2024,o),
(964,2004,c),
(964,1576,l),
(1021,1584,o),
(1065,1588,o),
(1108,1588,cs),
(1245,1588,o),
(1273,1548,o),
(1272,1408,cs),
(1272,716,ls),
(1273,520,o),
(1201,400,o),
(980,400,cs),
(757,400,o),
(677,520,o),
(676,716,cs),
(676,2004,l),
(140,2004,l),
(140,716,ls),
(141,240,o),
(481,-28,o),
(980,-28,cs)
);
}
);
};
layerId = "5C20EF92-B63D-42A8-8878-93C2863E0093";
shapes = (
{
closed = 1;
nodes = (
(1493,-28,o),
(1816,244,o),
(1816,716,cs),
(1816,1456,ls),
(1816,1856,o),
(1595,2076,o),
(1190,2076,cs),
(1111,2076,o),
(1049,2069,o),
(964,2052,c),
(964,1624,l),
(1021,1632,o),
(1065,1636,o),
(1108,1636,cs),
(1245,1636,o),
(1272,1596,o),
(1272,1456,cs),
(1272,716,ls),
(1272,520,o),
(1201,400,o),
(980,400,cs),
(757,400,o),
(676,520,o),
(676,716,cs),
(676,2048,l),
(140,2048,l),
(140,716,ls),
(140,240,o),
(481,-28,o),
(980,-28,cs)
);
}
);
width = 1952;
}
);
unicode = 434;
userData = {
interface.gridadjust.original = "{'width': 1830, 'leftMargin': 186, 'rightMargin': 185}";
"interface.width-adjustments" = (
-16
);
};
},
{
color = (219,235,247,1);
glyphname = W;
kernLeft = W;
kernRight = W;
lastChange = "2021-09-25 14:20:58 +0000";
layers = (
{
anchors = (
{
name = bottom;
pos = (1224,16);
},
{
name = top;
pos = (1224,2304);
}
);
layerId = "B1F27B51-9973-4381-9301-4FE46FE1CA59";
metricLeft = "=A-12";
metricRight = "=A-12";
shapes = (
{
closed = 1;
nodes = (
(700,0,l),
(1220,1948,l),
(1228,1948,l),
(1748,0,l),
(1836,0,l),
(2400,2048,l),
(2332,2048,l),
(1796,100,l),
(1788,100,l),
(1268,2048,l),
(1180,2048,l),
(660,100,l),
(652,100,l),
(116,2048,l),
(48,2048,l),
(612,0,l)
);
}
);
width = 2448;
},
{
anchors = (
{
name = bottom;
pos = (1216,28);
},
{
name = top;
pos = (1216,2380);
}
);
associatedMasterId = "B1F27B51-9973-4381-9301-4FE46FE1CA59";
background = {
shapes = (
{
closed = 1;
nodes = (
(692,0,l),
(1208,1924,l),
(1224,1924,l),
(1736,0,l),
(1828,0,l),
(2360,2048,l),
(2328,2048,l),
(1812,140,l),
(1792,140,l),
(1292,2048,l),
(1136,2048,l),
(640,136,l),
(616,136,l),
(100,2048,l),
(68,2048,l),
(600,0,l)
);
}
);
};
layerId = "11917E52-1163-4D25-A7C8-D834BC2206AE";
name = "Nov 25 18, 14:25";
shapes = (
{
closed = 1;
nodes = (
(64,2048,l),
(628,0,l),
(716,0,l),
(1256,2048,l),
(1188,2048,l),
(676,100,l),
(668,100,l),
(128,2048,l)
);
},
{
closed = 1;
nodes = (
(1816,100,l),
(1808,100,l),
(1296,2048,l),
(1228,2048,l),
(1768,0,l),
(1856,0,l),
(2420,2048,l),
(2356,2048,l)
);
}
);
width = 2432;
},
{
anchors = (
{
name = bottom;
pos = (1318,16);
},
{
name = top;
pos = (1318,2304);
}
);
guides = (
{
pos = (998,360);
},
{
orientation = center;
angle = 90;
pos = (-2744,2096);
},
{
angle = 90;
pos = (610,332);
},
{
angle = 90;
pos = (1786,356);
}
);
layerId = "C698F293-3EC0-4A5A-A3A0-0FDB1F5CF265";
metricLeft = "=A*0.84";
metricRight = "=A*0.84";
shapes = (
{
closed = 1;
nodes = (
(858,0,l),
(1310,1632,l),
(1326,1632,l),
(1778,0,l),
(2034,0,l),
(2594,2048,l),
(2342,2048,l),
(1914,380,l),
(1894,380,l),
(1458,2048,l),
(1178,2048,l),
(742,380,l),
(722,380,l),
(294,2048,l),
(42,2048,l),
(602,0,l)
);
}
);
width = 2636;
},
{
anchors = (
{
name = bottom;
pos = (1540,0);
},
{
name = top;
pos = (1540,2304);
}
);
guides = (
{
orientation = center;
angle = 90;
pos = (1284,2076);
}
);
layerId = "5C20EF92-B63D-42A8-8878-93C2863E0093";
metricLeft = "=A-16";
metricRight = "=A-16";
shapes = (
{
closed = 1;
nodes = (
(1184,0,l),
(1532,1144,l),
(1548,1144,l),
(1896,0,l),
(2428,0,l),
(3032,2048,l),
(2412,2048,l),
(2132,784,l),
(2116,784,l),
(1784,2048,l),
(1296,2048,l),
(964,788,l),
(948,788,l),
(668,2048,l),
(48,2048,l),
(652,0,l)
);
}
);
width = 3080;
}
);
unicode = 87;
userData = {
com.typemytype.robofont.guideline.magnetic.8gZT6dIVxI = 5;
com.typemytype.robofont.guideline.magnetic.ZoWqubfLj9 = 5;
com.typemytype.robofont.guideline.magnetic.k6chDe7LUI = 5;
com.typemytype.robofont.guideline.magnetic.tUpIEqa0MC = 5;
"interface.width-adjustments" = (
-16
);
};
},
{
color = (219,235,247,1);
glyphname = X;
kernLeft = X;
kernRight = X;
lastChange = "2021-09-25 14:20:58 +0000";
layers = (
{
anchors = (
{
name = bottom;
pos = (792,16);
},
{
name = cross;
pos = (792,1024);
},
{
name = cyrtic;
pos = (1516,8);
},
{
name = right;
pos = (1452,0);
},
{
name = top;
pos = (792,2304);
}
);
layerId = "B1F27B51-9973-4381-9301-4FE46FE1CA59";
shapes = (
{
closed = 1;
nodes = (
(64,2048,l),
(752,1024,l),
(64,0,l),
(144,0,l),
(788,964,l),
(796,964,l),
(1440,0,l),
(1520,0,l),
(832,1024,l),
(1520,2048,l),
(1440,2048,l),
(796,1084,l),
(788,1084,l),
(144,2048,l)
);
}
);
width = 1584;
},
{
anchors = (
{
name = bottom;
pos = (804,32);
},
{
name = cross;
pos = (800,1024);
},
{
name = cyrtic;
pos = (1524,8);
},
{
name = right;
pos = (1420,0);
},
{
name = top;
pos = (804,2380);
}
);
associatedMasterId = "B1F27B51-9973-4381-9301-4FE46FE1CA59";
background = {
shapes = (
{
closed = 1;
nodes = (
(60,2048,l),
(752,1024,l),
(72,0,l),
(160,0,l),
(796,972,l),
(812,972,l),
(1448,0,l),
(1532,0,l),
(884,1024,l),
(1548,2048,l),
(1452,2048,l),
(812,1044,l),
(796,1044,l),
(152,2048,l)
);
}
);
};
layerId = "E8D82951-B715-498B-B293-BF1B194F0E0C";
name = "Nov 25 18, 14:33";
shapes = (
{
closed = 0;
nodes = (
(88,2084,l),
(1512,-36,l)
);
},
{
closed = 0;
nodes = (
(1512,2084,l),
(88,-36,l)
);
}
);
width = 1600;
},
{
anchors = (
{
name = bottom;
pos = (804,32);
},
{
name = cross;
pos = (800,1024);
},
{
name = cyrtic;
pos = (1524,8);
},
{
name = right;
pos = (1420,0);
},
{
name = top;
pos = (804,2380);
}
);
associatedMasterId = "B1F27B51-9973-4381-9301-4FE46FE1CA59";
background = {
shapes = (
{
closed = 1;
nodes = (
(60,2048,l),
(752,1024,l),
(72,0,l),
(160,0,l),
(796,972,l),
(812,972,l),
(1448,0,l),
(1532,0,l),
(884,1024,l),
(1548,2048,l),
(1452,2048,l),
(812,1044,l),
(796,1044,l),
(152,2048,l)
);
}
);
};
layerId = "46A46977-E9DE-4073-9A61-A08C35965B24";
name = "Nov 25 18, 14:35";
shapes = (
{
closed = 1;
nodes = (
(1528,0,l),
(152,2048,l),
(72,2048,l),
(1448,0,l)
);
},
{
closed = 1;
nodes = (
(152,0,l),
(1528,2048,l),
(1448,2048,l),
(72,0,l)
);
},
{
closed = 1;
nodes = (
(792,960,l),
(808,960,l),
(808,1088,l),
(792,1088,l)
);
}
);
width = 1600;
},
{
anchors = (
{
name = bottom;
pos = (882,16);
},
{
name = cross;
pos = (882,1024);
},
{
name = cyrtic;
pos = (1666,88);
},
{
name = right;
pos = (1530,0);
},
{
name = top;
pos = (882,2304);
}
);
guides = (
{
angle = 90;
pos = (1680,2180);
},
{
orientation = center;
angle = 90;
pos = (852,1372);
},
{
angle = 90;
pos = (24,2060);
},
{
orientation = center;
pos = (1308,1024);
}
);
layerId = "C698F293-3EC0-4A5A-A3A0-0FDB1F5CF265";
shapes = (
{
closed = 1;
nodes = (
(54,2048,l),
(714,1024,l),
(54,0,l),
(346,0,l),
(874,836,l),
(890,836,l),
(1418,0,l),
(1710,0,l),
(1066,1024,l),
(1710,2048,l),
(1418,2048,l),
(890,1196,l),
(874,1196,l),
(346,2048,l)
);
}
);
width = 1764;
},
{
anchors = (
{
name = bottom;
pos = (1072,-8);
},
{
name = cross;
pos = (1072,1024);
},
{
name = cyrtic;
pos = (1960,224);
},
{
name = right;
pos = (1776,0);
},
{
name = top;
pos = (1072,2304);
}
);
guides = (
{
orientation = center;
angle = 90;
pos = (848,2152);
},
{
angle = 90;
pos = (-52,2084);
},
{
angle = 90;
pos = (1748,2080);
},
{
orientation = center;
pos = (1008,1024);
}
);
layerId = "5C20EF92-B63D-42A8-8878-93C2863E0093";
shapes = (
{
closed = 1;
nodes = (
(104,2048,l),
(712,1024,l),
(84,0,l),
(716,0,l),
(1064,608,l),
(1080,608,l),
(1428,0,l),
(2064,0,l),
(1428,1024,l),
(2040,2048,l),
(1420,2048,l),
(1080,1452,l),
(1064,1452,l),
(728,2048,l)
);
}
);
width = 2148;
}
);
note = "recipe: offset curve 32, no auto";
unicode = 88;
userData = {
com.typemytype.robofont.guideline.magnetic.1jwe8yH4eD = 5;
com.typemytype.robofont.guideline.magnetic.AJAcp0DKEy = 5;
com.typemytype.robofont.guideline.magnetic.QFtArEHSdm = 5;
com.typemytype.robofont.guideline.magnetic.TR4vAYYyfi = 5;
com.typemytype.robofont.guideline.magnetic.nnmV4p3je2 = 5;
"interface.width-adjustments" = (
-16
);
};
},
{
color = (219,235,247,1);
glyphname = Y;
kernLeft = Y;
kernRight = Y;
lastChange = "2021-09-25 14:20:58 +0000";
layers = (
{
anchors = (
{
name = bottom;
pos = (828,0);
},
{
name = cross;
pos = (832,832);
},
{
name = ogonek;
pos = (864,0);
},
{
name = tonos;
pos = (28,2048);
},
{
name = top;
pos = (832,2304);
}
);
layerId = "B1F27B51-9973-4381-9301-4FE46FE1CA59";
shapes = (
{
closed = 1;
nodes = (
(800,972,l),
(800,0,l),
(864,0,l),
(864,972,l),
(1600,2048,l),
(1520,2048,l),
(836,1044,l),
(828,1044,l),
(144,2048,l),
(64,2048,l)
);
}
);
width = 1664;
},
{
anchors = (
{
name = bottom;
pos = (840,0);
},
{
name = cross;
pos = (840,848);
},
{
name = tonos;
pos = (40,2048);
},
{
name = top;
pos = (840,2304);
}
);
associatedMasterId = "B1F27B51-9973-4381-9301-4FE46FE1CA59";
background = {
shapes = (
{
closed = 1;
nodes = (
(808,964,l),
(808,0,l),
(872,0,l),
(872,964,l),
(1604,2048,l),
(1524,2048,l),
(852,1020,l),
(824,1020,l),
(156,2048,l),
(72,2048,l)
);
}
);
};
layerId = "519B55C8-6087-452D-A6A5-C177CD7F711A";
name = "Nov 25 18, 15:20";
shapes = (
{
closed = 1;
nodes = (
(808,972,l),
(872,972,l),
(1608,2048,l),
(1528,2048,l),
(844,1044,l),
(836,1044,l),
(152,2048,l),
(72,2048,l)
);
},
{
closed = 1;
nodes = (
(808,0,l),
(872,0,l),
(872,1012,l),
(808,1012,l)
);
}
);
width = 1680;
},
{
anchors = (
{
name = bottom;
pos = (914,0);
},
{
name = cross;
pos = (914,816);
},
{
name = ogonek;
pos = (1038,0);
},
{
name = tonos;
pos = (-26,2048);
},
{
name = top;
pos = (914,2304);
}
);
guides = (
{
orientation = center;
angle = 90;
pos = (884,1360);
},
{
angle = 90;
pos = (288,2092);
},
{
angle = 90;
pos = (1448,2100);
}
);
layerId = "C698F293-3EC0-4A5A-A3A0-0FDB1F5CF265";
shapes = (
{
closed = 1;
nodes = (
(790,844,l),
(790,0,l),
(1038,0,l),
(1038,844,l),
(1778,2048,l),
(1494,2048,l),
(926,1092,l),
(902,1092,l),
(334,2048,l),
(50,2048,l)
);
}
);
width = 1828;
},
{
anchors = (
{
name = bottom;
pos = (1076,0);
},
{
name = cross;
pos = (1076,764);
},
{
name = ogonek;
pos = (1352,0);
},
{
name = tonos;
pos = (-96,2048);
},
{
name = top;
pos = (1076,2304);
}
);
guides = (
{
orientation = center;
angle = 90;
pos = (832,1724);
}
);
layerId = "5C20EF92-B63D-42A8-8878-93C2863E0093";
shapes = (
{
closed = 1;
nodes = (
(800,644,l),
(800,0,l),
(1352,0,l),
(1352,644,l),
(2104,2048,l),
(1484,2048,l),
(1084,1216,l),
(1068,1216,l),
(668,2048,l),
(48,2048,l)
);
}
);
width = 2152;
}
);
unicode = 89;
userData = {
com.typemytype.robofont.guideline.magnetic.KceIXUepDd = 5;
com.typemytype.robofont.guideline.magnetic.TWkdg41wEI = 5;
com.typemytype.robofont.guideline.magnetic.o5DXjGQkF9 = 5;
"interface.width-adjustments" = (
-16
);
};
},
{
glyphname = YR;
lastChange = "2021-09-25 14:20:58 +0000";
layers = (
{
background = {
shapes = (
{
closed = 1;
nodes = (
(214,1864,l),
(214,2144,l),
(150,2144,l),
(150,1864,l)
);
},
{
closed = 1;
nodes = (
(150,0,l),
(214,0,l),
(214,1944,l),
(750,1944,ls),
(1056,1944,o),
(1273,1738,o),
(1274,1424,cs),
(1275,1112,o),
(1056,908,o),
(824,908,cs),
(182,908,l),
(182,844,l),
(890,844,l),
(908,850,l),
(1166,912,o),
(1338,1132,o),
(1338,1424,cs),
(1338,1775,o),
(1093,2008,o),
(750,2008,cs),
(150,2008,l)
);
},
{
closed = 1;
nodes = (
(1684,-512,l),
(1684,-504,l),
(930,892,l),
(858,892,l),
(1616,-512,l)
);
}
);
};
guides = (
{
pos = (296,2588);
}
);
layerId = "B1F27B51-9973-4381-9301-4FE46FE1CA59";
shapes = (
{
closed = 1;
nodes = (
(182,1904,l),
(182,2184,l),
(118,2184,l),
(118,1904,l)
);
},
{
closed = 1;
nodes = (
(118,0,l),
(182,0,l),
(182,1984,l),
(718,1984,ls),
(1024,1984,o),
(1241,1778,o),
(1242,1464,cs),
(1243,1152,o),
(1024,948,o),
(792,948,cs),
(150,948,l),
(150,884,l),
(858,884,l),
(876,890,l),
(1134,952,o),
(1306,1172,o),
(1306,1464,cs),
(1306,1815,o),
(1061,2048,o),
(718,2048,cs),
(118,2048,l)
);
},
{
closed = 1;
nodes = (
(1652,-512,l),
(1652,-504,l),
(886,914,l),
(814,914,l),
(1584,-512,l)
);
}
);
width = 1796;
},
{
background = {
shapes = (
{
closed = 1;
nodes = (
(440,1864,l),
(440,2144,l),
(152,2144,l),
(152,1864,l,{
name = hr00;
})
);
},
{
closed = 1;
nodes = (
(152,0,l),
(440,0,l),
(440,1772,l),
(820,1772,ls),
(1120,1772,o),
(1240,1624,o),
(1240,1400,cs),
(1240,1196,o),
(1100,1036,o),
(820,1036,cs),
(376,1036,l),
(376,808,l),
(984,808,l),
(1060,836,l),
(1352,916,o),
(1524,1124,o),
(1524,1400,cs),
(1524,1792,o),
(1276,2004,o),
(820,2004,cs),
(152,2004,l)
);
},
{
closed = 1;
nodes = (
(1880,-496,l),
(1880,-480,l),
(1128,912,l),
(828,912,l),
(1576,-496,l)
);
}
);
};
layerId = "C698F293-3EC0-4A5A-A3A0-0FDB1F5CF265";
shapes = (
{
closed = 1;
nodes = (
(418,1910,l),
(418,2190,l),
(130,2190,l),
(130,1910,l,{
name = hr00;
})
);
},
{
closed = 1;
nodes = (
(130,0,l),
(418,0,l),
(418,1818,l),
(798,1818,ls),
(1098,1818,o),
(1218,1670,o),
(1218,1446,cs),
(1218,1242,o),
(1078,1082,o),
(798,1082,cs),
(354,1082,l),
(354,854,l),
(962,854,l),
(1038,882,l),
(1330,962,o),
(1502,1170,o),
(1502,1446,cs),
(1502,1838,o),
(1254,2050,o),
(798,2050,cs),
(130,2050,l)
);
},
{
closed = 1;
nodes = (
(1858,-496,l),
(1858,-480,l),
(1106,912,l),
(806,912,l),
(1554,-496,l)
);
}
);
width = 1988;
},
{
background = {
shapes = (
{
closed = 1;
nodes = (
(668,1864,l),
(668,2144,l),
(132,2144,l),
(132,1864,l)
);
},
{
closed = 1;
nodes = (
(128,0,l),
(668,0,l),
(668,1572,l),
(976,1572,ls),
(1144,1572,o),
(1244,1484,o),
(1244,1332,cs),
(1244,1180,o),
(1148,1096,o),
(976,1096,cs),
(456,1096,l),
(460,668,l),
(1160,668,l),
(1344,780,l),
(1600,884,o),
(1780,1024,o),
(1780,1396,cs),
(1780,1792,o),
(1460,2004,o),
(976,2004,cs),
(128,2004,l,{
name = hr01;
})
);
},
{
closed = 1;
nodes = (
(2096,-472,l),
(2096,-452,l),
(1380,880,l),
(812,880,l),
(1520,-472,l)
);
}
);
};
layerId = "5C20EF92-B63D-42A8-8878-93C2863E0093";
shapes = (
{
closed = 1;
nodes = (
(664,1908,l),
(664,2188,l),
(128,2188,l),
(128,1908,l)
);
},
{
closed = 1;
nodes = (
(128,0,l),
(668,0,l),
(668,1616,l),
(976,1616,ls),
(1144,1616,o),
(1244,1528,o),
(1244,1376,cs),
(1244,1224,o),
(1148,1140,o),
(976,1140,cs),
(456,1140,l),
(460,712,l),
(1160,712,l),
(1344,824,l),
(1600,928,o),
(1780,1068,o),
(1780,1440,cs),
(1780,1836,o),
(1460,2048,o),
(976,2048,cs),
(128,2048,l,{
name = hr01;
})
);
},
{
closed = 1;
nodes = (
(2096,-472,l),
(2096,-452,l),
(1380,880,l),
(812,880,l),
(1520,-472,l)
);
}
);
width = 2224;
}
);
unicode = 422;
userData = {
interface.gridadjust.original = "{'width': 1939, 'leftMargin': 228, 'rightMargin': -18}";
"interface.width-adjustments" = (
-16
);
};
},
{
glyphname = Yhook;
kernLeft = Y;
kernRight = Y;
lastChange = "2021-09-25 14:20:58 +0000";
layers = (
{
background = {
shapes = (
{
closed = 1;
nodes = (
(828,996,l),
(828,1044,l),
(780,1044,l),
(780,996,l)
);
},
{
closed = 1;
nodes = (
(772,972,l),
(772,0,l),
(836,0,l),
(836,972,l),
(1474,1902,ls),
(1544,2004,o),
(1653,2016,o),
(1720,1972,c),
(1764,2014,l),
(1699,2087,o),
(1516,2081,o),
(1430,1956,cs),
(802,1040,l),
(116,2048,l),
(36,2048,l)
);
}
);
};
layerId = "B1F27B51-9973-4381-9301-4FE46FE1CA59";
shapes = (
{
closed = 1;
nodes = (
(796,996,l),
(796,1044,l),
(748,1044,l),
(748,996,l)
);
},
{
closed = 1;
nodes = (
(740,972,l),
(740,0,l),
(804,0,l),
(804,972,l),
(1454,1918,ls),
(1524,2019,o),
(1633,2031,o),
(1700,1988,c),
(1744,2030,l),
(1679,2102,o),
(1495,2096,o),
(1410,1972,cs),
(770,1040,l),
(84,2048,l),
(4,2048,l)
);
}
);
width = 1690;
},
{
background = {
shapes = (
{
closed = 1;
nodes = (
(964,1044,l),
(964,1092,l),
(916,1092,l),
(916,1044,l)
);
},
{
closed = 1;
nodes = (
(816,844,l),
(816,0,l),
(1064,0,l),
(1064,844,l),
(1572,1672,l),
(1612,1740,ls),
(1682,1860,o),
(1772,1872,o),
(1868,1832,c),
(1932,2032,l),
(1736,2124,o),
(1534,2064,o),
(1400,1844,cs),
(1356,1772,l),
(940,1072,l),
(360,2048,l),
(76,2048,l)
);
}
);
};
guides = (
{
angle = 238.6031;
pos = (1452,1588);
},
{
angle = 239.3277;
pos = (1260,1724);
}
);
layerId = "C698F293-3EC0-4A5A-A3A0-0FDB1F5CF265";
shapes = (
{
closed = 1;
nodes = (
(942,1044,l),
(942,1092,l),
(894,1092,l),
(894,1044,l)
);
},
{
closed = 1;
nodes = (
(794,844,l),
(794,0,l),
(1042,0,l),
(1042,844,l),
(1590,1740,ls),
(1662,1858,o),
(1750,1872,o),
(1846,1832,c),
(1910,2032,l),
(1714,2124,o),
(1510,2066,o),
(1378,1844,cs),
(918,1072,l),
(338,2048,l),
(54,2048,l)
);
}
);
width = 1944;
},
{
background = {
shapes = (
{
closed = 1;
nodes = (
(1924,1468,ls),
(2010,1616,o),
(2074,1656,o),
(2236,1612,c),
(2348,2020,l),
(2058,2120,o),
(1714,2096,o),
(1512,1744,cs),
(1432,1604,l),
(1888,1408,l)
);
},
{
closed = 1;
nodes = (
(1204,1168,l),
(1204,1216,l),
(1156,1216,l),
(1156,1168,l)
);
},
{
closed = 1;
nodes = (
(72,2048,l),
(904,756,l),
(904,0,l),
(1456,0,l),
(1456,756,l),
(1888,1408,l),
(1432,1604,l),
(1180,1196,l),
(668,2048,l)
);
}
);
};
guides = (
{
angle = 240.4178;
pos = (1036,1336);
},
{
angle = 238.4456;
pos = (1296,988);
}
);
layerId = "5C20EF92-B63D-42A8-8878-93C2863E0093";
shapes = (
{
closed = 1;
nodes = (
(1204,1168,l),
(1204,1216,l),
(1156,1216,l),
(1156,1168,l)
);
},
{
closed = 1;
nodes = (
(904,756,l),
(904,0,l),
(1456,0,l),
(1456,756,l),
(1932,1486,ls),
(2016,1614,o),
(2074,1656,o),
(2236,1612,c),
(2348,2020,l),
(2058,2120,o),
(1722,2090,o),
(1522,1760,cs),
(1180,1196,l),
(668,2048,l),
(72,2048,l)
);
}
);
width = 2380;
}
);
note = "!post:RemoveOverlap";
unicode = 435;
userData = {
com.typemytype.robofont.guideline.magnetic.1p4TietnVi = 5;
com.typemytype.robofont.guideline.magnetic.a19mK3ffcr = 5;
interface.gridadjust.original = "{'width': 1843, 'leftMargin': 18, 'rightMargin': -41}";
"interface.width-adjustments" = (
-16
);
};
},
{
color = (219,235,247,1);
glyphname = Z;
kernLeft = Z;
kernRight = Z;
lastChange = "2021-09-25 14:20:58 +0000";
layers = (
{
anchors = (
{
name = bottom;
pos = (820,0);
},
{
name = cross;
pos = (820,1024);
},
{
name = top;
pos = (820,2304);
}
);
guides = (
{
angle = 90;
pos = (76,684);
},
{
angle = 90;
pos = (1356,684);
}
);
layerId = "B1F27B51-9973-4381-9301-4FE46FE1CA59";
shapes = (
{
closed = 1;
nodes = (
(1468,0,l),
(1468,64,l),
(256,64,l),
(1460,1984,l),
(1460,2048,l),
(188,2048,l),
(188,1984,l),
(1384,1984,l),
(180,64,l),
(180,0,l)
);
}
);
width = 1640;
},
{
anchors = (
{
name = bottom;
pos = (850,0);
},
{
name = cross;
pos = (878,1056);
},
{
name = top;
pos = (858,2304);
}
);
guides = (
{
angle = 90;
pos = (1548,248);
},
{
angle = 90;
pos = (124,1280);
},
{
angle = 90;
pos = (828,2156);
}
);
layerId = "C698F293-3EC0-4A5A-A3A0-0FDB1F5CF265";
shapes = (
{
closed = 1;
nodes = (
(1570,0,l),
(1570,220,l),
(454,220,l),
(1558,1868,l),
(1558,2048,l),
(146,2048,l),
(146,1828,l),
(1262,1828,l),
(158,180,l),
(158,0,l)
);
}
);
width = 1716;
},
{
anchors = (
{
name = bottom;
pos = (980,0);
},
{
name = cross;
pos = (1020,1084);
},
{
name = top;
pos = (984,2304);
}
);
guides = (
{
pos = (-136,1552);
},
{
angle = 55.0453;
pos = (1544,1788);
},
{
angle = 55.0343;
pos = (-12,276);
},
{
angle = 90;
pos = (-16,1664);
},
{
angle = 90;
pos = (1536,384);
},
{
orientation = center;
angle = 90;
pos = (960,800);
}
);
layerId = "5C20EF92-B63D-42A8-8878-93C2863E0093";
shapes = (
{
closed = 1;
nodes = (
(1812,0,l),
(1812,448,l),
(848,448,l),
(1816,1740,l),
(1816,2048,l),
(144,2048,l),
(144,1600,l),
(1108,1600,l),
(140,308,l),
(140,0,l)
);
}
);
width = 1956;
}
);
unicode = 90;
userData = {
com.typemytype.robofont.guideline.magnetic.7L9fK9Z9Br = 5;
com.typemytype.robofont.guideline.magnetic.DPCAFAyemJ = 5;
com.typemytype.robofont.guideline.magnetic.VxRM18zW9m = 5;
"interface.width-adjustments" = (
-16
);
};
},
{
glyphname = mcapturn;
lastChange = "2021-09-25 14:20:58 +0000";
layers = (
{
layerId = "B1F27B51-9973-4381-9301-4FE46FE1CA59";
shapes = (
{
closed = 1;
nodes = (
(2020,0,l),
(2076,0,l),
(2076,2048,l),
(2012,2048,l),
(2012,314,l)
);
},
{
closed = 1;
nodes = (
(2012,232,o),
(1824,44,o),
(1592,44,cs),
(1320,44,o),
(1172,232,o),
(1172,504,cs),
(1172,2048,l),
(1108,2048,l),
(1108,504,ls),
(1108,196,o),
(1284,-20,o),
(1592,-20,cs),
(1860,-20,o),
(2076,196,o),
(2056,504,c),
(2012,504,l)
);
},
{
closed = 1;
nodes = (
(1108,232,o),
(920,44,o),
(688,44,cs),
(416,44,o),
(268,232,o),
(268,504,cs),
(268,2048,l),
(204,2048,l),
(204,504,ls),
(204,196,o),
(380,-20,o),
(688,-20,cs),
(956,-20,o),
(1172,196,o),
(1152,504,c),
(1108,504,l)
);
}
);
width = 2280;
},
{
layerId = "C698F293-3EC0-4A5A-A3A0-0FDB1F5CF265";
shapes = (
{
closed = 1;
nodes = (
(2034,0,l),
(2294,0,l),
(2294,2048,l),
(2022,2048,l),
(2022,292,l)
);
},
{
closed = 1;
nodes = (
(2042,416,o),
(1942,200,o),
(1646,200,cs),
(1518,200,o),
(1386,280,o),
(1386,608,c),
(1386,2048,l),
(1114,2048,l),
(1114,608,l),
(1114,128,o),
(1310,-28,o),
(1602,-28,cs),
(2010,-28,o),
(2170,280,o),
(2170,696,c),
(2042,692,l)
);
},
{
closed = 1;
nodes = (
(1138,416,o),
(1034,200,o),
(738,200,cs),
(610,200,o),
(482,280,o),
(482,608,cs),
(482,2048,l),
(206,2048,l),
(206,608,ls),
(206,132,o),
(398,-28,o),
(694,-28,cs),
(1102,-28,o),
(1266,280,o),
(1266,696,c),
(1138,692,l)
);
}
);
width = 2500;
},
{
layerId = "5C20EF92-B63D-42A8-8878-93C2863E0093";
shapes = (
{
closed = 1;
nodes = (
(2108,0,l),
(2568,0,l),
(2568,2048,l),
(2048,2048,l),
(2048,392,l)
);
},
{
closed = 1;
nodes = (
(2116,516,o),
(2040,384,o),
(1832,384,cs),
(1704,384,o),
(1644,460,o),
(1644,568,c),
(1644,2048,l),
(1132,2048,l),
(1132,568,l),
(1132,136,o),
(1336,-28,o),
(1656,-28,cs),
(2028,-28,o),
(2252,280,o),
(2252,696,c),
(2116,692,l)
);
},
{
closed = 1;
nodes = (
(1200,512,o),
(1124,384,o),
(916,384,cs),
(788,384,o),
(728,460,o),
(728,568,cs),
(728,2048,l),
(216,2048,l),
(216,568,ls),
(216,140,o),
(376,-28,o),
(740,-28,cs),
(1128,-28,o),
(1344,268,o),
(1344,696,c),
(1200,692,l)
);
}
);
width = 2780;
}
);
unicode = 412;
userData = {
interface.gridadjust.original = "{'width': 2558, 'leftMargin': 234, 'rightMargin': 234}";
"interface.width-adjustments" = (
-16
);
};
},
{
glyphname = uni01F6;
kernLeft = B;
kernRight = u;
lastChange = "2021-09-25 14:20:58 +0000";
layers = (
{
layerId = "B1F27B51-9973-4381-9301-4FE46FE1CA59";
shapes = (
{
closed = 1;
nodes = (
(2576,-32,o),
(2816,143,o),
(2816,608,cs),
(2816,1576,l),
(2752,1576,l),
(2752,608,ls),
(2752,218,o),
(2580,31,o),
(2244,32,cs),
(1910,33,o),
(1720,218,o),
(1720,608,cs),
(1720,2048,l),
(1656,2048,l),
(1656,1056,l),
(352,1056,l),
(352,2048,l),
(288,2048,l),
(288,0,l),
(352,0,l),
(352,992,l),
(1656,992,l),
(1656,608,ls),
(1656,162,o),
(1899,-32,o),
(2244,-32,cs)
);
}
);
width = 3056;
},
{
background = {
shapes = (
{
ref = H;
}
);
};
layerId = "C698F293-3EC0-4A5A-A3A0-0FDB1F5CF265";
shapes = (
{
closed = 1;
nodes = (
(2626,-28,o),
(2898,196,o),
(2898,648,cs),
(2898,1536,l),
(2650,1536,l),
(2650,648,ls),
(2650,340,o),
(2506,200,o),
(2238,200,cs),
(1970,200,o),
(1814,340,o),
(1814,648,cs),
(1814,2048,l),
(1566,2048,l),
(1566,1136,l),
(474,1136,l),
(474,2048,l),
(226,2048,l),
(226,0,l),
(474,0,l),
(474,916,l),
(1566,916,l),
(1566,648,ls),
(1566,204,o),
(1838,-28,o),
(2238,-28,cs)
);
}
);
width = 3092;
},
{
background = {
shapes = (
{
ref = H;
}
);
};
layerId = "5C20EF92-B63D-42A8-8878-93C2863E0093";
shapes = (
{
closed = 1;
nodes = (
(2736,-28,o),
(3040,256,o),
(3040,716,cs),
(3040,1468,l),
(2484,1468,l),
(2484,716,ls),
(2484,536,o),
(2388,428,o),
(2232,428,cs),
(2076,428,o),
(1980,536,o),
(1980,716,cs),
(1980,2048,l),
(1424,2048,l),
(1424,1248,l),
(688,1248,l),
(688,2048,l),
(132,2048,l),
(132,0,l),
(688,0,l),
(688,800,l),
(1424,800,l),
(1424,716,ls),
(1424,256,o),
(1732,-28,o),
(2232,-28,cs)
);
}
);
width = 3180;
}
);
metricLeft = H;
metricRight = u;
unicode = 502;
userData = {
interface.gridadjust.original = "{'width': 3059, 'leftMargin': 228, 'rightMargin': 176}";
"interface.width-adjustments" = (
-16
);
};
},
{
glyphname = uni01F7;
lastChange = "2021-09-25 14:20:58 +0000";
layers = (
{
background = {
shapes = (
{
closed = 1;
nodes = (
(76,2004,l),
(76,-574,l),
(140,-574,l),
(140,2004,l)
);
},
{
closed = 1;
nodes = (
(853,-19,o),
(1268,451,o),
(1268,1158,cs),
(1268,1180,ls),
(1268,1757,o),
(1033,2034,o),
(588,2034,cs),
(391,2034,o),
(222,1988,o),
(94,1900,c),
(124,1842,l),
(245,1925,o),
(408,1970,o),
(588,1970,cs),
(994,1970,o),
(1202,1723,o),
(1202,1184,cs),
(1202,1154,ls),
(1202,485,o),
(820,51,o),
(96,-124,c),
(96,-188,l)
);
}
);
};
layerId = "B1F27B51-9973-4381-9301-4FE46FE1CA59";
shapes = (
{
closed = 1;
nodes = (
(44,2048,l),
(44,-576,l),
(108,-576,l),
(108,2048,l)
);
},
{
closed = 1;
nodes = (
(821,-19,o),
(1236,451,o),
(1236,1178,cs),
(1236,1200,ls),
(1236,1799,o),
(1007,2076,o),
(550,2076,cs),
(365,2076,o),
(190,2030,o),
(62,1942,c),
(92,1884,l),
(213,1967,o),
(376,2012,o),
(552,2012,cs),
(962,2012,o),
(1170,1765,o),
(1170,1204,cs),
(1170,1174,ls),
(1170,485,o),
(788,51,o),
(64,-124,c),
(64,-188,l)
);
}
);
width = 1284;
},
{
background = {
shapes = (
{
closed = 1;
nodes = (
(156,2004,l),
(156,-572,l),
(444,-572,l),
(444,2004,l)
);
},
{
closed = 1;
nodes = (
(1040,-160,o),
(1620,424,o),
(1620,1124,cs),
(1620,1196,ls),
(1620,1756,o),
(1308,2032,o),
(808,2032,cs),
(616,2032,o),
(464,1980,o),
(348,1892,c),
(348,1352,l),
(392,1624,o),
(504,1800,o),
(808,1800,cs),
(1164,1800,o),
(1336,1616,o),
(1336,1200,cs),
(1336,1124,ls),
(1336,656,o),
(1012,92,o),
(292,-20,c),
(292,-248,l)
);
}
);
};
layerId = "C698F293-3EC0-4A5A-A3A0-0FDB1F5CF265";
shapes = (
{
closed = 1;
nodes = (
(134,2048,l),
(134,-576,l),
(422,-576,l),
(422,2048,l)
);
},
{
closed = 1;
nodes = (
(1018,-160,o),
(1598,424,o),
(1598,1144,cs),
(1598,1216,ls),
(1598,1800,o),
(1276,2076,o),
(792,2076,cs),
(584,2076,o),
(442,2024,o),
(326,1936,c),
(326,1396,l),
(370,1668,o),
(470,1844,o),
(794,1844,cs),
(1130,1844,o),
(1314,1660,o),
(1314,1220,cs),
(1314,1144,ls),
(1314,656,o),
(990,92,o),
(270,-20,c),
(270,-248,l)
);
}
);
width = 1732;
},
{
background = {
shapes = (
{
closed = 1;
nodes = (
(288,2004,l),
(288,-572,l),
(820,-572,l),
(820,2004,l)
);
},
{
closed = 1;
nodes = (
(1574,40,o),
(2046,492,o),
(2048,1044,cs),
(2048,1116,ls),
(2046,1692,o),
(1686,2032,o),
(1152,2032,cs),
(934,2032,o),
(746,1952,o),
(668,1848,c),
(668,1280,l),
(734,1456,o),
(966,1604,o),
(1152,1604,cs),
(1494,1604,o),
(1494,1304,o),
(1496,1120,cs),
(1496,1044,ls),
(1494,644,o),
(1186,388,o),
(596,172,c),
(596,-264,l)
);
}
);
};
layerId = "5C20EF92-B63D-42A8-8878-93C2863E0093";
shapes = (
{
closed = 1;
nodes = (
(288,2048,l),
(288,-576,l),
(820,-576,l),
(820,2048,l)
);
},
{
closed = 1;
nodes = (
(1574,40,o),
(2046,492,o),
(2048,1064,cs),
(2048,1136,ls),
(2048,1736,o),
(1678,2076,o),
(1170,2076,cs),
(926,2076,o),
(746,1996,o),
(668,1892,c),
(668,1324,l),
(734,1500,o),
(956,1648,o),
(1174,1648,cs),
(1484,1648,o),
(1496,1348,o),
(1496,1140,cs),
(1496,1064,ls),
(1494,644,o),
(1186,388,o),
(596,172,c),
(596,-264,l)
);
}
);
width = 2328;
}
);
unicode = 503;
userData = {
interface.gridadjust.original = "{'width': 1856, 'leftMargin': 228, 'rightMargin': 163}";
"interface.width-adjustments" = (
-16
);
};
},
{
glyphname = uni0220;
lastChange = "2021-09-25 14:20:58 +0000";
layers = (
{
background = {
shapes = (
{
closed = 1;
nodes = (
(1330,1260,ls),
(1330,1837,o),
(1097,2034,o),
(652,2034,cs),
(455,2034,o),
(286,1988,o),
(158,1900,c),
(188,1842,l),
(314,1929,o),
(463,1970,o),
(672,1970,cs),
(1058,1970,o),
(1266,1803,o),
(1266,1264,cs),
(1266,-576,l),
(1330,-576,l)
);
},
{
closed = 1;
nodes = (
(140,2004,l),
(140,0,l),
(204,0,l),
(204,2004,l)
);
}
);
};
layerId = "B1F27B51-9973-4381-9301-4FE46FE1CA59";
shapes = (
{
closed = 1;
nodes = (
(1298,1302,ls),
(1298,1879,o),
(1059,2076,o),
(626,2076,cs),
(417,2076,o),
(254,2030,o),
(126,1942,c),
(156,1884,l),
(282,1971,o),
(435,2012,o),
(632,2012,cs),
(1030,2012,o),
(1234,1845,o),
(1234,1306,cs),
(1234,-576,l),
(1298,-576,l)
);
},
{
closed = 1;
nodes = (
(108,2048,l),
(108,0,l),
(172,0,l),
(172,2048,l)
);
}
);
width = 1396;
},
{
background = {
shapes = (
{
closed = 1;
nodes = (
(1616,1356,ls),
(1616,1808,o),
(1268,2032,o),
(888,2032,cs),
(676,2032,o),
(492,1964,o),
(368,1880,c),
(368,1660,l),
(496,1748,o),
(660,1804,o),
(888,1804,cs),
(1160,1804,o),
(1340,1668,o),
(1340,1356,cs),
(1340,-572,l),
(1616,-572,l)
);
},
{
closed = 1;
nodes = (
(164,2004,l),
(164,0,l),
(436,0,l),
(436,2004,l)
);
}
);
};
layerId = "C698F293-3EC0-4A5A-A3A0-0FDB1F5CF265";
shapes = (
{
closed = 1;
nodes = (
(1594,1400,ls),
(1594,1852,o),
(1246,2076,o),
(866,2076,cs),
(654,2076,o),
(470,2008,o),
(346,1924,c),
(346,1704,l),
(474,1792,o),
(646,1848,o),
(842,1848,cs),
(1146,1848,o),
(1318,1712,o),
(1318,1400,cs),
(1318,-572,l),
(1594,-572,l)
);
},
{
closed = 1;
nodes = (
(142,2048,l),
(142,0,l),
(414,0,l),
(414,2048,l)
);
}
);
width = 1732;
},
{
background = {
shapes = (
{
closed = 1;
nodes = (
(1764,1452,ls),
(1763,1808,o),
(1479,2032,o),
(1088,2032,cs),
(743,2032,o),
(487,1832,o),
(328,1632,c),
(328,1140,l),
(551,1468,o),
(787,1624,o),
(1008,1624,cs),
(1203,1624,o),
(1239,1540,o),
(1240,1452,cs),
(1240,-572,l),
(1764,-572,l)
);
},
{
closed = 1;
nodes = (
(208,2004,l),
(208,0,l),
(728,0,l),
(728,2004,l)
);
}
);
};
layerId = "5C20EF92-B63D-42A8-8878-93C2863E0093";
shapes = (
{
closed = 1;
nodes = (
(1764,1496,ls),
(1764,1842,o),
(1484,2076,o),
(1100,2076,cs),
(799,2076,o),
(532,1932,o),
(328,1676,c),
(328,1184,l),
(543,1500,o),
(775,1668,o),
(1020,1668,cs),
(1160,1668,o),
(1240,1613,o),
(1240,1496,cs),
(1240,-572,l),
(1764,-572,l)
);
},
{
closed = 1;
nodes = (
(208,2048,l),
(208,0,l),
(728,0,l),
(728,2048,l)
);
}
);
width = 1968;
}
);
unicode = 544;
userData = {
interface.gridadjust.original = "{'width': 1866, 'leftMargin': 228, 'rightMargin': 186}";
"interface.width-adjustments" = (
-16
);
};
},
{
glyphname = uni0222;
lastChange = "2021-09-25 14:20:58 +0000";
layers = (
{
background = {
shapes = (
{
closed = 1;
nodes = (
(310,1102,o),
(80,896,o),
(80,538,cs),
(80,171,o),
(332,-28,o),
(788,-28,cs),
(806,-28,ls),
(1258,-28,o),
(1512,170,o),
(1512,538,cs),
(1512,895,o),
(1281,1102,o),
(820,1102,cs),
(772,1102,ls)
);
},
{
closed = 1;
nodes = (
(1246,1038,o),
(1448,854,o),
(1448,538,cs),
(1448,210,o),
(1226,36,o),
(806,36,cs),
(786,36,ls),
(364,36,o),
(144,212,o),
(144,538,cs),
(144,856,o),
(342,1038,o),
(772,1038,cs),
(820,1038,ls)
);
},
{
closed = 1;
nodes = (
(384,1102,o),
(172,1260,o),
(172,1536,cs),
(172,1756,o),
(290,1885,o),
(462,1922,c),
(462,1990,l),
(252,1946,o),
(108,1792,o),
(108,1536,cs),
(108,1222,o),
(352,1038,o),
(772,1038,cs),
(820,1038,ls),
(1242,1038,o),
(1484,1226,o),
(1484,1536,cs),
(1484,1807,o),
(1319,1966,o),
(1092,2002,c),
(1092,1936,l),
(1284,1906,o),
(1420,1770,o),
(1420,1536,cs),
(1420,1262,o),
(1205,1102,o),
(822,1102,cs),
(772,1102,ls)
);
}
);
};
layerId = "B1F27B51-9973-4381-9301-4FE46FE1CA59";
shapes = (
{
closed = 1;
nodes = (
(278,1142,o),
(48,936,o),
(48,558,cs),
(48,171,o),
(300,-28,o),
(756,-28,cs),
(774,-28,ls),
(1226,-28,o),
(1480,170,o),
(1480,558,cs),
(1480,935,o),
(1249,1142,o),
(788,1142,cs),
(740,1142,ls)
);
},
{
closed = 1;
nodes = (
(1214,1078,o),
(1416,894,o),
(1416,558,cs),
(1416,210,o),
(1194,36,o),
(774,36,cs),
(754,36,ls),
(332,36,o),
(112,212,o),
(112,558,cs),
(112,896,o),
(310,1078,o),
(740,1078,cs),
(788,1078,ls)
);
},
{
closed = 1;
nodes = (
(352,1142,o),
(140,1292,o),
(140,1602,cs),
(140,1834,o),
(258,1971,o),
(430,2008,c),
(430,2076,l),
(220,2032,o),
(76,1870,o),
(76,1602,cs),
(76,1254,o),
(320,1078,o),
(740,1078,cs),
(788,1078,ls),
(1210,1078,o),
(1452,1258,o),
(1452,1602,cs),
(1452,1885,o),
(1287,2052,o),
(1060,2088,c),
(1060,2022,l),
(1252,1992,o),
(1388,1848,o),
(1388,1602,cs),
(1388,1294,o),
(1173,1142,o),
(790,1142,cs),
(740,1142,ls)
);
}
);
width = 1528;
},
{
background = {
shapes = (
{
closed = 1;
nodes = (
(444,1212,o),
(112,1004,o),
(112,596,cs),
(112,176,o),
(444,-28,o),
(872,-28,cs),
(904,-28,ls),
(1332,-28,o),
(1664,176,o),
(1664,600,cs),
(1664,1004,o),
(1332,1212,o),
(904,1212,cs),
(872,1212,l,{
name = hr00;
})
);
},
{
closed = 1;
nodes = (
(1192,996,o),
(1380,868,o),
(1380,600,cs),
(1380,324,o),
(1192,208,o),
(904,208,cs),
(872,208,ls),
(584,208,o),
(396,324,o),
(396,596,cs),
(396,868,o),
(584,996,o),
(872,996,cs),
(904,996,l)
);
},
{
closed = 1;
nodes = (
(612,1232,o),
(396,1292,o),
(396,1532,cs),
(396,1704,o),
(484,1772,o),
(656,1816,c),
(656,2032,l),
(356,2016,o),
(112,1864,o),
(112,1532,cs),
(112,1148,o),
(464,1016,o),
(860,1016,cs),
(916,1016,ls),
(1312,1016,o),
(1664,1148,o),
(1664,1532,cs),
(1664,1864,o),
(1424,2016,o),
(1120,2032,c),
(1120,1816,l),
(1292,1772,o),
(1380,1704,o),
(1380,1532,cs),
(1380,1292,o),
(1168,1232,o),
(916,1232,cs),
(860,1232,l)
);
}
);
};
layerId = "C698F293-3EC0-4A5A-A3A0-0FDB1F5CF265";
shapes = (
{
closed = 1;
nodes = (
(422,1212,o),
(90,1004,o),
(90,596,cs),
(90,176,o),
(422,-28,o),
(850,-28,cs),
(882,-28,ls),
(1310,-28,o),
(1642,176,o),
(1642,600,cs),
(1642,1004,o),
(1310,1212,o),
(882,1212,cs),
(850,1212,l,{
name = hr00;
})
);
},
{
closed = 1;
nodes = (
(1170,996,o),
(1358,868,o),
(1358,600,cs),
(1358,324,o),
(1170,208,o),
(882,208,cs),
(850,208,ls),
(562,208,o),
(374,324,o),
(374,596,cs),
(374,868,o),
(562,996,o),
(850,996,cs),
(882,996,l)
);
},
{
closed = 1;
nodes = (
(590,1232,o),
(374,1272,o),
(374,1552,cs),
(374,1728,o),
(462,1816,o),
(634,1860,c),
(634,2076,l),
(334,2060,o),
(90,1896,o),
(90,1552,cs),
(90,1136,o),
(442,1016,o),
(838,1016,cs),
(894,1016,ls),
(1290,1016,o),
(1642,1136,o),
(1642,1552,cs),
(1642,1896,o),
(1402,2060,o),
(1098,2076,c),
(1098,1860,l),
(1270,1816,o),
(1358,1728,o),
(1358,1552,cs),
(1358,1272,o),
(1146,1232,o),
(894,1232,cs),
(838,1232,l)
);
}
);
width = 1732;
},
{
background = {
shapes = (
{
closed = 1;
nodes = (
(507,1312,o),
(167,1112,o),
(168,664,cs),
(167,228,o),
(503,-28,o),
(972,-28,cs),
(1000,-28,ls),
(1463,-28,o),
(1795,228,o),
(1796,668,cs),
(1795,1112,o),
(1459,1312,o),
(1000,1312,cs),
(972,1312,l)
);
},
{
closed = 1;
nodes = (
(1171,940,o),
(1247,816,o),
(1248,668,cs),
(1247,516,o),
(1171,392,o),
(1000,392,cs),
(972,392,ls),
(803,392,o),
(715,516,o),
(716,664,cs),
(715,824,o),
(807,940,o),
(972,940,cs),
(1000,940,l)
);
},
{
closed = 1;
nodes = (
(763,1372,o),
(715,1428,o),
(716,1520,cs),
(715,1584,o),
(747,1604,o),
(816,1616,c),
(816,2032,l),
(423,2040,o),
(167,1876,o),
(168,1520,cs),
(167,1160,o),
(499,1004,o),
(968,1004,cs),
(996,1004,ls),
(1459,1004,o),
(1803,1160,o),
(1804,1520,cs),
(1803,1876,o),
(1539,2040,o),
(1152,2032,c),
(1152,1616,l),
(1215,1604,o),
(1255,1584,o),
(1256,1520,cs),
(1255,1416,o),
(1179,1372,o),
(996,1372,cs),
(968,1372,l)
);
}
);
};
layerId = "5C20EF92-B63D-42A8-8878-93C2863E0093";
shapes = (
{
closed = 1;
nodes = (
(461,1312,o),
(167,1075,o),
(168,664,cs),
(167,245,o),
(484,-28,o),
(972,-28,cs),
(1000,-28,ls),
(1483,-28,o),
(1795,245,o),
(1796,668,cs),
(1795,1076,o),
(1503,1312,o),
(1000,1312,cs),
(972,1312,l)
);
},
{
closed = 1;
nodes = (
(1152,940,o),
(1247,836,o),
(1248,668,cs),
(1247,496,o),
(1153,392,o),
(1000,392,cs),
(972,392,ls),
(817,392,o),
(715,501,o),
(716,664,cs),
(715,832,o),
(815,940,o),
(972,940,cs),
(1000,940,l)
);
},
{
closed = 1;
nodes = (
(787,1372,o),
(717,1400,o),
(716,1532,cs),
(715,1609,o),
(740,1647,o),
(816,1660,c),
(816,2076,l),
(399,2084,o),
(167,1877,o),
(168,1532,cs),
(169,1181,o),
(454,1004,o),
(968,1004,cs),
(996,1004,ls),
(1509,1004,o),
(1805,1184,o),
(1804,1532,cs),
(1803,1874,o),
(1566,2085,o),
(1152,2076,c),
(1152,1660,l),
(1227,1646,o),
(1255,1607,o),
(1256,1532,cs),
(1257,1404,o),
(1178,1372,o),
(996,1372,cs),
(968,1372,l)
);
}
);
width = 1964;
}
);
unicode = 546;
userData = {
interface.gridadjust.original = "{'width': 1873, 'leftMargin': 161, 'rightMargin': 161}";
"interface.width-adjustments" = (
-16
);
};
},
{
glyphname = uni0224;
kernLeft = Z;
kernRight = Z;
lastChange = "2021-09-25 14:20:58 +0000";
layers = (
{
layerId = "B1F27B51-9973-4381-9301-4FE46FE1CA59";
shapes = (
{
closed = 1;
nodes = (
(1344,1984,l),
(140,64,l),
(140,0,l),
(1158,0,ls),
(1312,0,o),
(1370,-72,o),
(1370,-250,cs),
(1370,-256,l),
(1434,-256,l),
(1434,-214,ls),
(1434,-40,o),
(1336,64,o),
(1162,64,cs),
(216,64,l),
(1420,1984,l),
(1420,2048,l),
(148,2048,l),
(148,1984,l)
);
}
);
width = 1578;
},
{
layerId = "C698F293-3EC0-4A5A-A3A0-0FDB1F5CF265";
shapes = (
{
closed = 1;
nodes = (
(1262,1828,l),
(158,180,l),
(158,0,l),
(1178,0,ls),
(1318,0,o),
(1362,-112,o),
(1362,-228,cs),
(1362,-304,l),
(1586,-304,l),
(1586,-184,ls),
(1586,56,o),
(1430,220,o),
(1178,220,cs),
(454,220,l),
(1558,1868,l),
(1558,2048,l),
(146,2048,l),
(146,1828,l)
);
}
);
width = 1716;
},
{
layerId = "5C20EF92-B63D-42A8-8878-93C2863E0093";
shapes = (
{
closed = 1;
nodes = (
(1124,1600,l),
(140,308,l),
(140,0,l),
(1188,0,ls),
(1378,0,o),
(1410,-120,o),
(1408,-260,cs),
(1408,-384,l),
(1852,-384,l),
(1852,-160,ls),
(1854,224,o),
(1622,448,o),
(1188,448,cs),
(832,448,l),
(1816,1740,l),
(1816,2048,l),
(144,2048,l),
(144,1600,l)
);
}
);
width = 1956;
}
);
note = "!post:RemoveOverlap";
unicode = 548;
userData = {
interface.gridadjust.original = "{'width': 1724, 'leftMargin': 118, 'rightMargin': 44}";
"interface.width-adjustments" = (
-16
);
};
},
{
glyphname = uni023A;
kernLeft = A;
kernRight = A;
lastChange = "2021-09-25 14:20:58 +0000";
layers = (
{
layerId = "B1F27B51-9973-4381-9301-4FE46FE1CA59";
shapes = (
{
closed = 1;
nodes = (
(1260,2308,l),
(348,-260,l),
(416,-260,l),
(1328,2308,l)
);
},
{
alignment = -1;
ref = A;
}
);
width = 1672;
},
{
layerId = "C698F293-3EC0-4A5A-A3A0-0FDB1F5CF265";
shapes = (
{
closed = 1;
nodes = (
(1322,2308,l),
(410,-260,l),
(638,-260,l),
(1550,2308,l)
);
},
{
ref = A;
}
);
width = 1860;
},
{
layerId = "5C20EF92-B63D-42A8-8878-93C2863E0093";
shapes = (
{
closed = 1;
nodes = (
(1532,2308,l),
(756,-260,l),
(1040,-260,l),
(1816,2308,l)
);
},
{
ref = A;
}
);
width = 2240;
}
);
metricLeft = A;
metricRight = A;
unicode = 570;
userData = {
interface.gridadjust.original = "{'width': 1855, 'leftMargin': -226, 'rightMargin': -8}";
};
},
{
glyphname = uni023B;
kernLeft = C;
kernRight = C;
lastChange = "2021-09-25 14:20:58 +0000";
layers = (
{
layerId = "B1F27B51-9973-4381-9301-4FE46FE1CA59";
shapes = (
{
closed = 1;
nodes = (
(540,-260,l),
(1536,2308,l),
(1468,2308,l),
(472,-260,l)
);
},
{
ref = C;
}
);
width = 1972;
},
{
guides = (
{
angle = 90;
pos = (972,1756);
}
);
layerId = "C698F293-3EC0-4A5A-A3A0-0FDB1F5CF265";
shapes = (
{
closed = 1;
nodes = (
(670,-260,l),
(1582,2308,l),
(1354,2308,l),
(442,-260,l)
);
},
{
ref = C;
}
);
width = 2004;
},
{
layerId = "5C20EF92-B63D-42A8-8878-93C2863E0093";
shapes = (
{
closed = 1;
nodes = (
(840,-260,l),
(1616,2308,l),
(1332,2308,l),
(556,-260,l)
);
},
{
ref = C;
}
);
width = 2164;
}
);
metricLeft = C;
metricRight = C;
unicode = 571;
userData = {
com.typemytype.robofont.guideline.magnetic.7GS4PBDdqi = 5;
interface.gridadjust.original = "{'width': 1834, 'leftMargin': 256, 'rightMargin': 2}";
"interface.width-adjustments" = (
-16
);
};
},
{
glyphname = uni023E;
kernLeft = T;
kernRight = T;
lastChange = "2021-09-25 14:20:58 +0000";
layers = (
{
layerId = "B1F27B51-9973-4381-9301-4FE46FE1CA59";
shapes = (
{
closed = 1;
nodes = (
(382,-260,l),
(1374,2308,l),
(1312,2308,l),
(320,-260,l)
);
},
{
alignment = -1;
ref = T;
}
);
width = 1664;
},
{
layerId = "C698F293-3EC0-4A5A-A3A0-0FDB1F5CF265";
shapes = (
{
closed = 1;
nodes = (
(566,-260,l),
(1478,2308,l),
(1250,2308,l),
(338,-260,l)
);
},
{
ref = T;
}
);
width = 1764;
},
{
layerId = "5C20EF92-B63D-42A8-8878-93C2863E0093";
shapes = (
{
closed = 1;
nodes = (
(760,-260,l),
(1536,2308,l),
(1252,2308,l),
(476,-260,l)
);
},
{
ref = T;
}
);
width = 1932;
}
);
metricLeft = T;
metricRight = T;
unicode = 574;
userData = {
interface.gridadjust.original = "{'width': 1680, 'leftMargin': 128, 'rightMargin': 16}";
"interface.width-adjustments" = (
-16
);
};
},
{
glyphname = uni0241;
lastChange = "2021-09-25 14:20:58 +0000";
layers = (
{
background = {
shapes = (
{
closed = 1;
nodes = (
(652,482,l),
(676,482,l),
(1073,480,o),
(1296,708,o),
(1296,1116,cs),
(1296,1404,ls),
(1296,1800,o),
(1084,2032,o),
(724,2032,cs),
(377,2032,o),
(144,1833,o),
(124,1520,c),
(188,1520,l),
(202,1793,o),
(410,1966,o),
(724,1966,cs),
(1051,1966,o),
(1232,1766,o),
(1232,1404,cs),
(1232,1116,ls),
(1232,738,o),
(1037,542,o),
(664,544,c),
(652,544,l,{
name = hr00;
})
);
},
{
closed = 1;
nodes = (
(640,544,l),
(640,0,l),
(704,0,l),
(704,544,l)
);
}
);
};
layerId = "B1F27B51-9973-4381-9301-4FE46FE1CA59";
shapes = (
{
closed = 1;
nodes = (
(620,482,l),
(644,482,l),
(1041,480,o),
(1264,708,o),
(1264,1116,cs),
(1264,1448,ls),
(1264,1844,o),
(1052,2076,o),
(692,2076,cs),
(345,2076,o),
(112,1877,o),
(92,1564,c),
(156,1564,l),
(170,1837,o),
(378,2010,o),
(692,2010,cs),
(1019,2010,o),
(1200,1810,o),
(1200,1448,cs),
(1200,1116,ls),
(1200,738,o),
(1005,542,o),
(632,544,c),
(620,544,l,{
name = hr00;
})
);
},
{
closed = 1;
nodes = (
(608,544,l),
(608,0,l),
(672,0,l),
(672,544,l)
);
}
);
width = 1356;
},
{
background = {
shapes = (
{
closed = 1;
nodes = (
(664,384,l),
(724,384,ls),
(1180,384,o),
(1400,732,o),
(1400,1128,cs),
(1400,1288,ls),
(1400,1684,o),
(1180,2032,o),
(724,2032,cs),
(368,2032,o),
(132,1792,o),
(120,1472,c),
(388,1472,l),
(400,1664,o),
(524,1792,o),
(724,1792,cs),
(1032,1792,o),
(1116,1536,o),
(1116,1288,cs),
(1116,1128,ls),
(1116,876,o),
(1036,624,o),
(724,624,c),
(664,624,l)
);
},
{
closed = 1;
nodes = (
(592,624,l),
(592,0,l),
(880,0,l),
(880,624,l)
);
}
);
};
layerId = "C698F293-3EC0-4A5A-A3A0-0FDB1F5CF265";
shapes = (
{
closed = 1;
nodes = (
(642,384,l),
(702,384,ls),
(1158,384,o),
(1378,732,o),
(1378,1128,cs),
(1378,1332,ls),
(1378,1728,o),
(1158,2076,o),
(702,2076,cs),
(346,2076,o),
(110,1836,o),
(98,1516,c),
(366,1516,l),
(378,1708,o),
(502,1836,o),
(702,1836,cs),
(1010,1836,o),
(1094,1580,o),
(1094,1332,cs),
(1094,1128,ls),
(1094,876,o),
(1014,624,o),
(702,624,c),
(642,624,l)
);
},
{
closed = 1;
nodes = (
(570,624,l),
(570,0,l),
(858,0,l),
(858,624,l)
);
}
);
width = 1476;
},
{
background = {
shapes = (
{
closed = 1;
nodes = (
(616,328,l),
(808,328,ls),
(1294,328,o),
(1574,644,o),
(1576,1084,cs),
(1576,1264,ls),
(1574,1712,o),
(1290,2032,o),
(812,2032,cs),
(422,2032,o),
(106,1792,o),
(112,1392,c),
(628,1392,l),
(622,1500,o),
(682,1596,o),
(824,1596,cs),
(1026,1596,o),
(1026,1384,o),
(1028,1264,cs),
(1028,1084,ls),
(1026,880,o),
(994,760,o),
(824,760,cs),
(616,760,l,{
name = hr00;
})
);
},
{
closed = 1;
nodes = (
(576,760,l),
(576,0,l),
(1116,0,l),
(1116,760,l)
);
}
);
};
layerId = "5C20EF92-B63D-42A8-8878-93C2863E0093";
shapes = (
{
closed = 1;
nodes = (
(616,328,l),
(808,328,ls),
(1294,328,o),
(1576,644,o),
(1576,1084,cs),
(1576,1308,ls),
(1576,1756,o),
(1290,2076,o),
(812,2076,cs),
(422,2076,o),
(106,1836,o),
(112,1436,c),
(628,1436,l),
(622,1544,o),
(682,1640,o),
(824,1640,cs),
(1026,1640,o),
(1028,1428,o),
(1028,1308,cs),
(1028,1084,ls),
(1028,880,o),
(994,760,o),
(824,760,cs),
(616,760,l,{
name = hr00;
})
);
},
{
closed = 1;
nodes = (
(576,760,l),
(576,0,l),
(1116,0,l),
(1116,760,l)
);
}
);
width = 1688;
}
);
unicode = 577;
userData = {
interface.gridadjust.original = "{'width': 1526, 'leftMargin': 88, 'rightMargin': 156}";
"interface.width-adjustments" = (
-16
);
};
},
{
glyphname = uni0244;
kernLeft = U;
kernRight = J;
lastChange = "2021-09-25 14:20:58 +0000";
layers = (
{
layerId = "B1F27B51-9973-4381-9301-4FE46FE1CA59";
shapes = (
{
closed = 1;
nodes = (
(-36,1204,l),
(-36,1140,l),
(2008,1140,l),
(2008,1204,l)
);
},
{
alignment = -1;
pos = (-52,0);
ref = U;
}
);
width = 1972;
},
{
guides = (
{
angle = 90;
pos = (992,148);
}
);
layerId = "C698F293-3EC0-4A5A-A3A0-0FDB1F5CF265";
shapes = (
{
closed = 1;
nodes = (
(-30,1188,l),
(-30,1024,l),
(2074,1024,l),
(2074,1188,l)
);
},
{
ref = U;
}
);
width = 2044;
},
{
layerId = "5C20EF92-B63D-42A8-8878-93C2863E0093";
shapes = (
{
closed = 1;
nodes = (
(-16,1148,l),
(-16,844,l),
(2192,844,l),
(2192,1148,l)
);
},
{
pos = (84,0);
ref = U;
}
);
width = 2176;
}
);
unicode = 580;
userData = {
com.typemytype.robofont.guideline.magnetic.DxUS4DFy1H = 5;
interface.gridadjust.original = "{'width': 2199, 'leftMargin': 41, 'rightMargin': 42}";
"interface.width-adjustments" = (
-16
);
};
},
{
glyphname = uni0245;
lastChange = "2021-09-25 14:20:58 +0000";
layers = (
{
layerId = "B1F27B51-9973-4381-9301-4FE46FE1CA59";
shapes = (
{
closed = 1;
nodes = (
(1686,0,l),
(954,2048,l),
(882,2048,l),
(902,2000,l),
(1618,0,l)
);
},
{
closed = 1;
nodes = (
(932,2048,l),
(866,2048,l),
(134,0,l),
(202,0,l),
(918,2002,l)
);
}
);
width = 1820;
},
{
layerId = "C698F293-3EC0-4A5A-A3A0-0FDB1F5CF265";
shapes = (
{
closed = 1;
nodes = (
(1862,0,l),
(1118,2048,l),
(898,2048,l),
(970,1732,l),
(1550,0,l)
);
},
{
closed = 1;
nodes = (
(1090,2048,l),
(870,2048,l),
(130,0,l),
(442,0,l),
(1014,1732,l)
);
}
);
width = 1988;
},
{
layerId = "5C20EF92-B63D-42A8-8878-93C2863E0093";
shapes = (
{
closed = 1;
nodes = (
(2104,0,l),
(1408,2048,l),
(1020,2048,l),
(1092,1512,l),
(1504,0,l)
);
},
{
closed = 1;
nodes = (
(1200,2048,l),
(812,2048,l),
(116,0,l),
(716,0,l),
(1132,1512,l)
);
}
);
width = 2224;
}
);
unicode = 581;
userData = {
interface.gridadjust.original = "{'width': 1805, 'leftMargin': 37, 'rightMargin': 37}";
"interface.width-adjustments" = (
-16
);
};
},
{
glyphname = uni0246;
kernLeft = B;
kernRight = E;
lastChange = "2021-09-25 14:20:58 +0000";
layers = (
{
layerId = "B1F27B51-9973-4381-9301-4FE46FE1CA59";
shapes = (
{
closed = 1;
nodes = (
(1212,2308,l),
(470,-260,l),
(530,-260,l),
(1272,2308,l)
);
},
{
alignment = -1;
ref = E;
}
);
width = 1580;
},
{
layerId = "C698F293-3EC0-4A5A-A3A0-0FDB1F5CF265";
shapes = (
{
closed = 1;
nodes = (
(1162,2308,l),
(422,-260,l),
(650,-260,l),
(1390,2308,l)
);
},
{
ref = E;
}
);
width = 1640;
},
{
layerId = "5C20EF92-B63D-42A8-8878-93C2863E0093";
shapes = (
{
closed = 1;
nodes = (
(1184,2308,l),
(444,-260,l),
(672,-260,l),
(1412,2308,l)
);
},
{
ref = E;
}
);
width = 1752;
}
);
metricLeft = E;
metricRight = E;
unicode = 582;
userData = {
interface.gridadjust.original = "{'width': 1601, 'leftMargin': 256, 'rightMargin': 65}";
"interface.width-adjustments" = (
-16
);
};
},
{
glyphname = uni024C;
kernLeft = B;
kernRight = R;
lastChange = "2021-09-25 14:20:58 +0000";
layers = (
{
layerId = "B1F27B51-9973-4381-9301-4FE46FE1CA59";
shapes = (
{
closed = 1;
nodes = (
(312,948,l),
(12,948,l),
(12,884,l),
(312,884,l)
);
},
{
alignment = -1;
pos = (4,0);
ref = R;
}
);
width = 1682;
},
{
layerId = "C698F293-3EC0-4A5A-A3A0-0FDB1F5CF265";
shapes = (
{
closed = 1;
nodes = (
(390,1024,l),
(10,1024,l),
(10,800,l),
(390,800,l)
);
},
{
pos = (24,0);
ref = R;
}
);
width = 1780;
},
{
layerId = "5C20EF92-B63D-42A8-8878-93C2863E0093";
shapes = (
{
closed = 1;
nodes = (
(524,1116,l),
(16,1116,l),
(16,724,l),
(524,724,l)
);
},
{
pos = (60,0);
ref = R;
}
);
width = 1956;
}
);
unicode = 588;
userData = {
interface.gridadjust.original = "{'width': 1816, 'leftMargin': 55, 'rightMargin': 33}";
"interface.width-adjustments" = (
-16
);
};
},
{
glyphname = uni024E;
kernLeft = Y;
kernRight = Y;
lastChange = "2021-09-25 14:20:58 +0000";
layers = (
{
layerId = "B1F27B51-9973-4381-9301-4FE46FE1CA59";
shapes = (
{
closed = 1;
nodes = (
(-40,1614,l),
(-40,1550,l),
(1696,1550,l),
(1696,1614,l)
);
},
{
alignment = -1;
ref = Y;
}
);
width = 1654;
},
{
guides = (
{
orientation = center;
angle = 90;
pos = (888,1188);
}
);
layerId = "C698F293-3EC0-4A5A-A3A0-0FDB1F5CF265";
shapes = (
{
closed = 1;
nodes = (
(-14,1628,l),
(-14,1464,l),
(1850,1464,l),
(1850,1628,l)
);
},
{
ref = Y;
}
);
width = 1836;
},
{
layerId = "5C20EF92-B63D-42A8-8878-93C2863E0093";
shapes = (
{
closed = 1;
nodes = (
(36,1616,l),
(36,1356,l),
(2116,1356,l),
(2116,1616,l)
);
},
{
ref = Y;
}
);
width = 2152;
}
);
unicode = 590;
userData = {
com.typemytype.robofont.guideline.magnetic.lWiVRVgKy6 = 5;
interface.gridadjust.original = "{'width': 1911, 'leftMargin': 41, 'rightMargin': 41}";
"interface.width-adjustments" = (
-16
);
};
},
{
glyphname = uni1EFC;
lastChange = "2021-09-25 14:20:58 +0000";
layers = (
{
background = {
shapes = (
{
closed = 1;
nodes = (
(854,1159,o),
(1070,900,o),
(1070,592,cs),
(1070,277,o),
(874,36,o),
(618,36,cs),
(302,36,o),
(114,337,o),
(114,842,cs),
(114,918,ls),
(114,1463,o),
(309,1784,o),
(718,1912,c),
(696,1968,l),
(280,1846,o),
(50,1482,o),
(50,948,cs),
(50,862,ls),
(50,299,o),
(259,-28,o),
(618,-28,cs),
(909,-28,o),
(1134,242,o),
(1134,592,cs),
(1134,928,o),
(890,1222,o),
(558,1288,c),
(542,1228,l)
);
}
);
};
layerId = "B1F27B51-9973-4381-9301-4FE46FE1CA59";
shapes = (
{
closed = 1;
nodes = (
(822,1159,o),
(1038,900,o),
(1038,592,cs),
(1038,277,o),
(842,36,o),
(586,36,cs),
(270,36,o),
(82,337,o),
(82,842,cs),
(82,918,ls),
(82,1463,o),
(277,1784,o),
(686,1912,c),
(664,1968,l),
(248,1846,o),
(18,1482,o),
(18,948,cs),
(18,862,ls),
(18,299,o),
(227,-28,o),
(586,-28,cs),
(877,-28,o),
(1102,242,o),
(1102,592,cs),
(1102,928,o),
(858,1222,o),
(526,1288,c),
(510,1228,l)
);
}
);
width = 1130;
},
{
layerId = "C698F293-3EC0-4A5A-A3A0-0FDB1F5CF265";
shapes = (
{
closed = 1;
nodes = (
(926,1068,o),
(1102,908,o),
(1102,596,cs),
(1102,340,o),
(974,196,o),
(746,196,cs),
(562,196,o),
(378,384,o),
(378,740,cs),
(378,920,ls),
(378,1380,o),
(550,1684,o),
(1002,1776,c),
(958,2004,l),
(254,1876,o),
(102,1400,o),
(102,824,cs),
(102,748,ls),
(102,380,o),
(306,-28,o),
(746,-28,cs),
(1162,-28,o),
(1374,224,o),
(1374,616,cs),
(1374,980,o),
(1142,1260,o),
(802,1344,c),
(730,1120,l,{
name = hr00;
})
);
}
);
width = 1476;
},
{
layerId = "5C20EF92-B63D-42A8-8878-93C2863E0093";
shapes = (
{
closed = 1;
nodes = (
(1225,872,o),
(1285,756,o),
(1284,628,cs),
(1285,488,o),
(1181,404,o),
(1040,404,cs),
(841,404,o),
(785,524,o),
(784,700,cs),
(784,820,ls),
(785,1412,o),
(1133,1576,o),
(1464,1624,c),
(1420,2044,l),
(845,2004,o),
(233,1600,o),
(232,884,cs),
(232,792,ls),
(233,228,o),
(597,-28,o),
(1056,-28,cs),
(1493,-28,o),
(1825,216,o),
(1824,660,cs),
(1825,952,o),
(1597,1192,o),
(1352,1328,c),
(1088,976,l)
);
}
);
width = 2052;
}
);
unicode = 7932;
userData = {
interface.gridadjust.original = "{'width': 1594, 'leftMargin': 161, 'rightMargin': 163}";
"interface.width-adjustments" = (
-16
);
};
},
{
glyphname = uni1EFE;
lastChange = "2021-09-25 14:20:58 +0000";
layers = (
{
layerId = "B1F27B51-9973-4381-9301-4FE46FE1CA59";
shapes = (
{
closed = 1;
nodes = (
(964,320,l),
(968,230,l),
(1726,2048,l),
(1654,2048,l),
(964,376,l)
);
},
{
closed = 1;
nodes = (
(286,2048,l),
(976,402,l),
(1002,418,l),
(1030,436,l),
(356,2048,l)
);
},
{
closed = 1;
nodes = (
(823,-23,o),
(986,139,o),
(984,342,cs),
(982,545,o),
(823,708,o),
(618,708,cs),
(417,708,o),
(253,545,o),
(252,342,cs),
(251,139,o),
(417,-25,o),
(618,-24,cs)
);
},
{
closed = 1;
nodes = (
(453,39,o),
(316,175,o),
(316,342,cs),
(316,509,o),
(453,644,o),
(618,644,cs),
(787,644,o),
(918,509,o),
(920,342,cs),
(922,175,o),
(788,41,o),
(618,40,cs)
);
}
);
width = 1880;
},
{
layerId = "C698F293-3EC0-4A5A-A3A0-0FDB1F5CF265";
shapes = (
{
closed = 1;
nodes = (
(974,696,l),
(1002,216,l),
(1886,2048,l),
(1570,2048,l),
(982,764,l)
);
},
{
closed = 1;
nodes = (
(202,2048,l),
(922,692,l),
(1094,692,l),
(1154,780,l),
(520,2048,l)
);
},
{
closed = 1;
nodes = (
(850,-28,o),
(1062,180,o),
(1062,440,cs),
(1062,672,o),
(878,908,o),
(594,908,cs),
(334,908,o),
(126,696,o),
(126,440,cs),
(126,180,o),
(334,-28,o),
(594,-28,cs)
);
},
{
closed = 1;
nodes = (
(474,220,o),
(382,296,o),
(382,440,cs),
(382,588,o),
(474,664,o),
(594,664,cs),
(710,664,o),
(802,588,o),
(802,440,cs),
(802,296,o),
(710,220,o),
(594,220,cs)
);
}
);
width = 1988;
},
{
layerId = "5C20EF92-B63D-42A8-8878-93C2863E0093";
shapes = (
{
closed = 1;
nodes = (
(1104,724,l),
(1260,316,l),
(2194,2048,l),
(1626,2048,l),
(1092,948,l)
);
},
{
closed = 1;
nodes = (
(270,2048,l),
(1008,648,l),
(1280,648,l),
(1360,924,l),
(836,2048,l)
);
},
{
closed = 1;
nodes = (
(1040,-28,o),
(1328,256,o),
(1328,596,cs),
(1328,956,o),
(1032,1228,o),
(684,1228,cs),
(328,1228,o),
(40,940,o),
(40,596,cs),
(40,252,o),
(332,-28,o),
(684,-28,cs)
);
},
{
closed = 1;
nodes = (
(568,400,o),
(484,472,o),
(484,604,cs),
(484,732,o),
(568,804,o),
(684,804,cs),
(796,804,o),
(884,732,o),
(884,604,cs),
(884,472,o),
(796,400,o),
(684,400,cs)
);
}
);
width = 2208;
}
);
unicode = 7934;
userData = {
interface.gridadjust.original = "{'width': 1859.0, 'leftMargin': 36, 'rightMargin': 84.0}";
"interface.width-adjustments" = (
-16
);
};
},
{
glyphname = uni2C7F;
kernLeft = Z;
kernRight = Z;
lastChange = "2021-09-25 14:20:58 +0000";
layers = (
{
layerId = "B1F27B51-9973-4381-9301-4FE46FE1CA59";
shapes = (
{
closed = 1;
nodes = (
(1368,-600,o),
(1434,-584,o),
(1464,-572,c),
(1464,-516,l),
(1422,-527,o),
(1373,-536,o),
(1332,-536,cs),
(981,-536,o),
(769,62,o),
(220,64,c),
(1424,1984,l),
(1424,2048,l),
(152,2048,l),
(152,1984,l),
(1348,1984,l),
(144,64,l),
(144,0,l),
(216,0,ls),
(719,0,o),
(956,-600,o),
(1310,-600,cs)
);
}
);
width = 1578;
},
{
layerId = "C698F293-3EC0-4A5A-A3A0-0FDB1F5CF265";
shapes = (
{
closed = 1;
nodes = (
(1458,-600,o),
(1550,-584,o),
(1594,-564,c),
(1594,-344,l),
(1542,-356,o),
(1486,-368,o),
(1410,-368,cs),
(1118,-368,o),
(958,116,o),
(446,208,c),
(1558,1868,l),
(1558,2048,l),
(146,2048,l),
(146,1828,l),
(1262,1828,l),
(158,180,l),
(158,0,l),
(266,0,ls),
(774,0,o),
(950,-600,o),
(1366,-600,cs)
);
}
);
width = 1716;
},
{
background = {
shapes = (
{
closed = 1;
nodes = (
(1664,-600,o),
(1748,-580,o),
(1816,-552,c),
(1816,-136,l),
(1748,-160,o),
(1680,-168,o),
(1604,-168,cs),
(1328,-168,o),
(1164,208,o),
(808,368,c),
(1792,1712,l),
(1792,1988,l),
(140,1988,l),
(140,1552,l),
(1084,1552,l),
(136,280,l),
(136,0,l),
(292,0,ls),
(904,0,o),
(996,-600,o),
(1568,-600,cs)
);
}
);
};
layerId = "5C20EF92-B63D-42A8-8878-93C2863E0093";
shapes = (
{
closed = 1;
nodes = (
(1664,-600,o),
(1748,-580,o),
(1816,-552,c),
(1816,-136,l),
(1748,-160,o),
(1680,-168,o),
(1604,-168,cs),
(1328,-168,o),
(1164,208,o),
(808,368,c),
(1792,1772,l),
(1792,2048,l),
(140,2048,l),
(140,1612,l),
(1084,1612,l),
(136,280,l),
(136,0,l),
(292,0,ls),
(904,0,o),
(996,-600,o),
(1568,-600,cs)
);
}
);
width = 1956;
}
);
unicode = 11391;
userData = {
interface.gridadjust.original = "{'width': 1687, 'leftMargin': 117, 'rightMargin': 115}";
"interface.width-adjustments" = (
-16
);
};
},
{
glyphname = Gsmallcap;
lastChange = "2021-09-25 14:20:58 +0000";
layers = (
{
layerId = "B1F27B51-9973-4381-9301-4FE46FE1CA59";
shapes = (
{
closed = 1;
nodes = (
(852,668,l),
(852,604,l),
(1336,604,l),
(1336,230,l),
(1277,136,o),
(998,30,o),
(816,32,cs),
(456,32,o),
(212,276,o),
(212,636,cs),
(212,860,ls),
(212,1207,o),
(464,1451,o),
(824,1452,cs),
(1118,1452,o),
(1299,1305,o),
(1338,1036,c),
(1400,1036,l),
(1376,1330,o),
(1153,1516,o),
(824,1516,cs),
(430,1516,o),
(147,1241,o),
(148,860,cs),
(148,636,ls),
(147,241,o),
(418,-30,o),
(816,-32,cs),
(1046,-31,o),
(1334,87,o),
(1400,208,c),
(1400,668,l)
);
}
);
width = 1598;
},
{
layerId = "C698F293-3EC0-4A5A-A3A0-0FDB1F5CF265";
shapes = (
{
closed = 1;
nodes = (
(906,760,l),
(906,540,l),
(1294,540,l),
(1294,308,l),
(1250,272,o),
(1106,192,o),
(890,192,cs),
(618,192,o),
(418,384,o),
(418,636,cs),
(418,860,ls),
(418,1108,o),
(626,1300,o),
(882,1300,cs),
(1110,1300,o),
(1254,1200,o),
(1278,1012,c),
(1526,1012,l),
(1498,1300,o),
(1302,1516,o),
(882,1516,cs),
(470,1516,o),
(174,1248,o),
(174,860,cs),
(174,636,ls),
(174,244,o),
(466,-28,o),
(890,-28,cs),
(1258,-28,o),
(1462,124,o),
(1530,216,c),
(1530,760,l)
);
}
);
width = 1732;
},
{
layerId = "5C20EF92-B63D-42A8-8878-93C2863E0093";
shapes = (
{
closed = 1;
nodes = (
(1000,840,l),
(1000,516,l),
(1264,516,l),
(1264,404,l),
(1212,380,o),
(1192,388,o),
(1020,388,cs),
(832,388,o),
(752,492,o),
(752,636,cs),
(752,864,ls),
(752,1012,o),
(824,1108,o),
(988,1108,cs),
(1136,1108,o),
(1192,1080,o),
(1220,972,c),
(1740,972,l),
(1696,1372,o),
(1420,1516,o),
(988,1516,cs),
(540,1516,o),
(224,1252,o),
(224,860,cs),
(224,636,ls),
(224,244,o),
(556,-24,o),
(1020,-24,cs),
(1476,-24,o),
(1640,112,o),
(1756,228,c),
(1756,840,l)
);
}
);
width = 1968;
}
);
unicode = 610;
userData = {
interface.gridadjust.original = "{'width': 1700, 'leftMargin': 154, 'rightMargin': 159}";
"interface.width-adjustments" = (
-16
);
};
},
{
glyphname = Gsmallcaphook;
lastChange = "2021-09-25 14:20:58 +0000";
layers = (
{
layerId = "B1F27B51-9973-4381-9301-4FE46FE1CA59";
shapes = (
{
closed = 1;
nodes = (
(1402,1216,ls),
(1402,1385,o),
(1451,1448,o),
(1592,1448,cs),
(1618,1448,o),
(1655,1446,o),
(1690,1442,c),
(1690,1506,l),
(1656,1510,o),
(1619,1512,o),
(1592,1512,cs),
(1416,1512,o),
(1338,1423,o),
(1338,1216,cs),
(1338,1036,l),
(1402,1036,l,{
name = hr00;
})
);
},
{
closed = 1;
nodes = (
(852,668,l),
(852,604,l),
(1336,604,l),
(1336,230,l),
(1277,136,o),
(998,30,o),
(816,32,cs),
(456,32,o),
(212,276,o),
(212,636,cs),
(212,860,ls),
(212,1207,o),
(464,1451,o),
(824,1452,cs),
(1118,1452,o),
(1299,1305,o),
(1338,1036,c),
(1400,1036,l),
(1376,1330,o),
(1153,1516,o),
(824,1516,cs),
(430,1516,o),
(147,1241,o),
(148,860,cs),
(148,636,ls),
(147,241,o),
(418,-30,o),
(816,-32,cs),
(1046,-31,o),
(1334,87,o),
(1400,208,c),
(1400,668,l)
);
}
);
width = 1476;
},
{
layerId = "C698F293-3EC0-4A5A-A3A0-0FDB1F5CF265";
shapes = (
{
closed = 1;
nodes = (
(1530,1176,ls),
(1530,1336,o),
(1610,1392,o),
(1738,1392,cs),
(1758,1392,o),
(1790,1388,o),
(1814,1384,c),
(1814,1568,l),
(1774,1580,o),
(1718,1588,o),
(1678,1588,cs),
(1450,1588,o),
(1342,1440,o),
(1342,1176,cs),
(1342,1012,l),
(1530,1012,l)
);
},
{
closed = 1;
nodes = (
(906,760,l),
(906,540,l),
(1294,540,l),
(1294,308,l),
(1250,272,o),
(1106,192,o),
(890,192,cs),
(618,192,o),
(418,384,o),
(418,636,cs),
(418,860,ls),
(418,1108,o),
(626,1300,o),
(882,1300,cs),
(1110,1300,o),
(1254,1200,o),
(1278,1012,c),
(1526,1012,l),
(1498,1300,o),
(1302,1516,o),
(882,1516,cs),
(470,1516,o),
(174,1248,o),
(174,860,cs),
(174,636,ls),
(174,244,o),
(466,-28,o),
(890,-28,cs),
(1258,-28,o),
(1462,124,o),
(1530,216,c),
(1530,760,l)
);
}
);
width = 1784;
},
{
layerId = "5C20EF92-B63D-42A8-8878-93C2863E0093";
shapes = (
{
closed = 1;
nodes = (
(1768,1188,ls),
(1767,1320,o),
(1831,1364,o),
(1948,1364,cs),
(1995,1364,o),
(2031,1356,o),
(2072,1352,c),
(2072,1692,l),
(1999,1708,o),
(1947,1716,o),
(1868,1716,cs),
(1543,1716,o),
(1335,1528,o),
(1336,1188,cs),
(1336,972,l),
(1768,972,l)
);
},
{
closed = 1;
nodes = (
(1028,840,l),
(1028,516,l),
(1292,516,l),
(1292,404,l),
(1239,380,o),
(1219,388,o),
(1048,388,cs),
(859,388,o),
(779,492,o),
(780,636,cs),
(780,864,ls),
(779,1012,o),
(851,1108,o),
(1016,1108,cs),
(1163,1108,o),
(1219,1080,o),
(1248,972,c),
(1768,972,l),
(1723,1372,o),
(1447,1516,o),
(1016,1516,cs),
(567,1516,o),
(251,1252,o),
(252,860,cs),
(252,636,ls),
(251,244,o),
(583,-24,o),
(1048,-24,cs),
(1503,-24,o),
(1667,112,o),
(1784,228,c),
(1784,840,l)
);
}
);
width = 2308;
}
);
unicode = 667;
userData = {
interface.gridadjust.original = "{'width': 1748, 'leftMargin': 126, 'rightMargin': -13}";
"interface.width-adjustments" = (
-16
);
};
},
{
glyphname = Ismallcap;
lastChange = "2021-09-25 14:20:58 +0000";
layers = (
{
layerId = "B1F27B51-9973-4381-9301-4FE46FE1CA59";
shapes = (
{
closed = 1;
nodes = (
(60,1488,l),
(60,1424,l),
(580,1424,l),
(580,1488,l,{
name = hr00;
})
);
},
{
closed = 1;
nodes = (
(282,1488,l),
(282,0,l),
(346,0,l),
(346,1488,l)
);
},
{
closed = 1;
nodes = (
(60,64,l),
(60,0,l),
(580,0,l),
(580,64,l)
);
}
);
width = 632;
},
{
layerId = "C698F293-3EC0-4A5A-A3A0-0FDB1F5CF265";
shapes = (
{
closed = 1;
nodes = (
(142,1488,l),
(142,1268,l),
(826,1268,l),
(826,1488,l)
);
},
{
closed = 1;
nodes = (
(342,1488,l),
(342,0,l),
(618,0,l),
(618,1488,l)
);
},
{
closed = 1;
nodes = (
(142,220,l),
(142,0,l),
(826,0,l),
(826,220,l)
);
}
);
width = 964;
},
{
guides = (
{
angle = 90;
pos = (416,0);
}
);
layerId = "5C20EF92-B63D-42A8-8878-93C2863E0093";
shapes = (
{
closed = 1;
nodes = (
(288,1488,l),
(288,1076,l),
(1240,1076,l),
(1240,1488,l,{
name = hr00;
})
);
},
{
closed = 1;
nodes = (
(504,1488,l),
(504,0,l),
(1020,0,l),
(1020,1488,l)
);
},
{
closed = 1;
nodes = (
(288,416,l),
(288,0,l),
(1240,0,l),
(1240,416,l)
);
}
);
width = 1528;
}
);
unicode = 618;
userData = {
interface.gridadjust.original = "{'width': 958, 'leftMargin': 138, 'rightMargin': 137}";
"interface.width-adjustments" = (
-16
);
};
},
{
glyphname = Lsmallcap;
lastChange = "2021-09-25 14:20:58 +0000";
layers = (
{
layerId = "B1F27B51-9973-4381-9301-4FE46FE1CA59";
shapes = (
{
closed = 1;
nodes = (
(128,64,l),
(128,0,l),
(1004,0,l),
(1004,64,l)
);
},
{
closed = 1;
nodes = (
(112,1488,l),
(112,0,l),
(176,0,l),
(176,1488,l)
);
}
);
width = 1106;
},
{
layerId = "C698F293-3EC0-4A5A-A3A0-0FDB1F5CF265";
shapes = (
{
closed = 1;
nodes = (
(326,216,l),
(326,0,l),
(1110,0,l),
(1110,216,l)
);
},
{
closed = 1;
nodes = (
(114,1488,l),
(114,0,l),
(390,0,l),
(390,1488,l)
);
}
);
width = 1220;
},
{
layerId = "5C20EF92-B63D-42A8-8878-93C2863E0093";
shapes = (
{
closed = 1;
nodes = (
(432,412,l),
(432,0,l),
(1296,0,l),
(1296,412,l)
);
},
{
closed = 1;
nodes = (
(124,1488,l),
(124,0,l),
(644,0,l),
(644,1488,l)
);
}
);
width = 1420;
}
);
unicode = 671;
userData = {
interface.gridadjust.original = "{'width': 1239, 'leftMargin': 188, 'rightMargin': 56}";
"interface.width-adjustments" = (
-16
);
};
},
{
glyphname = Nsmallcap;
kernLeft = m;
kernRight = u;
lastChange = "2021-09-25 14:20:58 +0000";
layers = (
{
layerId = "B1F27B51-9973-4381-9301-4FE46FE1CA59";
shapes = (
{
closed = 1;
nodes = (
(1328,1536,l),
(1328,120,l),
(1320,120,l),
(304,1536,l),
(240,1536,l),
(240,0,l),
(304,0,l),
(304,1416,l),
(312,1416,l),
(1328,0,l),
(1392,0,l),
(1392,1536,l)
);
}
);
width = 1632;
},
{
background = {
shapes = (
{
pos = (30,0);
ref = N;
scale = (0.75,0.75);
}
);
};
layerId = "C698F293-3EC0-4A5A-A3A0-0FDB1F5CF265";
shapes = (
{
closed = 1;
nodes = (
(1176,1536,l),
(1176,436,l),
(1156,436,l),
(422,1536,l),
(194,1536,l),
(194,0,l),
(430,0,l),
(430,1096,l),
(450,1096,l),
(1180,0,l),
(1412,0,l),
(1412,1536,l)
);
}
);
width = 1606;
},
{
background = {
shapes = (
{
pos = (42,0);
ref = N;
scale = (0.75,0.75);
}
);
};
guides = (
{
angle = -52;
pos = (930,152);
},
{
angle = -52;
pos = (830,1010);
}
);
layerId = "5C20EF92-B63D-42A8-8878-93C2863E0093";
shapes = (
{
closed = 1;
nodes = (
(1140,1536,l),
(1140,832,l),
(1124,832,l),
(574,1536,l),
(140,1536,l),
(140,0,l),
(672,0,l),
(672,634,l),
(684,634,l),
(1176,0,l),
(1684,0,l),
(1684,1536,l)
);
}
);
width = 1824;
}
);
metricLeft = m;
metricRight = u;
unicode = 628;
userData = {
interface.gridadjust.original = "{'width': 1585, 'leftMargin': 188, 'rightMargin': 188}";
"interface.width-adjustments" = (
-16
);
};
},
{
glyphname = OEsmallcap;
lastChange = "2021-09-25 14:20:58 +0000";
layers = (
{
layerId = "B1F27B51-9973-4381-9301-4FE46FE1CA59";
shapes = (
{
closed = 1;
nodes = (
(1356,64,l),
(1356,0,l),
(2304,0,l),
(2304,64,l,{
name = hr00;
})
);
},
{
closed = 1;
nodes = (
(1304,1488,l),
(1304,0,l),
(1368,0,l),
(1368,1488,l)
);
},
{
closed = 1;
nodes = (
(1356,794,l),
(1356,730,l),
(2188,730,l),
(2188,794,l)
);
},
{
closed = 1;
nodes = (
(1356,1488,l),
(1356,1424,l),
(2304,1424,l),
(2304,1488,l)
);
},
{
closed = 1;
nodes = (
(1032,-32,o),
(1201,-17,o),
(1318,2,c),
(1318,66,l),
(1182,45,o),
(1036,32,o),
(952,32,cs),
(562,32,o),
(328,320,o),
(328,744,cs),
(328,752,ls),
(328,1168,o),
(554,1454,o),
(954,1454,cs),
(1071,1454,o),
(1159,1446,o),
(1326,1422,c),
(1326,1486,l),
(1147,1508,o),
(1036,1518,o),
(944,1518,cs),
(518,1518,o),
(264,1199,o),
(264,750,cs),
(264,744,ls),
(264,289,o),
(528,-32,o),
(946,-32,cs)
);
}
);
width = 2560;
},
{
layerId = "C698F293-3EC0-4A5A-A3A0-0FDB1F5CF265";
shapes = (
{
closed = 1;
nodes = (
(1422,216,l),
(1422,0,l),
(2294,0,l),
(2294,216,l,{
name = hr00;
})
);
},
{
closed = 1;
nodes = (
(1210,1488,l),
(1210,0,l),
(1486,0,l),
(1486,1488,l)
);
},
{
closed = 1;
nodes = (
(1422,864,l),
(1422,644,l),
(2174,644,l),
(2174,864,l)
);
},
{
closed = 1;
nodes = (
(1422,1488,l),
(1422,1272,l),
(2294,1272,l),
(2294,1488,l)
);
},
{
closed = 1;
nodes = (
(1050,-28,o),
(1190,0,o),
(1398,0,c),
(1398,216,l),
(1190,216,o),
(1070,192,o),
(890,192,cs),
(618,192,o),
(486,440,o),
(486,728,c),
(486,760,l),
(486,1044,o),
(618,1296,o),
(886,1296,cs),
(1070,1296,o),
(1190,1272,o),
(1398,1272,c),
(1398,1488,l),
(1190,1488,o),
(1050,1516,o),
(886,1516,cs),
(470,1516,o),
(210,1188,o),
(210,760,c),
(210,728,l),
(210,300,o),
(470,-28,o),
(890,-28,cs)
);
}
);
width = 2500;
},
{
layerId = "5C20EF92-B63D-42A8-8878-93C2863E0093";
shapes = (
{
closed = 1;
nodes = (
(1408,412,l),
(1408,0,l),
(2284,0,l),
(2284,412,l,{
name = hr00;
})
);
},
{
closed = 1;
nodes = (
(1096,1488,l),
(1096,0,l),
(1616,0,l),
(1616,1488,l)
);
},
{
closed = 1;
nodes = (
(1408,948,l),
(1408,536,l),
(2160,536,l),
(2160,948,l)
);
},
{
closed = 1;
nodes = (
(1408,1488,l),
(1408,1076,l),
(2284,1076,l),
(2284,1488,l)
);
},
{
closed = 1;
nodes = (
(1063,-28,o),
(1123,0,o),
(1444,0,c),
(1444,412,l),
(1123,412,o),
(1011,388,o),
(888,388,cs),
(687,388,o),
(643,532,o),
(644,728,c),
(644,760,l),
(643,944,o),
(691,1104,o),
(884,1104,cs),
(1015,1104,o),
(1123,1076,o),
(1444,1076,c),
(1444,1488,l),
(1131,1488,o),
(1063,1516,o),
(884,1516,cs),
(391,1516,o),
(123,1192,o),
(124,760,c),
(124,728,l),
(123,296,o),
(391,-28,o),
(888,-28,cs)
);
}
);
width = 2412;
}
);
unicode = 630;
userData = {
interface.gridadjust.original = "{'width': 2375, 'leftMargin': 172, 'rightMargin': 120}";
"interface.width-adjustments" = (
-16
);
};
},
{
glyphname = Rsmallcap;
lastChange = "2021-09-25 14:20:58 +0000";
layers = (
{
layerId = "B1F27B51-9973-4381-9301-4FE46FE1CA59";
shapes = (
{
closed = 1;
nodes = (
(1316,0,l),
(1392,0,l),
(948,680,l),
(870,680,l)
);
},
{
closed = 1;
nodes = (
(200,0,l),
(264,0,l),
(264,1424,l),
(784,1424,ls),
(1046,1424,o),
(1209,1297,o),
(1210,1092,cs),
(1211,857,o),
(1068,712,o),
(836,712,cs),
(224,712,l),
(224,648,l),
(836,648,ls),
(1102,648,o),
(1272,817,o),
(1272,1080,cs),
(1272,1333,o),
(1087,1488,o),
(784,1488,cs),
(200,1488,l)
);
}
);
width = 1592;
},
{
layerId = "C698F293-3EC0-4A5A-A3A0-0FDB1F5CF265";
shapes = (
{
closed = 1;
nodes = (
(1214,0,l),
(1510,0,l),
(1074,716,l),
(778,716,l)
);
},
{
closed = 1;
nodes = (
(222,0,l),
(498,0,l),
(498,1272,l),
(854,1272,ls),
(1062,1272,o),
(1150,1148,o),
(1150,1032,cs),
(1150,916,o),
(1070,796,o),
(882,796,cs),
(426,796,l),
(426,576,l),
(882,576,ls),
(1226,576,o),
(1426,772,o),
(1426,1032,cs),
(1426,1296,o),
(1218,1488,o),
(854,1488,cs),
(222,1488,l)
);
}
);
width = 1732;
},
{
layerId = "5C20EF92-B63D-42A8-8878-93C2863E0093";
shapes = (
{
closed = 1;
nodes = (
(1200,0,l),
(1712,0,l),
(1292,776,l),
(780,776,l)
);
},
{
closed = 1;
nodes = (
(268,0,l),
(780,0,l),
(780,1076,l),
(976,1076,ls),
(1108,1076,o),
(1176,1012,o),
(1176,932,cs),
(1176,856,o),
(1104,792,o),
(968,792,cs),
(568,792,l),
(568,460,l),
(968,460,ls),
(1404,460,o),
(1688,664,o),
(1688,952,cs),
(1688,1260,o),
(1412,1488,o),
(976,1488,cs),
(268,1488,l)
);
}
);
width = 1976;
}
);
unicode = 640;
userData = {
interface.gridadjust.original = "{'width': 1555, 'leftMargin': 147, 'rightMargin': 122}";
"interface.width-adjustments" = (
-16
);
};
},
{
glyphname = Rsmallcapinv;
lastChange = "2021-09-25 14:20:58 +0000";
layers = (
{
layerId = "B1F27B51-9973-4381-9301-4FE46FE1CA59";
shapes = (
{
closed = 1;
nodes = (
(1392,1488,l),
(1316,1488,l),
(870,808,l),
(948,808,l)
);
},
{
closed = 1;
nodes = (
(1087,0,o),
(1272,155,o),
(1272,408,cs),
(1272,671,o),
(1102,840,o),
(836,840,cs),
(224,840,l),
(224,776,l),
(836,776,ls),
(1068,776,o),
(1211,631,o),
(1210,396,cs),
(1209,191,o),
(1046,64,o),
(784,64,cs),
(264,64,l),
(264,1488,l),
(200,1488,l),
(200,0,l),
(784,0,ls)
);
}
);
width = 1592;
},
{
layerId = "C698F293-3EC0-4A5A-A3A0-0FDB1F5CF265";
shapes = (
{
closed = 1;
nodes = (
(1510,1488,l),
(1214,1488,l),
(778,772,l),
(1074,772,l)
);
},
{
closed = 1;
nodes = (
(1218,0,o),
(1426,196,o),
(1426,456,cs),
(1426,720,o),
(1226,912,o),
(882,912,cs),
(426,912,l),
(426,692,l),
(882,692,ls),
(1070,692,o),
(1150,572,o),
(1150,460,cs),
(1150,340,o),
(1062,216,o),
(854,216,cs),
(498,216,l),
(498,1488,l),
(222,1488,l),
(222,0,l),
(854,0,l)
);
}
);
width = 1732;
},
{
layerId = "5C20EF92-B63D-42A8-8878-93C2863E0093";
shapes = (
{
closed = 1;
nodes = (
(1712,1488,l),
(1200,1488,l),
(780,716,l),
(1292,716,l)
);
},
{
closed = 1;
nodes = (
(1408,0,o),
(1688,224,o),
(1688,536,cs),
(1688,820,o),
(1408,1028,o),
(968,1028,cs),
(568,1028,l),
(568,696,l),
(968,696,ls),
(1104,696,o),
(1176,620,o),
(1176,556,cs),
(1176,492,o),
(1104,412,o),
(976,412,cs),
(780,412,l),
(780,1488,l),
(268,1488,l),
(268,0,l),
(976,0,l)
);
}
);
width = 1976;
}
);
unicode = 641;
userData = {
interface.gridadjust.original = "{'width': 1555, 'leftMargin': 147, 'rightMargin': 122}";
"interface.width-adjustments" = (
-16
);
};
},
{
glyphname = Ysmallcap;
lastChange = "2021-09-25 14:20:58 +0000";
layers = (
{
layerId = "B1F27B51-9973-4381-9301-4FE46FE1CA59";
shapes = (
{
closed = 1;
nodes = (
(652,528,l),
(712,528,l),
(1356,1488,l),
(1280,1488,l),
(652,552,l)
);
},
{
closed = 1;
nodes = (
(16,1488,l),
(648,528,l),
(706,528,l),
(706,554,l),
(92,1488,l)
);
},
{
closed = 1;
nodes = (
(648,544,l),
(648,0,l),
(712,0,l),
(712,544,l)
);
}
);
width = 1370;
},
{
layerId = "C698F293-3EC0-4A5A-A3A0-0FDB1F5CF265";
shapes = (
{
closed = 1;
nodes = (
(698,480,l),
(862,480,l),
(1458,1488,l),
(1150,1488,l),
(654,588,l)
);
},
{
closed = 1;
nodes = (
(18,1488,l),
(614,480,l),
(778,480,l),
(830,580,l),
(326,1488,l)
);
},
{
closed = 1;
nodes = (
(598,712,l),
(598,0,l),
(870,0,l),
(870,712,l)
);
}
);
width = 1476;
},
{
layerId = "5C20EF92-B63D-42A8-8878-93C2863E0093";
shapes = (
{
closed = 1;
nodes = (
(792,400,l),
(1056,400,l),
(1636,1488,l),
(1088,1488,l),
(744,688,l)
);
},
{
closed = 1;
nodes = (
(28,1488,l),
(612,400,l),
(876,400,l),
(928,680,l),
(584,1488,l)
);
},
{
closed = 1;
nodes = (
(572,628,l),
(572,0,l),
(1084,0,l),
(1084,628,l)
);
}
);
width = 1664;
}
);
unicode = 655;
userData = {
interface.gridadjust.original = "{'width': 1474.0, 'leftMargin': 17, 'rightMargin': 16.0}";
"interface.width-adjustments" = (
-16
);
};
},
